<svg id="f1a95dc7-e7d2-45c5-976b-766b8eeff7a2" data-name="Layer 1" xmlns="http://www.w3.org/2000/svg" viewBox="0 0 51 51"><defs><style>.b53c58fb-46d1-410b-972e-188f9c80eaab{fill:#fff;stroke:#1d1d1b;stroke-miterlimit:10;}.a5fa3262-bf79-4ae7-bdfb-060f64f09c12{fill:#13110c;}</style></defs><circle class="b53c58fb-46d1-410b-972e-188f9c80eaab" cx="25.5" cy="25.5" r="25"/><path d="M46.24,26.5c-.09-.38-.19-.75-.28-1.13a5,5,0,0,1-.08-.56q-.08-.58-.12-1.17c0-.12,0-.24,0-.36,0-.27,0-.55-.07-.82s0-.33,0-.49,0-.44-.07-.66a.72.72,0,0,0-.16-.46.9.9,0,0,0-.64-.28,3,3,0,0,0-1.07.07,1.76,1.76,0,0,0-.33.07c-.13,0-.14,0-.22-.06l-.27-.38a1.54,1.54,0,0,0-.6-.48,3.17,3.17,0,0,0-.92-.28,7.72,7.72,0,0,0-1.36,0,7.51,7.51,0,0,0-1.48.25,11.57,11.57,0,0,0-1.61.51.31.31,0,0,1-.28,0L36.24,20a5.1,5.1,0,0,0-1.13-.41,2.39,2.39,0,0,0-.71,0c0-.06,0-.1,0-.14v-3.7c0-1,0-2,0-2.95a.4.4,0,0,0-.18-.37c-.48-.32-1-.67-1.42-1l-.15-.11a.15.15,0,0,0-.19,0l-.07,0a.21.21,0,0,1-.25,0l-.71-.5a.24.24,0,0,1-.13-.27.17.17,0,0,0-.09-.21l-.94-.66a.13.13,0,0,0-.18,0l-4.21,3a.19.19,0,0,0-.09.18V13c0,.85,0,1.71,0,2.57,0,.07,0,.14,0,.21-.13-.12-.26-.07-.39,0s-.33.13-.48.21a.28.28,0,0,1-.25,0l-1.48-.62a.19.19,0,0,1-.14-.21c0-.11,0-.16-.14-.21l-1.1-.5-1.38-.63a.14.14,0,0,0-.2,0L18.83,15s-.08.09-.07.16,0,.13-.1.19l-.81.72c-.17.14-.11.14-.31,0a.2.2,0,0,0-.26,0l-1.77,1.47a.27.27,0,0,0-.12.27.38.38,0,0,1-.16.35L13.85,19.4a.23.23,0,0,0-.09.19c0,.19,0,.37,0,.56v.19l-.24-.06a15.37,15.37,0,0,0-2.32-.56,7.34,7.34,0,0,0-.93-.1c-.38,0-.77,0-1.15,0a4.18,4.18,0,0,0-.79.11,2.21,2.21,0,0,0-1.24.78c0,.07-.1.13-.14.19a.13.13,0,0,1-.15.06c-.24,0-.47-.09-.71-.12a2.88,2.88,0,0,0-.88,0,.74.74,0,0,0-.61.71c0,.56-.07,1.12-.11,1.68s-.07,1-.11,1.45a8.19,8.19,0,0,1-.3,1.77,1.44,1.44,0,0,0-.09.58,1.53,1.53,0,0,0,.41.9c.08.08.14.16.22.23a.39.39,0,0,1,.15.39,1.24,1.24,0,0,0,.11.78l.08.18a1.82,1.82,0,0,0,1,.92c.16.07.33.11.49.17s.11.05.07.15-.1.22-.15.33a.39.39,0,0,0,0,.35c.16.28.31.57.46.85l.28.44a5.14,5.14,0,0,1,.66,1.07l.09.2a8.46,8.46,0,0,1,.58,1.85c.07.33.12.66.19,1a.5.5,0,0,0,.08.2,4.71,4.71,0,0,0,.33.42,2.75,2.75,0,0,0,.9.76,1.79,1.79,0,0,0,1,.15,1.22,1.22,0,0,0,.65-.25,1,1,0,0,0,.31-.35,1.75,1.75,0,0,0,.17-1.1,1.54,1.54,0,0,1,0-.3c0-.11,0-.15.15-.15l.32,0a1.65,1.65,0,0,1,.79.34.24.24,0,0,1,.09.31,1.11,1.11,0,0,1-.09.19l-.26.56a.46.46,0,0,0,0,.38c.06.13.1.27.17.39a1.26,1.26,0,0,0,.43.54.12.12,0,0,0,.15,0l.22-.12a2.88,2.88,0,0,1,.73-.3,1.4,1.4,0,0,1,.28-.06,2.16,2.16,0,0,1,.91.09,3,3,0,0,1,.82.45c.1.09.11.1,0,.22l-.2.31c-.06.11-.13.22-.18.33a2.39,2.39,0,0,0-.16.69,2.16,2.16,0,0,0,.16.91,2.29,2.29,0,0,0,.11.23,1.34,1.34,0,0,1,.82-.46c.12,0,.15,0,.2.08l0,.06a1.53,1.53,0,0,0,.9.79,2.43,2.43,0,0,0,.76.14l.3,0c.08,0,.11,0,.1-.1a.19.19,0,0,0,0-.1.93.93,0,0,1,0-.73A.48.48,0,0,1,20,40.9h.4a5.41,5.41,0,0,1,.79.21,1.22,1.22,0,0,0,.88,0,1.47,1.47,0,0,1,.28-.08c.14,0,.17,0,.22.12a3.5,3.5,0,0,0,.2.54c.07.14.15.29.36.31l.07-.18a1.5,1.5,0,0,1,.43-.59,1.71,1.71,0,0,1,.68-.32l.39-.08c.08,0,.12,0,.1.11l0,.08a2.34,2.34,0,0,0-.24.67,2.25,2.25,0,0,0,0,1.18.81.81,0,0,0,.43.53.57.57,0,0,0,.54,0A.67.67,0,0,0,26,43a2.57,2.57,0,0,0,0-1.17,2,2,0,0,0-.21-.66,2,2,0,0,1-.11-.29,1.22,1.22,0,0,1,.51.07l.14,0a1.2,1.2,0,0,1,.49.25,1.33,1.33,0,0,1,.29.29,3.7,3.7,0,0,1,.25.43c.06.12.09.14.2.06a.76.76,0,0,0,.27-.37c0-.14.08-.29.12-.43s.08-.14.2-.12l.37.11a.82.82,0,0,0,.41,0c.21-.06.41-.11.61-.18a2.67,2.67,0,0,1,.83-.17.53.53,0,0,1,.52.26,1.18,1.18,0,0,1,.14.45,1.15,1.15,0,0,1-.11.45c-.05.13,0,.16.11.16l.26,0A2.37,2.37,0,0,0,32,42a1.39,1.39,0,0,0,.78-.65,1.6,1.6,0,0,1,.16-.23s0,0,.07,0a1.41,1.41,0,0,1,.81.34l.13.11c.07-.21.14-.38.19-.56a1.94,1.94,0,0,0-.09-1.19,2,2,0,0,0-.43-.7.14.14,0,0,1,0-.2.52.52,0,0,1,.11-.1l.32-.2a2.21,2.21,0,0,1,.7-.27,1.65,1.65,0,0,1,.7,0,2.72,2.72,0,0,1,.65.19l.48.25c.12.06.14.07.24,0s.1-.13.16-.19a1.88,1.88,0,0,0,.38-.76.5.5,0,0,0,0-.32c-.06-.12-.11-.24-.16-.37L37,36.66a.12.12,0,0,1,0-.15.83.83,0,0,1,.34-.3,2.83,2.83,0,0,1,.41-.14,1.64,1.64,0,0,1,.38,0c.15,0,.18,0,.18.18v0a2.11,2.11,0,0,0,0,.83,1.11,1.11,0,0,0,.43.74,1.5,1.5,0,0,0,1.32.3,2,2,0,0,0,.49-.17,3.2,3.2,0,0,0,1-.94,1,1,0,0,0,.23-.55,1.78,1.78,0,0,1,.07-.39c.06-.28.11-.56.17-.84s.1-.46.16-.69.13-.37.19-.56a4.05,4.05,0,0,1,.43-.92c.19-.3.39-.59.6-.88a4.65,4.65,0,0,0,.53-1,.47.47,0,0,0,0-.35,1,1,0,0,0-.23-.48s0,0,.07,0l.46-.14a1.59,1.59,0,0,0,.58-.33,1.88,1.88,0,0,0,.52-.72,1.84,1.84,0,0,0,.13-.95c0-.31.35-.57.5-.81a1.23,1.23,0,0,0,.12-.26,2.7,2.7,0,0,0,.12-.49A.33.33,0,0,0,46.24,26.5Zm-13.33-14v-.16l.13.07.54.35a.18.18,0,0,1,.09.16s0,0,0,.06q0,4.41,0,8.82c0,.12,0,.24,0,.37L33,22c-.06,0-.06-.07-.06-.12,0-.38,0-.77,0-1.15ZM37.31,24c.17,0,.23.14.2.29s0,.1-.16.09c0-.19,0-.28-.15-.3s-.2,0-.25.2a1.13,1.13,0,0,1-.32-.06L36.57,24a.16.16,0,0,0-.3,0,1.49,1.49,0,0,1,0,.18l-.4-.09c0-.11,0-.2,0-.3a.2.2,0,0,0-.19-.14.16.16,0,0,0-.17.14c0,.05,0,.11,0,.19l-.62-.15a.33.33,0,0,0,.07-.33.23.23,0,0,0-.23-.19c-.11,0-.18.06-.21.19s0,.14,0,.23l-.66-.16.11-.09a.25.25,0,0,0,.06-.32.27.27,0,0,0-.32-.11.24.24,0,0,0-.15.29.49.49,0,0,0,0,.15,3.76,3.76,0,0,1-.64-.15.34.34,0,0,0,0-.41.35.35,0,0,0-.38,0h0c0-.07-.07-.14,0-.21s.15,0,.21,0Zm-1.84,6.56c0-.19,0-.38,0-.57l0-.61c0-.09,0-.19,0-.29a.52.52,0,0,1,0-.11s0-.08-.06-.08h-.52a.1.1,0,0,0-.1.11c0,.36,0,.71,0,1.07s0,.62,0,.93c0,.08.05.17,0,.22a.65.65,0,0,1-.23.06l-1.32.18-.48.06c-.11,0-.12,0-.12-.11s0-.21,0-.31c0-.28,0-.55,0-.83s0-.39,0-.59,0-.28,0-.43,0-.16,0-.25c0-.41,0-.82,0-1.24,0-.22,0-.45,0-.67s0-.52,0-.78l0-1,0-1.3c0-.12,0-.13.13-.11l.68.17,1.23.3,1.17.29.84.2.7.16.36.11s0,0,0,.06v.13c0,.58,0,1.17,0,1.75,0,1.19,0,2.38,0,3.56v.11a.09.09,0,0,1-.08.09l-1.92.26h0Zm-3-7c.07-.05.1,0,.14,0v0Zm.79.2,0,0,.19.05v0ZM32.19,12.5a.08.08,0,0,1,.1.07,1.34,1.34,0,0,1,0,.2c0,1.72.06,3.45.08,5.18V18c0,.14,0,.27.19.31s.09.12.09.2c0,.57,0,1.14,0,1.7a.53.53,0,0,1,0,.13c-.1,0-.11-.05-.11-.11,0-.23,0-.46,0-.68a.28.28,0,0,1,0-.09.16.16,0,0,0-.12-.18l0,0a.16.16,0,0,1-.12-.18c0-.3,0-.61,0-.91l0-3.17c0-.8,0-1.6,0-2.4C32.18,12.59,32.19,12.54,32.19,12.5ZM32,28.65l-.6,0-2.29,0s-.06,0-.08,0-.1,0-.1-.1v-.27h.39l.92,0,1.82,0c.15,0,.17,0,.17.17,0,.74,0,1.47,0,2.21,0,0,0,.05,0,.07s0,.09-.09.09l-.59.06L30.37,31l-.91.1-.48.05c0-.21,0-.4,0-.59,0-.51,0-1,0-1.54v-.09c0-.05,0-.07.07-.07h3c.1,0,.11,0,.11-.1S32.1,28.65,32,28.65Zm-3,2.82,3.29-.41v.36a.07.07,0,0,1-.08.07l-.45.06-1.31.17-1.35.17c-.08,0-.1,0-.1-.08ZM32.18,28s0,0,0,0h-.85l-.69,0h0l-1.48,0c-.05,0-.12,0-.12-.05s.07,0,.11,0l1,0L32,28h.13S32.18,28,32.18,28Zm0-.47c0,.21,0,.2-.2.19l-3-.05h-.1a.41.41,0,0,1-.3-.14l-.73-.74c-.12-.11-.12-.11-.25,0l-.52.36c0-.05,0-.08,0-.11s0-.28,0-.42,0-.1-.11-.1H26.6c-.06,0-.1,0-.09.09s0,.17.13.18a.09.09,0,0,1,.09.11c0,.09,0,.18,0,.27s0,.18,0,.23a.43.43,0,0,1-.39.15h-.14l-1.24,0-2.27-.09-.44,0a1.64,1.64,0,0,1,0-.22c0-.66,0-1.32,0-2l-.06-4.86v-.19c0-.13-.05-.16-.19-.14l-.1,0c-.07,0-.11,0-.08-.1a.3.3,0,0,1,.11-.14.16.16,0,0,0,.07-.14c0-.07-.07-.07-.11-.08l-.27-.08c-.12,0-.12,0-.15.08a.24.24,0,0,0,0,.07l-.63-.16h0c-.05,0-.07-.32,0-.35a.14.14,0,0,1,.11,0l.7.21,9.76,2.87.7.21c.13,0,.13,0,.14.18,0,.34,0,.68,0,1ZM27,29.2l0,2.77c0,.18,0,.19-.19.22a1.2,1.2,0,0,0-.2,0c-.07,0-.1,0-.1-.07a.22.22,0,0,1,0-.08l0-1.79h0l0-1.74c0-.2,0-.18.18-.18l1.93,0s.07,0,.09,0a.12.12,0,0,1,.07.07.56.56,0,0,1,0,.13c0,.9,0,1.79,0,2.69,0,.17,0,.33,0,.49s0,.15-.15.17-.22,0-.22-.2c0-.58,0-1.17,0-1.76,0-.27,0-.54,0-.81s0-.13-.13-.13H27.17C27,29.05,27,29.05,27,29.2Zm.57-1.33c.06-.06.11-.05.16,0l.22.23c-.5,0-1,0-1.45,0v-.05l0-.05,1.2-.91.92.94a.24.24,0,0,1,0,.07.17.17,0,0,1-.22-.05c-.2-.23-.42-.45-.63-.67s-.11-.1-.22,0l-.6.5L27,28C27.19,28,27.41,28,27.59,27.87Zm-6.44,3.25H21c-.12,0-.12,0-.13-.13v-.16a.15.15,0,0,1,0-.06l.56,0s0,0,0,0c0-.25,0-.26-.22-.26h-.3a.1.1,0,0,1-.07,0c0-.05,0,0,.07-.05l.86,0h.69s.11,0,.13-.07,0-.15-.12-.15H20.82v-.24h2.41c.1,0,.11,0,.11.11s0,.42,0,.63,0,.59,0,.88v.18l.6,0s.06,0,.06-.06,0-.11,0-.11-.11-.11-.11-.19V29.32c0-.3,0-.28-.29-.28h-.15a.2.2,0,0,0-.09.06c0,.1-.07.09-.14.09H20.81s0-.05,0-.07c0-.2,0-.21.17-.21l5.06,0h.15v.52c0,.07-.05.07-.1.07h-.75c-.07,0-.1,0-.1.1s0,.09.11.09H26c.16,0,.16,0,.16.14,0,.52,0,1,0,1.54v.08c0,.06,0,.09-.08.09l-1.06.09-1.17.11-.82.07-.85.08-.76.06-.55.05h-.08c0-.21,0-.42,0-.62a.07.07,0,0,1,.08-.07l.23,0c.06,0,.09,0,.09-.09S21.21,31.13,21.15,31.12ZM21,29.57h-.12a.08.08,0,0,1,0-.07.06.06,0,0,1,.05,0H21l2.23,0h.11s0,0,0,.06a.07.07,0,0,1,0,0H21Zm.32-2.94-.34,0c-.2,0-.2,0-.2-.21,0,0,0,0,0-.09h.35c.12,0,.13,0,.14-.13s0-.14-.12-.16l-.27,0c-.1,0-.11,0-.11-.11a2.8,2.8,0,0,1,0-.29l.22,0c.12,0,.13,0,.15-.11v-.06c0-.09,0-.11-.11-.13l-.27,0v-.2l.26,0h.13c.14,0,.16,0,.16-.15s0-.14-.15-.15l-.41,0v-.36l.74.07h.08c.17,0,.24-.07.18-.23s-.07-.06-.1-.07l-.69-.06h-.09c-.12,0-.13,0-.13-.14a2.25,2.25,0,0,1,0-.26h.18l.62.07h.05c.05,0,.13,0,.14,0a.28.28,0,0,0,0-.2s-.07-.05-.11-.06l-.76-.09c-.14,0-.14,0-.15-.16v-.16h.24l.51.05c.14,0,.15,0,.15-.15,0-.53,0-1.07,0-1.6v-.16c.08,0,.08,0,.08.08a4.86,4.86,0,0,1,0,.54.82.82,0,0,0,.13.46.32.32,0,0,1,.05.19c0,1.27,0,2.55,0,3.82v1a.1.1,0,0,1-.11.11l-.9,0c-.05,0-.11,0-.11-.07v-.47h.49c.12,0,.12,0,.13-.13v0C21.39,26.64,21.39,26.64,21.29,26.63Zm-.64-6.81.2,0,.39.1c.13,0,.13,0,.13.17a.71.71,0,0,1,0,.14l-.62-.14a.1.1,0,0,1-.09-.11A1.33,1.33,0,0,0,20.65,19.82Zm0,.77a.61.61,0,0,0,0-.14l.14,0,.47.1c.07,0,.1,0,.09.11v.16l-.2,0c-.14,0-.27-.07-.41-.09S20.65,20.67,20.66,20.59Zm0,.43.61.13a.09.09,0,0,1,.08.09c0,.09,0,.18,0,.29l-.61-.11a.12.12,0,0,1-.07-.07Zm0,.71.65.12v.32l-.61-.1a.12.12,0,0,1,0-.07A2.42,2.42,0,0,1,20.69,21.73Zm0,.69c.21,0,.4,0,.59.09,0,0,0,0,.06.07h0c0,.28.05.29-.27.23l-.26,0c-.11,0-.11,0-.12-.13Zm5.47,5.38c0,.05,0,.08,0,.11s0,.08-.09.08l-2.54-.07H23.3l-1.89,0-.62,0v-.19Zm-5.38.33H21l2.36,0,1.8,0,.93,0c.12,0,.12,0,.13.12v.25c0,.1,0,.1-.12.1H23.68c-.87,0-1.73,0-2.6,0h-.23a.08.08,0,0,1-.07-.08Zm.15,4.23.87-.09,1.25-.14L24,32l1-.11.95-.09.26,0v.36c0,.07,0,.1-.1.11l-.79.11-1.41.2-1.21.16-1.23.17L21,33c-.12,0-.14,0-.15-.11s0-.27,0-.4A.09.09,0,0,1,20.93,32.36ZM20.67,18v-.16l.16.05,6.29,2.06,4.76,1.58.1,0a.12.12,0,0,1,.09.12v.51l-.16,0-9.53-2.83-1.57-.47c-.14,0-.14,0-.14-.19Zm11.08-5.81s0,0,0,.08c0,.77,0,1.55,0,2.32,0,.56,0,1.13,0,1.69a.24.24,0,0,0,.12.23.2.2,0,0,1,.12.19c0,.82,0,1.65,0,2.47v0l-.11,0c-.09,0-.11-.08-.11-.17,0-1-.05-2-.08-2.93s0-2-.05-3c0-.24,0-.49,0-.73v-.15Zm-.45-.32a.23.23,0,0,1,.17.23c0,.82,0,1.65,0,2.47s0,1.74,0,2.6l0,1.63v.15c-.18,0-.2,0-.2-.2,0-1.24,0-2.48,0-3.72,0-1,0-2-.05-2.94ZM30.19,11c.16.05.17.06.17.21v1.09c0,.1,0,.19.12.23s.06.08.06.14v.81c0,.14,0,.15.18.19,0-.46,0-.91,0-1.36s0-.9,0-1.35a1.21,1.21,0,0,1,.39.22.23.23,0,0,1,0,.12v.86q0,.78,0,1.56l0,4.82v.18a.27.27,0,0,0-.31,0s-.1,0-.14,0l-.39-.18a.19.19,0,0,1-.12-.2V16.76c0-1.63,0-3.25,0-4.88,0-.2,0-.41,0-.62Zm-.9,7V16.84c0-1.25,0-2.49,0-3.73V11.24a.24.24,0,0,1,.14-.26,4.15,4.15,0,0,0,.34-.24l.09,0c0,.07,0,.12,0,.17,0,1.82,0,3.64,0,5.46,0,.61,0,1.22,0,1.82v.2c-.2-.1-.38-.18-.56-.25S29.29,18,29.29,18Zm-.8-6.33s0,.1,0,.15c0,1.4,0,2.81,0,4.21,0,.27,0,.55,0,.83s0,.19.18.23.09,0,.1-.07v-.32c0-.81,0-1.61,0-2.42s0-1.8,0-2.7c0-.06,0-.13.1-.16v5.89l-.45-.23s0-.08,0-.12v-.56c0-1.15,0-2.3,0-3.45,0-.36,0-.71,0-1.07C28.32,11.75,28.36,11.69,28.49,11.65Zm-.67.45h0v.18c0,1.12,0,2.24,0,3.36,0,0,0,.1,0,.16a.19.19,0,0,0,.1.2.13.13,0,0,1,.05.09c0,.26,0,.51,0,.79l-.13-.05a.15.15,0,0,1-.1-.16v-.86c0-1.18,0-2.36,0-3.55C27.8,12.21,27.78,12.15,27.82,12.1Zm-.43.33a.59.59,0,0,1,0-.08h0c0,1.36.05,2.73.07,4.09-.08,0-.09,0-.09-.07v-.49l-.06-3.24Zm-.8.53c.18-.12.35-.26.55-.41,0,1.31,0,2.6,0,3.9l-.12-.05-.48-.24a.17.17,0,0,1-.11-.19v-.26c0-.82,0-1.63,0-2.44A.32.32,0,0,1,26.59,13Zm-.67,4.67c0-.3,0-.59,0-.91l.14.05,2.49,1.15a.19.19,0,0,1,.13.21c0,.1,0,.2,0,.3a.14.14,0,0,0,.1.16c.2.07.39.16.58.24L31,19.5l.18.06.08-.14.57.24a.14.14,0,0,1,.05.1c0,.11,0,.23,0,.36l-.2-.07-5.6-2.18C25.89,17.79,25.92,17.83,25.92,17.63Zm2,1.46,3.92,1.48.1,0c.1.05.1.05.08.19l-.13,0-7.08-2.54-4.07-1.49-.08,0a.09.09,0,0,1-.09-.12v-.27l.17.06Zm-7.4-4.3.14,0,1.49.63c.1,0,.13.08.13.18s0,.19.2.28l2.94,1.16c.16.06.16.06.15.23s0,.22,0,.34a.69.69,0,0,1-.17,0l-2.7-1-2-.79c-.14,0-.14,0-.15-.2s0-.41,0-.62A.85.85,0,0,1,20.55,14.79Zm-2.66,2,.92-.78L20,15l.15-.12a.25.25,0,0,1,0,.07c0,.21,0,.41,0,.62a.2.2,0,0,1-.08.17l-2.2,1.74-.08,0v-.61C17.79,16.84,17.85,16.8,17.89,16.76Zm-3.41,2.93s0-.08.08-.11l.54-.46.52-.43a.2.2,0,0,0,.08-.17,1.31,1.31,0,0,1,0-.28.18.18,0,0,1,.05-.12l1.3-1.07.06,0q0,.49,0,1a.16.16,0,0,1-.08.15l-.61.48-1.9,1.51-.07,0C14.48,20,14.47,19.85,14.48,19.69Zm0,.95c.58-.43,1.16-.86,1.73-1.3l3.41-2.57.48-.36a.21.21,0,0,1-.08.29l-3.94,2.9-1.46,1.06a1.09,1.09,0,0,0-.17.13A.11.11,0,0,1,14.52,20.64Zm0,1.21s0-.07.07-.09L20,18l.15-.1c0,.15,0,.27,0,.4s0,.22,0,.34a.2.2,0,0,1-.11.2c-.46.27-.92.56-1.38.84l-4,2.45-.22.13Zm0,1.31a1.82,1.82,0,0,1,.06-.46.74.74,0,0,1,.14-.28.26.26,0,0,1,.28-.14c.11,0,.16.12.2.22a.89.89,0,0,1,0,.14s0,.08,0,.13.09-.09.1-.15a1,1,0,0,1,.08-.46,1.14,1.14,0,0,1,.18-.25.22.22,0,0,1,.35.06,1.57,1.57,0,0,1,.09.23l.05.14c.11,0,.1-.1.11-.16s0-.23,0-.34a.71.71,0,0,1,.23-.42.3.3,0,0,1,.52.1c0,.06,0,.13.06.2a.18.18,0,0,0,.08.09c.05,0,.06-.06.06-.1s0-.28.07-.42a1,1,0,0,1,.24-.49.35.35,0,0,1,.63.11c0,.07,0,.15.06.21a.14.14,0,0,0,.08.09c.06,0,.09,0,.1-.09a1.21,1.21,0,0,0,0-.19,1.16,1.16,0,0,1,.25-.76.93.93,0,0,1,.27-.21.32.32,0,0,1,.41.1,1.32,1.32,0,0,1,.15.29s0,.1,0,.12.08.17.08.26v.34a.94.94,0,0,0-.12-.14.32.32,0,0,0-.48,0,.72.72,0,0,0-.19.53c0,.37,0,.75,0,1.12,0,.12,0,.19.14.22s.09.06.09.13c0,.84,0,1.69,0,2.53,0,.13,0,.13-.14.17s-.15,0-.14.2,0,.12,0,.19h.15l.86-.19c.13,0,.13,0,.13-.16v-.24l-.16,0v-.28l0-5.37a.56.56,0,0,1,.15-.41.31.31,0,0,1,.09-.07c.14-.07.24,0,.24.15,0,1,0,1.92,0,2.88,0,1.6,0,3.19.05,4.79a.61.61,0,0,1,0,.14s0,.05-.06.07,0,0,0,0-.07-.1-.14-.09l-.28,0c-.09,0-.17,0-.15.14a.09.09,0,0,1-.06.06l-.61.07-.06-.17-.54.07c-.12,0-.06.1-.1.18l-.52.06c-.05,0-.08,0-.08-.07a.64.64,0,0,1,0-.09l-.46.05c-.06,0-.06.05-.06.09s0,.11-.11.11l-.27,0c-.11,0-.11,0-.13-.1a.33.33,0,0,0,0-.06l-.44.05s-.05,0-.06.06a.53.53,0,0,0,0,.13l-.43.05,0-.18-.48.05a.09.09,0,0,0-.05.07.51.51,0,0,0,0,.13l-.55.06s0-.1,0-.15C14.46,26.28,14.46,24.72,14.47,23.16Zm0,5.3v-.08c0-.11,0-.12.13-.13l.78-.07,1.2-.1.8-.07,1.23-.11,1.16-.1c.14,0,.27,0,.41,0s.12,0,.12.11v.73a1.31,1.31,0,0,1-.33,0l-2.56,0h-.13c-.06,0-.11,0-.11.1s.05.08.11.08h2.91c.07,0,.11,0,.11.09s0,.09-.1.09h-.45l-4.88,0h-.11c-.06,0-.08,0-.09.1s0,.08.08.08l.11,0c0,.13,0,.26,0,.39s0,.14.13.15a.1.1,0,0,1,.09.11v.8c0,.12,0,.12-.17.14,0,0,0,0,0,.05s0,.16.13.18l.41.05V29.26l.05,0c.2,0,.2,0,.21.18s0,.21,0,.31,0,.12.09.13.08.06.08.12c0,.27,0,.55,0,.82,0,.05,0,.1-.08.12s0,.05,0,.08a.65.65,0,0,0,0,.14,2.17,2.17,0,0,0,.51.08c0-.66,0-1.31,0-2l.05,0c.28,0,.24,0,.25.23v.13c0,.12,0,.12.12.15a.09.09,0,0,1,.09.11c0,.37,0,.74,0,1.11,0,.05,0,.09-.07.09s-.07,0-.06.08,0,.14.06.15l.47.07v-.22c0-.58,0-1.15,0-1.73a.28.28,0,0,1,0-.09s0-.06.06-.06.22,0,.33,0,.07,0,.07.09,0,.21,0,.32,0,.12.11.13.13,0,.13.14c0,.36,0,.72,0,1.08,0,.06,0,.11,0,.17l-.14,0a.08.08,0,0,0,0,0c0,.18,0,.18.18.21a4.06,4.06,0,0,0,.43.06v-.26c0-.59,0-1.19,0-1.79v-.13c0-.06,0-.08.08-.08h.41c.07,0,.09,0,.09.1v.4c0,.12,0,.13.13.15s.08.07.08.13c0,.4,0,.8,0,1.2,0,0,0,.07,0,.11H19a.25.25,0,0,0,0,.07c0,.19,0,.19.18.21l.54.07.13,0c.06,0,.08,0,.09-.08v-.1c0-.49,0-1,0-1.47,0-.23,0-.45,0-.68s0-.11.12-.11c.32,0,.27,0,.27.25V32l-.46-.06-1.53-.23-1.61-.25-1.59-.25-.54-.09c-.07,0-.1,0-.1-.11V28.46Zm.09,2.94.88.15,1.7.28,1.7.28,1.32.22c.14,0,.14,0,.14.16v.12h0l0,.26-.25,0-3.48-.66-1.9-.36-.09,0a.09.09,0,0,1-.09-.1v-.22C14.45,31.4,14.48,31.39,14.55,31.4Zm-.42-2.9-.5.06-1.56.12a.11.11,0,0,0-.08,0s0,.05,0,.07,0,.05.05.06.05,0,.08,0l.81,0,1.22-.05.11,0v2.58l-.43-.08-2.33-.44c-.15,0-.15,0-.15-.16,0-.63,0-1.26,0-1.89a.62.62,0,0,1,0-.13l.49-.06,1.88-.18.45-.05c.05,0,.1,0,.11.06S14.22,28.49,14.13,28.5Zm-2.84-.28c0-.59,0-1.18,0-1.77,0-.12,0-.12.11-.16l2.68-.91.15-.05V28h0a.5.5,0,0,1,0-.12V26c0-.05,0-.12-.08-.12s-.12,0-.12.13c0,.58,0,1.16,0,1.74a1.55,1.55,0,0,1,0,.22s0,0,0,.06c0-.42,0-.84,0-1.26-.17,0-.19,0-.19.14,0,.33,0,.66,0,1V28s0,.07-.06.07-.06,0-.06-.07,0-.33,0-.49l0-1.31s0-.09,0-.13c-.17,0-.18,0-.18.15V28c0,.13,0,.13-.12.15l-.32,0c-.06,0-.09,0-.09-.08V28c0-.53,0-1.07,0-1.6v-.16c-.18,0-.18,0-.18.15,0,.56,0,1.13,0,1.69,0,.11,0,.14-.13.12a.09.09,0,0,1-.07-.05,1.09,1.09,0,0,1,0-.18c0-.47,0-.95,0-1.42a.48.48,0,0,0,0-.12s0-.09-.05-.09-.11,0-.12.09a.49.49,0,0,0,0,.12v1.56c0,.12,0,.12-.13.14a.5.5,0,0,1,0-.12l0-1.51v-.09s0-.09-.06-.09a.1.1,0,0,0-.12.1V27c0,.39,0,.78,0,1.17a.61.61,0,0,1,0,.14s0,.05,0,.05a.15.15,0,0,1-.06-.05.4.4,0,0,1,0-.11c0-.47,0-.95,0-1.43a.27.27,0,0,0,0-.09c0-.05,0-.1-.06-.09s-.12,0-.12.09v1.57s0,.08,0,.13l-.19,0Zm2.92-5.95c0,.86,0,1.72,0,2.59a.59.59,0,0,1,0,.13h0s0-.11,0-.16c0-.37,0-.74,0-1.11a.48.48,0,0,0,0-.12s0-.1-.06-.1a.1.1,0,0,0-.11.1.49.49,0,0,0,0,.12V25c0,.12,0,.14-.15.15,0-.25,0-.5,0-.75s0-.48,0-.72c-.2,0-.21,0-.2.2V25.1c0,.13,0,.13-.16.16l0-1.42c-.18,0-.19,0-.19.19,0,.4,0,.8,0,1.2,0,.13,0,.12-.11.17l-.43.16,0-1.38c-.16,0-.19,0-.19.17,0,.38,0,.76,0,1.14,0,.16,0,.17-.21.19l0-1.31c-.17,0-.18,0-.18.18,0,.37,0,.74,0,1.11,0,.12,0,.12-.13.14l0-.67c0-.16,0-.32,0-.48s0-.11-.06-.11-.11.05-.12.11V25.8c0,.07,0,.13-.11.12l0-1.24c-.18,0-.2,0-.2.19,0,.34,0,.69,0,1,0,.11,0,.11-.14.15s0-.07,0-.1c0-.62,0-1.24,0-1.85a.27.27,0,0,1,.13-.25l2.19-1.48.48-.33.14-.09C14.19,22.07,14.21,22.17,14.21,22.27ZM14,21.53l.12-.08c.06.13,0,.19-.08.25L11.6,23.41l-.35.23c-.05-.07,0-.1,0-.14l.51-.36Zm-2.83,16a.48.48,0,0,1-.24.11,1.67,1.67,0,0,1-.77,0A.73.73,0,0,1,9.72,37a2.31,2.31,0,0,1,.1-.64.73.73,0,0,1,.44-.42,2.15,2.15,0,0,1,.47-.06l-.3.39.16,0H11c.1,0,.16,0,.23.13-.17-.1-.33,0-.48,0s-.26.13-.39.21a.12.12,0,0,0,.13.08,1.56,1.56,0,0,1,.67.15A.42.42,0,0,1,11.2,37.57Zm5,.24h-.06c-.26-.09-.52-.19-.79-.26a2.21,2.21,0,0,0-.68,0,1.58,1.58,0,0,0-.67.23h0a.27.27,0,0,1-.14-.23.68.68,0,0,1,.39-.74l.2-.08c.09,0,.1-.07.05-.16a1.14,1.14,0,0,0-.28-.3L13.93,36a.81.81,0,0,1,.37.09c.16.06.31.15.47.22a3.75,3.75,0,0,1,1,.78,2.09,2.09,0,0,1,.2.22c.09.13.17.27.25.4A.06.06,0,0,1,16.21,37.81Zm5.87,2.62-.19,0a1.56,1.56,0,0,1-.43-.08,4.58,4.58,0,0,0-.53-.14,2,2,0,0,0-1.63.12,1.07,1.07,0,0,0-.52.74,1.32,1.32,0,0,1,0,.24.43.43,0,0,1-.15-.09,1.66,1.66,0,0,1-.31-.39,3.47,3.47,0,0,1-.16-.41c-.05-.15-.1-.2-.26-.18l-.25.05a1.74,1.74,0,0,0-.36.13c-.1.07-.2,0-.19-.14a1.22,1.22,0,0,1,.25-.54.91.91,0,0,1,.41-.34,1.53,1.53,0,0,1,.87-.12l.79.17h.08a.16.16,0,0,0,0-.1l-.24-.28c-.11-.14-.24-.27-.34-.42s-.18-.31-.27-.46a.19.19,0,0,0-.17-.1.82.82,0,0,1-.74-.51c-.05-.12-.1-.24-.14-.37a.74.74,0,0,0-.16-.27c-.07-.07-.14-.16-.21-.24s0-.07,0-.09a.16.16,0,0,1,.1,0l.44,0c.14,0,.14,0,.15-.12a1.73,1.73,0,0,0-.16-.67.84.84,0,0,0-.19-.24.36.36,0,0,0-.29-.18s0,0,0,0a.08.08,0,0,1,0-.07.1.1,0,0,1,.07,0,.66.66,0,0,1,.43.1s.1,0,.14.07a1.26,1.26,0,0,1,.39.53l.1.21a.14.14,0,0,0,.15-.11,1.52,1.52,0,0,1,.29-.41.87.87,0,0,1,.17-.09c0,.12,0,.22,0,.32l0,.22,0,.16,0,.16a6.5,6.5,0,0,1,.28.68.5.5,0,0,1-.14.5.49.49,0,0,1-.14.11c-.12.06-.15.1-.12.23a1.83,1.83,0,0,0,.23.54,2,2,0,0,0,.57.6,2.27,2.27,0,0,0,.79.36c.08,0,.1,0,.1-.08a.17.17,0,0,0,0-.07A1.16,1.16,0,0,1,21,38.13l.22-.21a.75.75,0,0,0,.21-.39,1.39,1.39,0,0,1,.06-.13.45.45,0,0,1,.18.73c-.05.06-.11.11-.11.2l.22.09a1.15,1.15,0,0,1,.5.34s0,.07,0,.1a.18.18,0,0,1-.1,0,1.36,1.36,0,0,0-.17,0,1.3,1.3,0,0,0-.79.27.5.5,0,0,0-.07.66,1.17,1.17,0,0,0,.59.46l.47.17Zm.42-.68c-.14,0-.38,0-.48-.12a.15.15,0,0,1-.05-.08c0-.1.19-.11.31-.08s.21.15.29.25S22.52,39.76,22.5,39.75Zm2.72,2.61a.12.12,0,0,1-.06-.08c0-.11,0-.29.08-.36,0,.09.09.17.1.28a.2.2,0,0,1,0,.11C25.3,42.37,25.25,42.38,25.22,42.36Zm.61-3.88-.67-.07a.55.55,0,0,0-.18,0,.93.93,0,0,1-.41,0c-.11,0-.24,0-.36-.06a.66.66,0,0,1-.43-.33,1.12,1.12,0,0,1-.21-.5c0-.16,0-.32-.05-.48a3.83,3.83,0,0,0-.3-1.05,3.65,3.65,0,0,0-.21-.36,1.07,1.07,0,0,1,.63-.06l.26.05a1.19,1.19,0,0,1,.36.17s0,0,.08.06.13,0,.18,0l.07-.12a1.8,1.8,0,0,1,.32-.42.29.29,0,0,1,.43,0c.06.07.14.12.2.2l.3.41c.06.08.09.09.19,0l.28-.15a1.14,1.14,0,0,1,.7-.12l.23,0q.15,0,.06.12a3.33,3.33,0,0,0-.26.58c0,.11-.05.23-.08.34a1.42,1.42,0,0,0-.05.22.19.19,0,0,0,0,.08,2.62,2.62,0,0,1-.15.88.73.73,0,0,1-.44.45l-.3.1Zm2.06,1.32c.07-.2.22-.23.41-.22a.16.16,0,0,1,.1,0c.13.09-.11.15-.17.16Zm5.54.64-.56-.17a1.65,1.65,0,0,0-.32-.06c-.09,0-.14,0-.18.11l-.09.28a1.16,1.16,0,0,1-.42.6c-.07,0-.12,0-.12-.05a.94.94,0,0,0-.06-.24,1.08,1.08,0,0,0-.63-.66,2,2,0,0,0-.89-.13,2,2,0,0,0-.68.11,1.24,1.24,0,0,1-.22,0l-.43.13-.38.07c-.08,0-.09,0-.17-.07s.09-.06.15-.07a1.14,1.14,0,0,0,.64-.31,1.27,1.27,0,0,0,.23-.28.48.48,0,0,0-.13-.64L29,39a1,1,0,0,0-.18-.07h0a1.81,1.81,0,0,0-.31,0c-.1,0-.2,0-.32.07a.29.29,0,0,1,.13-.25,3.3,3.3,0,0,1,.41-.23l0,0c.14-.07.14-.09.05-.23a.82.82,0,0,1-.14-.28.33.33,0,0,1,0-.28c.06-.08.13-.15.21-.24a.82.82,0,0,1,.06.16,1.52,1.52,0,0,0,.36.52,2.94,2.94,0,0,1,.34.36,1.05,1.05,0,0,1,.17.71c0,.09,0,.19,0,.28s.2,0,.28,0a3.36,3.36,0,0,0,.43-.2,2.73,2.73,0,0,0,.49-.41c.1-.12.17-.24.26-.37a1.69,1.69,0,0,0,.18-.47c0-.15,0-.21-.15-.27a.45.45,0,0,1-.27-.34.92.92,0,0,1,.1-.52,2.23,2.23,0,0,0,.22-.66,3.17,3.17,0,0,0,0-.44s0-.09,0-.11a.11.11,0,0,1,.13,0l.29.36c0,.06.07.14.16.17a.83.83,0,0,0,.14-.3.87.87,0,0,1,.44-.5.75.75,0,0,0,.13-.06c.15-.12.3-.06.49,0a.92.92,0,0,1-.14.11,1.3,1.3,0,0,0-.42.42.14.14,0,0,0,0,.09,1.29,1.29,0,0,1-.05.21.72.72,0,0,0-.06.35c0,.12,0,.14.15.13l.38,0h.06c.05,0,.11,0,.13.06s0,.08-.06.11a1.62,1.62,0,0,0-.31.54,1.22,1.22,0,0,1-.28.57.27.27,0,0,1-.12.09l-.32.12c-.08,0-.18,0-.24.05s-.07.15-.11.22l-.25.41a.62.62,0,0,1-.09.12l-.36.41c-.05,0-.08.11-.13.17a.9.9,0,0,0,.37-.05,3.38,3.38,0,0,1,.72-.11,1.93,1.93,0,0,1,.34,0,1.29,1.29,0,0,1,.35.1,1.38,1.38,0,0,1,.73,1Zm3.15-3a.78.78,0,0,1-.07.25c0,.13-.19,0-.25,0a1,1,0,0,0-.64-.14,2.84,2.84,0,0,0-1.08.2l-.16,0-.2.06a2.86,2.86,0,0,1,.44-.65c.06,0,.1-.12.16-.17l.33-.28a2.73,2.73,0,0,1,.68-.44l.44-.19a.09.09,0,0,1,.07,0s0,.06,0,.08-.16.13-.23.21a.8.8,0,0,0-.15.21c0,.05,0,.1.08.13l.18.07a.77.77,0,0,1,.34.28A.54.54,0,0,1,36.58,37.4Zm3.84,0a.7.7,0,0,1-.52.17h0a1,1,0,0,1-.63-.14.36.36,0,0,1-.11-.5.71.71,0,0,1,.38-.25,2.43,2.43,0,0,1,.54-.08l.1,0c-.11-.15-.21-.25-.39-.24l-.08,0s0,0-.06-.06,0,0,.07,0a1.09,1.09,0,0,1,.18,0h.07c0-.19-.16-.22-.22-.34a.67.67,0,0,1,.78.34,1.88,1.88,0,0,1,.16.66A.59.59,0,0,1,40.42,37.41ZM45.62,27c-.09.25-.3.36-.5.5a.82.82,0,0,1-.37.13l-.44.11-.43.1a.41.41,0,0,0-.33.42,1.16,1.16,0,0,0,.05.52.32.32,0,0,0,.1.13.44.44,0,0,0,.66-.08,1,1,0,0,0,.16-.33.28.28,0,0,1,.26-.18.09.09,0,0,1,.07.11l-.09.39c-.09.27-.33.39-.54.54,0,0-.1,0-.15,0a1,1,0,0,1-.54-.06.61.61,0,0,1-.36-.27.05.05,0,0,0,0,0,.94.94,0,0,1-.22-.64.85.85,0,0,1,.22-.71,1.1,1.1,0,0,1,.62-.37,5.38,5.38,0,0,1,.69-.07,4.34,4.34,0,0,0,.52-.07.28.28,0,0,0,.25-.36l0-.14a.5.5,0,0,0-.48-.33,1.21,1.21,0,0,0-.53.09c-.14.06-.3.08-.45.13s-.11.09-.17.12a1.37,1.37,0,0,0-.36.4,2.67,2.67,0,0,1-.31.36,1.51,1.51,0,0,1-1.12.47,1.78,1.78,0,0,1-.53-.1.81.81,0,0,1-.51-.54c0-.05,0-.1,0-.15a1,1,0,0,1,.06-.56.7.7,0,0,1,.2-.33.84.84,0,0,1,.5-.24,1.33,1.33,0,0,1,.81.12.49.49,0,0,0,.16.05.2.2,0,0,0,.27-.1.23.23,0,0,0,0-.27c-.06-.09-.09-.22-.2-.26s-.26-.22-.44-.22c-.22-.16-.48-.11-.73-.16a.43.43,0,0,0-.16,0,2.37,2.37,0,0,0-.8.22c-.18.11-.34.24-.5.36a.65.65,0,0,0-.19.18.22.22,0,0,0,0,.16l.12.64a6,6,0,0,1,.09,1.58c0,.22-.07.43-.11.65,0,.05,0,.1,0,.16a1.47,1.47,0,0,0,.4.1c.41.07.81.12,1.21.22a3.85,3.85,0,0,1,.86.31,1.23,1.23,0,0,1,.6.61s0,0,0,.06,0,.11,0,.14a.11.11,0,0,1-.15,0,1.36,1.36,0,0,0-.65-.34.22.22,0,0,0-.14,0,.19.19,0,0,0-.1.1c0,.05,0,.09.07.12l.22.16a2.65,2.65,0,0,1,.25.24c-.08,0-.13,0-.16,0a1,1,0,0,0-.35-.12.18.18,0,0,0-.13,0,.14.14,0,0,0,0,.14.83.83,0,0,0,.13.14l.26.22s0,.05,0,.1l-.28-.08a.5.5,0,0,0-.32,0s0,0,0,.06a.35.35,0,0,0,0,.13l.26.32-.33-.08a.6.6,0,0,0-.23,0c-.13,0-.15.12,0,.2l.35.24c.12.07.14.13.1.22l-.45-.06a.16.16,0,0,0-.17.07.14.14,0,0,0,.07.18l.27.21.11.08a.41.41,0,0,1-.22,0l-.25,0c-.09,0-.12.05-.07.13a.36.36,0,0,0,.14.16,1.51,1.51,0,0,1,.4.35.13.13,0,0,1,0,.16,1.56,1.56,0,0,0-.84-.23s-.1,0-.16.06a.69.69,0,0,0,.25.28L41,34a2.19,2.19,0,0,1,.2.22.15.15,0,0,1-.17,0l-.32-.12-.18,0c-.06,0-.14,0-.17.05a.18.18,0,0,0,.07.17l.21.17a1.39,1.39,0,0,1,.35.44l-.2-.07a1,1,0,0,0-.57-.12c-.11,0-.14.07-.07.16l.23.27.25.25,0,0s0,.08,0,.12-.09,0-.11,0a1.49,1.49,0,0,0-.48-.26L39.51,35a1.1,1.1,0,0,0-.26-.06,3,3,0,0,0-1.16,0c-.19,0-.38.1-.58.12a3.61,3.61,0,0,0-.71.21,5.23,5.23,0,0,0-.84.37l-.61.36c-.17.11-.32.24-.49.33a4.75,4.75,0,0,0-.56.41c-.14.12-.28.25-.42.36s-.22.18-.33.28a.56.56,0,0,0,0,.08l-.12.16c0-.06,0-.08,0-.09s.14-.25.22-.37,0,0,0,0a.64.64,0,0,1,.41-.39c.14-.06.14-.12,0-.23a1.19,1.19,0,0,0-.6-.31h-.05c-.18,0-.19-.09-.11-.23a.35.35,0,0,1,.46-.13l.17.09c.06,0,.09,0,.09,0a1.11,1.11,0,0,0-.1-.51L33.77,35a.54.54,0,0,0-.4-.28L33,34.63a.46.46,0,0,0-.26,0l-.28.07-.36.13a.38.38,0,0,1,0-.11c-.07-.19-.12-.39-.19-.59a1.51,1.51,0,0,0-.1-.17l-.05-.06c0-.18-.2-.26-.33-.36a.59.59,0,0,0-.5-.13h-.09a.65.65,0,0,0-.56.91.57.57,0,0,0,.19.29.6.6,0,0,0,.63-.1l.12-.11c.08-.07.08-.08.17,0a.58.58,0,0,1,.27.55c0,.11,0,.11-.13.11s-.44,0-.66,0a.45.45,0,0,0-.16,0,.18.18,0,0,0-.13.25,1.23,1.23,0,0,1,0,.66c-.09.33-.18.66-.29,1a.87.87,0,0,0,.09.72,2.88,2.88,0,0,0,.26.35.14.14,0,0,1,0,.2l-.09.18a.24.24,0,0,1-.23.16c0-.11-.05-.22-.08-.33a1.39,1.39,0,0,0-.49-.75,1.29,1.29,0,0,1-.17-.16.31.31,0,0,1-.11-.27c0-.13.11-.18.12-.32a.1.1,0,0,0,0-.07s0,0-.07,0a.89.89,0,0,0-.6,0,2.69,2.69,0,0,0-.51.25,1.14,1.14,0,0,0-.52.79,2.08,2.08,0,0,0,0,.35.14.14,0,0,1-.08.14,1.63,1.63,0,0,0-.31.27.63.63,0,0,0-.1.28,1.58,1.58,0,0,0,.1.83.6.6,0,0,0,.09.13s.05.09,0,.1a.25.25,0,0,1-.13.06l-.35,0a1.74,1.74,0,0,1-.5-.17.62.62,0,0,0-.46-.09c-.07,0-.12,0-.12-.1s0-.23,0-.35.05-.08.1-.1.36-.11.53-.18a1.18,1.18,0,0,0,.51-.48,2.43,2.43,0,0,0,.29-1.06,2.26,2.26,0,0,1,.12-.68,1.48,1.48,0,0,1,.48-.65l.32-.25c-.05-.17-.19-.23-.31-.31a2.21,2.21,0,0,0-1.67-.26c-.16,0-.32.21-.44,0a3.12,3.12,0,0,0-.53-.56,3,3,0,0,0-.29-.2.15.15,0,0,0-.17,0,4.08,4.08,0,0,0-.33.25c-.08.09-.15.19-.22.28l0,.07c-.17.19-.23.2-.46.08a.33.33,0,0,0-.16,0c-.21,0-.41,0-.61,0a1.51,1.51,0,0,0-.36.06,1.85,1.85,0,0,0-.89.53l0,.05.13.09a2.13,2.13,0,0,1,.47.37,2.05,2.05,0,0,1,.25.46,2.74,2.74,0,0,1,.13.74,3.46,3.46,0,0,0,.21.78,1.29,1.29,0,0,0,.39.51,1.59,1.59,0,0,0,.73.32c.11,0,.13.05.14.16a1.38,1.38,0,0,0,0,.2c0,.13,0,.19-.13.19a1.19,1.19,0,0,0-.56.17,1.31,1.31,0,0,1-.42.11l-.34,0a.66.66,0,0,1-.19,0,1,1,0,0,0,.26-.4,1.34,1.34,0,0,0,0-.84.87.87,0,0,0-.35-.41.18.18,0,0,1-.1-.18,1.28,1.28,0,0,0-.4-1,1.92,1.92,0,0,0-.45-.29,1.32,1.32,0,0,0-.83-.13c-.33.06-.13.14,0,.33a.29.29,0,0,1,0,.37.35.35,0,0,1-.11.1,1.84,1.84,0,0,0-.42.46.59.59,0,0,0,0,.08,2.73,2.73,0,0,0-.14.51s0,.09-.05.09-.08,0-.12,0a.89.89,0,0,1-.21-.33s0-.07,0-.1l.22-.35a.91.91,0,0,0,.11-.83l-.24-.69a1.68,1.68,0,0,1-.06-.89c.05-.17,0-.21-.18-.26A1.85,1.85,0,0,0,19,35l-.13,0c-.12.05-.17,0-.17-.12a.67.67,0,0,1,.35-.6l.37.25a.46.46,0,0,0,.62-.14.8.8,0,0,0,.07-.55c0-.07,0-.13-.05-.2a.2.2,0,0,0,0-.08.89.89,0,0,0-.43-.25.93.93,0,0,0-.77.2.53.53,0,0,0-.12.14,2,2,0,0,0-.38.83c0,.06,0,.12,0,.18s-.09.13-.19.09a2.52,2.52,0,0,1-.29-.12,1.26,1.26,0,0,0-.79,0,.79.79,0,0,0-.46.38,1.31,1.31,0,0,0-.19.73v0l0,0a2.68,2.68,0,0,1,.3-.12.53.53,0,0,1,.22,0,.26.26,0,0,1,.2.3.16.16,0,0,1-.09.07,1.29,1.29,0,0,0-.59.28.47.47,0,0,0-.14.17c-.05.06,0,.12,0,.13a.58.58,0,0,1,.47.34,3.3,3.3,0,0,1,.18.32l.08.13,0,0-.12-.07-.64-.61c-.18-.15-.38-.3-.58-.44s-.53-.38-.81-.55-.54-.27-.81-.4l-.33-.15-.32-.11L13,35a3.41,3.41,0,0,0-.54-.1,8.22,8.22,0,0,0-.86,0c-.11,0-.21,0-.32,0a1.71,1.71,0,0,0-.7.2l-.25.11a1.05,1.05,0,0,0-.31.17,4,4,0,0,1-.43.28.57.57,0,0,1,.14-.28l.45-.5,0,0c.07-.08.05-.11,0-.14a.55.55,0,0,0-.22,0l-.44.11L9.28,35a.78.78,0,0,0,0-.07,2.26,2.26,0,0,1,.54-.53l.06,0a.11.11,0,0,0-.07-.19.83.83,0,0,0-.44.08c-.12,0-.23.1-.38.16a.94.94,0,0,1,.08-.15c.12-.12.24-.25.37-.36l.34-.25a.12.12,0,0,0,0-.09s0-.06-.08-.08h-.1a1.22,1.22,0,0,0-.65.17l-.08,0H8.88s0,0,0-.07a1,1,0,0,1,.42-.42s.05,0,.06,0,.11-.1.08-.18-.1,0-.16-.07-.22.07-.33.09l-.09,0s0-.08,0-.1l.14-.11.14-.11a1.25,1.25,0,0,0,.12-.08c.07-.08,0-.19-.06-.2a.53.53,0,0,0-.25,0,3.4,3.4,0,0,0-.34.12H8.57a.64.64,0,0,1,0-.09l.31-.28c.1-.08.26-.13.33-.23s0-.13-.05-.15a.63.63,0,0,0-.43,0l-.22.1a.69.69,0,0,1,.17-.23,1.62,1.62,0,0,0,.18-.19c.07-.12,0-.19-.11-.18l-.49.05a.53.53,0,0,1,.21-.25l.2-.17c.08-.09.05-.17-.06-.18a.85.85,0,0,0-.22,0l-.27.07,0,0,.37-.29a.27.27,0,0,0,.08-.07.09.09,0,0,0-.06-.16.87.87,0,0,0-.42.07l-.43.26-.08,0a.17.17,0,0,1,0-.18,1.21,1.21,0,0,1,.75-.7,6.4,6.4,0,0,1,1.22-.38l1-.17c.13,0,.12,0,.09-.15a6.35,6.35,0,0,1-.16-.85,5.78,5.78,0,0,1,0-1c0-.36.1-.71.15-1.06a.19.19,0,0,0-.05-.16,1.9,1.9,0,0,0-.85-.59,2,2,0,0,0-1.85.17.65.65,0,0,0-.29.38.34.34,0,0,0,0,.2.17.17,0,0,0,.22.11L8,26.17a1.17,1.17,0,0,1,.8-.09,1,1,0,0,1,.74.87.91.91,0,0,1-.63,1,1.87,1.87,0,0,1-.78.1,1.13,1.13,0,0,1-.57-.25A3,3,0,0,1,7,27.23c-.1-.11-.18-.22-.28-.32a1.33,1.33,0,0,0-.8-.35c-.14,0-.28,0-.42-.06a.4.4,0,0,0-.4.17A.44.44,0,0,0,5,27a.31.31,0,0,0,.29.32c.28,0,.56.05.84.06a1.26,1.26,0,0,1,1,.52,1,1,0,0,1,.15.8l-.06.2a.92.92,0,0,1-.31.46,1,1,0,0,1-.31.14.58.58,0,0,1-.14,0,.87.87,0,0,1-1-.44A.54.54,0,0,0,5.46,29c-.07-.16-.07-.18,0-.44h.06c.2,0,.21,0,.27.19a.68.68,0,0,0,.25.39.45.45,0,0,0,.46,0,.35.35,0,0,0,.22-.32,1.94,1.94,0,0,0,0-.24.49.49,0,0,0-.4-.55L6,28c-.26-.06-.53-.12-.79-.2a1.1,1.1,0,0,1-.62-.46.67.67,0,0,1,.24-.92A5.29,5.29,0,0,1,5.72,26L5.89,26c.06,0,.06-.08,0-.11a3.13,3.13,0,0,0-.32-.15l-.3-.08a1.29,1.29,0,0,1,.41-.25L6,25.28a.15.15,0,0,0,.1-.07.17.17,0,0,0-.07-.1L5.67,25a1.13,1.13,0,0,0-.18-.07,1.52,1.52,0,0,1,.43-.3c.06,0,.14,0,.15-.09s-.08-.1-.14-.13l-.36-.14A.9.9,0,0,1,5.88,24c.11-.07.24-.13.38-.2a1.58,1.58,0,0,0-.56-.29A1.41,1.41,0,0,1,6.27,23a1.2,1.2,0,0,0-.68-.14l0,0a1.14,1.14,0,0,1,.11-.11l.45-.24.16-.08a1.34,1.34,0,0,0-.68-.27.49.49,0,0,1,.23-.2l.31-.1.12,0c0-.08-.06-.11-.12-.14a.79.79,0,0,0-.37-.1H5.49c0-.06,0-.08.08-.1a.9.9,0,0,1,.72-.05l.14.05a.32.32,0,0,1,.2.24,6.41,6.41,0,0,1,.2,1.44c0,.17,0,.34,0,.52a10.29,10.29,0,0,1-.15,1.92c0,.2,0,.4-.07.59a.66.66,0,0,0,.19.56.9.9,0,0,0,.92.33l.37,0H8.2a.09.09,0,0,1,.06.07s0,.05-.06.07l-.13,0c-.07,0-.09.05-.05.12a.49.49,0,0,0,.42.27.7.7,0,0,0,.7-.41.55.55,0,0,0-.36-.72,1.44,1.44,0,0,0-.77,0l-.24.06a.5.5,0,0,1-.59-.32.66.66,0,0,1,.12-.67,1.58,1.58,0,0,1,.23-.22,2.58,2.58,0,0,1,1-.44l.19-.05a.52.52,0,0,0-.33-.16A1.36,1.36,0,0,0,8,24.64c-.12,0-.24,0-.37,0l.06-.1a.82.82,0,0,1,.55-.24h.4c-.05-.13-.17-.15-.26-.2a1.36,1.36,0,0,0-.3-.13.75.75,0,0,1,.46-.21h.19a.53.53,0,0,0,.12,0s0-.09-.07-.11l-.36-.18-.2-.07A1.39,1.39,0,0,1,9,23a1.06,1.06,0,0,0-.94-.29,1.49,1.49,0,0,1,.12-.14,1.16,1.16,0,0,1,.62-.27l.13,0a.27.27,0,0,0-.2-.19,1.18,1.18,0,0,0-.42,0H8.16a.27.27,0,0,1,.14-.23.85.85,0,0,1,.44-.14h.09l.1,0a.26.26,0,0,0,0-.12.53.53,0,0,0-.17-.08.94.94,0,0,0-.44-.05.55.55,0,0,1-.13,0,1.74,1.74,0,0,1,.75-.54.46.46,0,0,0-.43-.16L8,20.73s0-.05.06-.06a1.57,1.57,0,0,1,.55-.27A4.17,4.17,0,0,1,10,20.29c.48,0,1,.07,1.43.13a11.44,11.44,0,0,1,1.75.42,5.21,5.21,0,0,1,.47.24c.05,0,0,.06,0,.09l-.09.08-2.6,2a.28.28,0,0,0-.13.26v8.56c0,.17,0,.2.21.22l1.38.17,1.6.19,1.56.19,1.56.19,1.58.2,1.31.16.62.1h.12l1.64-.15,1.84-.16L25.81,33l1.83-.17,1.53-.13,1.49-.14,1.18-.09,1.5-.14.78-.07,1.25-.11,1.17-.1L37.72,32l.79-.06.39,0a.17.17,0,0,0,.18-.16.88.88,0,0,0,0-.17c0-2.07,0-4.14,0-6.21a.48.48,0,0,1,.16-.39c.15-.12.15-.17,0-.33l-.8-1.33a.35.35,0,0,1-.05-.08.19.19,0,0,0-.27-.08l-.55.21a.2.2,0,0,1-.17,0l-2.95-.89c-.11,0-.13-.05-.13-.15V20.62c0-.23,0-.26.26-.26a1.48,1.48,0,0,1,.68.16c.23.09.46.18.69.29a1.83,1.83,0,0,1,.26.16l.25.16a.17.17,0,0,0,.18,0c.23-.12.46-.24.7-.34a6.56,6.56,0,0,1,1.14-.36A12.32,12.32,0,0,1,40,20.24a7.06,7.06,0,0,1,1,0,2,2,0,0,1,.55.09,1.94,1.94,0,0,1,.35.18.09.09,0,0,1-.12.06,1.38,1.38,0,0,0-.45,0l0,0-.1.12s.06.06.1.07a2.06,2.06,0,0,1,.44.24.26.26,0,0,1,.13.23h-.3l-.31.05s-.06,0-.07,0,0,.08,0,.1.05.06.08.07h.08a.76.76,0,0,1,.51.23s0,.06,0,.08a.18.18,0,0,1-.09.06.14.14,0,0,1-.09,0,.51.51,0,0,0-.3,0,.3.3,0,0,0-.24.21.26.26,0,0,0,.1,0,1.8,1.8,0,0,1,.52.13c.05,0,.09.06.13.1l.15.12c0,.06-.07.06-.12.05a1.45,1.45,0,0,0-.65.12l0,0c-.05.05-.14.08-.12.16s.11.06.17.06a1.5,1.5,0,0,1,.5.18c.06,0,.07.07,0,.12a.38.38,0,0,1-.15.09,1.72,1.72,0,0,0-.21.07.33.33,0,0,0-.12.14s0,.06.06.07l.39.06a.5.5,0,0,1,.33.22,1,1,0,0,1-.17,0,.45.45,0,0,0-.28.06.3.3,0,0,0-.09.13s0,.08.06.09l.19,0a1.22,1.22,0,0,1,.34,0c.12,0,.26.07.33.23l-.33,0a1.35,1.35,0,0,0-.49.06.37.37,0,0,0-.18.19c.15,0,.3.09.44.15a1.86,1.86,0,0,1,.63.35l.06,0a1,1,0,0,1,.38.57A.17.17,0,0,1,43,26a1.2,1.2,0,0,1-.18.31.27.27,0,0,1-.26.1l-.32-.09a1.31,1.31,0,0,0-.83,0A.63.63,0,0,0,41,27a.6.6,0,0,0,.17.3.78.78,0,0,0,.78.23.35.35,0,0,0,.26-.34.13.13,0,0,0-.06-.09s0,0-.07,0a.09.09,0,0,1,0-.05l0,0a.48.48,0,0,1,.12,0l.27,0a.8.8,0,0,0,.56-.11.26.26,0,0,1,.13-.06c.19,0,.25-.19.33-.33a.52.52,0,0,0,.07-.21.62.62,0,0,0,0-.27,12,12,0,0,1-.24-1.67,11.71,11.71,0,0,1,0-1.45c0-.24.05-.48.08-.72s.07-.38.1-.57a.28.28,0,0,1,.18-.23,1.08,1.08,0,0,1,.77-.08.28.28,0,0,1,.22.16.2.2,0,0,1-.2.09l-.49,0c-.05,0-.12,0-.12.06a.17.17,0,0,0,.07.14,2.12,2.12,0,0,0,.31.14c0,.12,0,.13-.14.13H44c-.07,0-.13,0-.14.11a.21.21,0,0,0,.06.2l.15.08.29.13,0,0s0,.07,0,.09-.06.05-.09.05l-.27,0H44s-.1.05-.1.08A.28.28,0,0,0,44,23a1,1,0,0,0,.18.08,2.88,2.88,0,0,1,.27.22c.08.09.06.12-.05.15l-.26,0c-.07,0-.13,0-.15.09a.15.15,0,0,0,.09.17c.1.05.19.11.29.15s.15.13.23.23l-.17,0-.25,0a.09.09,0,0,0-.06.16.3.3,0,0,0,.13.09,1.57,1.57,0,0,1,.37.24c.09.1.08.16,0,.19a2.93,2.93,0,0,1-.29.05.15.15,0,0,0-.1.07.12.12,0,0,0,.06.14.35.35,0,0,0,.13.05.66.66,0,0,1,.42.15.17.17,0,0,1,.1.06.83.83,0,0,1,0,.12l-.48.1a.41.41,0,0,0-.15.07.07.07,0,0,0,0,.12l.32.12a1.29,1.29,0,0,1,.21.07,1.47,1.47,0,0,1,.6.33A.64.64,0,0,1,45.62,27Zm-3.43,1.68c0,.1,0,.2,0,.3s0,.08-.1.07a.17.17,0,0,1-.1,0l-.67-.26c-.2-.06-.41-.1-.61-.14s-.2-.09-.17-.25l0-.13a.86.86,0,0,1,0-.15,6.48,6.48,0,0,0,.62.27c.22.07.44.11.67.17a1.46,1.46,0,0,0,.22,0A.11.11,0,0,1,42.19,28.72Zm-34.11.05c0-.05,0-.08.08-.08a3.11,3.11,0,0,0,.44-.07,3.07,3.07,0,0,0,.67-.21,3.85,3.85,0,0,1,.44-.19c0,.15,0,.28,0,.41s0,.07-.07.07a1,1,0,0,1-.24,0l-.18.06-.15.05-.71.29-.29.1A.94.94,0,0,1,8.08,28.77Zm29.85-2.7c0-.23,0-.46,0-.68s0-.14.13-.11l.48.13c.13,0,.16.07.15.21,0,.54,0,1.08,0,1.62,0,.18,0,.36,0,.53s0,.17-.18.17h-.35A.08.08,0,0,0,38,28v.09c0,.15,0,.15.14.16l.36,0c.09,0,.09.06.09.12V29c0,.33,0,.67,0,1,0,.15,0,.15-.18.13,0-.37,0-.72,0-1.07s-.08-.3-.3-.24a.14.14,0,0,0-.07.06.85.85,0,0,0,0,.22c0,.26,0,.52,0,.78v.51h.42c.14,0,.15,0,.15.15a.71.71,0,0,1,0,.14s0,0,0,0l-.05,0a.07.07,0,0,1,0-.05c0-.15,0-.15-.2-.14l-.21,0c0,.07,0,.13,0,.2s0,.09-.09.08a.23.23,0,0,1-.06-.09s0-.05,0-.07C37.9,29.12,37.92,27.59,37.93,26.07ZM38.06,24l.13-.1a.1.1,0,0,1,.16,0,2.48,2.48,0,0,1,.4.66c0,.13,0,.19-.15.16l-.47-.14c-.21-.06-.22-.07-.23-.3A.29.29,0,0,1,38.06,24Z" transform="translate(0.5 0.5)"/><path d="M25.39,27.25v-.41c0-.13,0-.13-.15-.15s-.2,0-.2-.21v-.09c0-.06,0-.08.09-.08h.19c.05,0,.07,0,.07-.08s0-.06,0-.08V23.43c0-.05,0-.07-.07-.07h-.08c-.07,0-.1,0-.1-.11v-.45c0-.22,0-.44,0-.66a.6.6,0,0,0-.07-.3l-.22-.41s-.06-.08-.06-.13c0-.24-.24-.24-.38-.34a.07.07,0,0,0-.1,0c0,.05,0,.09-.11.07s-.06-.07-.06-.12,0-.37,0-.55,0-.11.13-.09l.82.24a.19.19,0,0,1,.09.28c-.05.08,0,.11.06.13a.88.88,0,0,1,.23.07.33.33,0,0,0,.26,0,.21.21,0,0,1,.26.08.24.24,0,0,0,.21.1.11.11,0,0,0,.07-.06s0-.05,0-.07l-.08,0s-.09-.05-.05-.12.06-.07.13-.05l.92.29c.12,0,.12,0,.11.17s0,.39,0,.58,0,.1.09.09a.56.56,0,0,1,.46.23.78.78,0,0,1,.24.58c0,.71,0,1.42,0,2.13,0,.33,0,.67,0,1,0,.14,0,.15.14.15h.25a1.11,1.11,0,0,0,0-.17l0-3.33a.24.24,0,0,0-.09-.2L28.05,22a.58.58,0,0,1-.05-.14,1.12,1.12,0,0,0-.05-.13c-.13.06-.11.17-.15.26s-.21-.08-.21-.23a1.3,1.3,0,0,1,0-.48l.28.07.37.1a.23.23,0,0,1,.16.13,2,2,0,0,1,.19.79l0,3.73c0,.33,0,.66,0,1v.09c0,.15,0,.15-.19.13a2.11,2.11,0,0,1,0-.26c0-.08,0-.12-.11-.11h0l-.2,0v-.32s.05,0,.07,0h.14c.1,0,.11,0,.11-.09s0-.13-.12-.13l-1.45,0h-.42c-.15,0-.16,0-.16.15s0,.44,0,.67,0,.12-.13.09a.14.14,0,0,1-.06-.07.34.34,0,0,1,0-.1v-4.8c0-.1,0-.11.1-.11s.11,0,.11.11c0,.39,0,.77,0,1.16,0,.85,0,1.7,0,2.55a.34.34,0,0,0,0,.09h.4c.06,0,.09,0,.09-.08v-.15c0-1.07,0-2.15,0-3.22a.42.42,0,0,1,.13-.34c.11-.1.06-.23,0-.34s-.13-.08-.18,0-.11.16-.17.23a.26.26,0,0,1-.11.07.14.14,0,0,1-.17-.11.55.55,0,0,1,.05-.36,2.12,2.12,0,0,1,.11-.21.36.36,0,0,0,0-.11.08.08,0,0,0,0-.08.13.13,0,0,0-.09,0c-.06.14-.18.16-.31.17l0,0c-.07.06-.13,0-.18,0l-.26-.23a.23.23,0,0,0-.09,0,.21.21,0,0,0,0,.1,1.22,1.22,0,0,0,0,.27c0,.85,0,1.71,0,2.56s0,1.94,0,2.92v0C25.56,27.28,25.56,27.28,25.39,27.25Zm2.45-3.38v.18c0,.63,0,1.26,0,1.89a.27.27,0,0,0,0,.13c.08,0,.05-.08.05-.13l0-1.76v-.25S27.92,23.85,27.84,23.87Z" transform="translate(0.5 0.5)"/><path d="M23.22,25.76v-3a3.84,3.84,0,0,1,0-.59,1.26,1.26,0,0,1,.12-.42,1.24,1.24,0,0,1,.29-.39.56.56,0,0,1,.87.14c.1.19.18.39.26.58a.57.57,0,0,1,0,.18v1.54c0,.64,0,1.29,0,1.94,0,.12,0,.12.13.13h.29c.1,0,.1,0,.1.12a0,0,0,0,1,0,.05c0,.09,0,.1-.1.1l-.57,0-1.3-.06-.26,0a.08.08,0,0,1-.09-.09v-.06c0-.11,0-.12.12-.12Zm1.36.06c0-.05,0-.1,0-.14l0-2.32s0-.08,0-.1a.08.08,0,0,0-.07,0,.06.06,0,0,0-.05.05s0,.06,0,.09v1c0,.45,0,.9,0,1.35C24.44,25.83,24.44,25.83,24.58,25.82Z" transform="translate(0.5 0.5)"/><path d="M30,26.75v.42c0,.15,0,.15.14.16l.84,0H31a.13.13,0,0,1,.11.2s-.05,0-.08,0H29.66c-.08,0-.11,0-.11-.11v-.24c0-.08,0-.1-.11-.1s-.09.05-.09.11v.24c0,.05,0,.07-.08.08a.09.09,0,0,1-.1-.07v-.13c0-.69,0-1.39,0-2.08a1.28,1.28,0,0,1,0-.19.06.06,0,0,1,.08-.06.07.07,0,0,1,.06.06.32.32,0,0,1,0,.14v.87s0,.09,0,.13l.11,0c.1,0,.13,0,.14-.13V26c0-.91,0-1.82.05-2.74a.48.48,0,0,1,.21-.4.4.4,0,0,1,.56.17.81.81,0,0,1,.05.27c0,.35,0,.71,0,1.06,0,.6,0,1.19,0,1.78,0,.14,0,.17.16.18l.43,0c.05,0,.12,0,.13.06a.81.81,0,0,1,0,.22l-.13,0-.9,0h-.7l-.07.05s0,0,.06,0h.18Z" transform="translate(0.5 0.5)"/><path d="M22.56,19.8l.36.1.73.22c.07,0,.13,0,.14.11a4,4,0,0,1,.08.46c0,.18,0,.23-.19.23a.32.32,0,0,0-.29.14.42.42,0,0,1-.29.17c-.13,0-.13,0-.13.16,0,.57,0,1.14,0,1.72,0,1,0,1.94,0,2.91,0,.18,0,.18.17.19h.18c.08,0,.11,0,.11.11v.5c0,.21,0,.21.21.22l1.45,0h.1c.06,0,.07.05.07.1s0,.09-.07.09h-.11l-1.8,0c-.27,0-.22,0-.22-.23v-.37s0,0-.05-.07,0,.05,0,.07,0,.21,0,.31,0,.11-.1.11-.12,0-.13-.1V22.09a.39.39,0,0,0-.07-.29s0-.09,0-.13c0-.21,0-.41,0-.62s0-.16.16-.16a.47.47,0,0,0,.44-.32c0-.06,0-.11,0-.14s-.11,0-.15.07a.12.12,0,0,0,0,.08c0,.08,0,.11-.08.14a.31.31,0,0,1-.49-.17.24.24,0,0,0-.17-.18c-.13,0-.17-.11-.14-.2a.1.1,0,0,1,.09-.09.44.44,0,0,1,.31.08,1.83,1.83,0,0,0,.3.18s0,0,.05,0,0-.06,0-.07l-.14-.11-.18-.1C22.52,20,22.52,19.91,22.56,19.8Z" transform="translate(0.5 0.5)"/><path d="M31.32,22.42h0c.35.06.35.06.35.4v4.33a.34.34,0,0,1,0,.1.14.14,0,0,1-.07.08.07.07,0,0,1-.09-.07.66.66,0,0,1,0-.14c0-.43,0-.87,0-1.3,0-.09,0-.2-.12-.21s0,0,0-.07V25.4c0-.61,0-1.21,0-1.82,0-.07,0-.15-.06-.2a.13.13,0,0,1,0-.09v-.81A.14.14,0,0,1,31.32,22.42Z" transform="translate(0.5 0.5)"/><path d="M30.33,22.1l.68.21a.14.14,0,0,1,.07.08,1.09,1.09,0,0,1,0,.18c0,1.13,0,2.26,0,3.39v0c0,.06,0,.1-.08.1s-.07-.05-.07-.1c0-.25,0-.49,0-.74s0-.61,0-.92,0-.66,0-1a.42.42,0,0,0-.1-.3.51.51,0,0,1-.09-.18.21.21,0,0,0-.18-.19l-.07,0c-.13-.05-.15-.07-.14-.21S30.33,22.24,30.33,22.1Z" transform="translate(0.5 0.5)"/><path d="M30.07,22.16a.92.92,0,0,0,0,.15.14.14,0,0,1-.12.14.3.3,0,0,0-.24.18.62.62,0,0,1-.11.17.18.18,0,0,1-.33-.07,2,2,0,0,0-.1-.21,1,1,0,0,0-.35-.34l-.07,0a.13.13,0,0,1,0-.15.09.09,0,0,1,.12,0,1.55,1.55,0,0,1,.23.06l.1.05.06,0s0,0,0-.06a.39.39,0,0,1-.08-.1.08.08,0,0,1,0-.08.12.12,0,0,1,.08,0L30,22a.11.11,0,0,1,.08.11A.11.11,0,0,0,30.07,22.16Z" transform="translate(0.5 0.5)"/><path d="M30.84,27.15c0-.1,0-.19,0-.28s0-.09.09-.09h.39a.1.1,0,0,1,.11.11c0,.31,0,.28-.25.26Z" transform="translate(0.5 0.5)"/><path d="M18.3,24.09l0,1.52c0,.15,0,.3,0,.45s0,.09-.09.11l-.71.16c-.1,0-.11,0-.12-.09v0c0-.21,0-.19.17-.24s.14,0,.14-.18l0-1.45c0-.32,0-.63,0-.95a.18.18,0,0,0-.11-.19.18.18,0,0,1-.1-.16c0-.3,0-.59,0-.88a1,1,0,0,1,.05-.3.63.63,0,0,1,.13-.2.27.27,0,0,1,.42,0,.66.66,0,0,1,.19.48c0,.57,0,1.15,0,1.72v.22Z" transform="translate(0.5 0.5)"/><path d="M16.36,26.58v-.13c0-.17,0-.17.17-.22s.12,0,.11-.15c0-.74,0-1.48,0-2.22,0-.12,0-.22-.14-.27s-.07-.08-.08-.14c0-.24,0-.47,0-.7a.73.73,0,0,1,.09-.43.3.3,0,0,1,.54,0,.83.83,0,0,1,.1.35c0,1.08.05,2.16.07,3.24,0,.14,0,.27,0,.4s0,.1-.07.11Z" transform="translate(0.5 0.5)"/><path d="M15.4,26.79v-.12c0-.16,0-.16.15-.2s.15,0,.15-.19c0-.71,0-1.43,0-2.14,0-.11,0-.19-.14-.22s-.11-.1-.11-.19,0-.46,0-.69a.51.51,0,0,1,.1-.32.26.26,0,0,1,.44,0,.67.67,0,0,1,.11.38c0,.21,0,.42,0,.64,0,.81,0,1.62,0,2.44a.39.39,0,0,0,0,.18.44.44,0,0,1,0,.23s0,.05-.05.06Z" transform="translate(0.5 0.5)"/><path d="M14.64,26.93v-.22l.16-.06V24.41c0-.08,0-.15-.09-.19s0-.07,0-.1c0-.22,0-.45,0-.67a1.38,1.38,0,0,1,.06-.26.2.2,0,0,1,.17-.13.21.21,0,0,1,.17.12.59.59,0,0,1,.06.32c0,.35,0,.71,0,1.06,0,.62,0,1.24,0,1.85,0,.07,0,.14.08.18s0,.24,0,.25l-.5.1Z" transform="translate(0.5 0.5)"/><path d="M19.92,26.16c0,.15,0,.16-.15.19l-.84.16c-.12,0-.12,0-.13-.1a.28.28,0,0,1,0-.09c0-.08,0-.12.11-.13l.86-.18c.15,0,.15,0,.16.12Z" transform="translate(0.5 0.5)"/><path d="M18.33,26.48c0,.15,0,.15-.14.18l-.53.1c-.07,0-.1,0-.11-.08s0-.21.18-.25l.43-.09C18.32,26.31,18.33,26.32,18.33,26.48Z" transform="translate(0.5 0.5)"/><path d="M16.43,27s0,0,0-.08c0-.22-.05-.2.2-.25l.35-.07.15,0s0,0,0,0c.05.26.05.26-.22.31l-.41.08Z" transform="translate(0.5 0.5)"/><path d="M16.05,26.81a1.36,1.36,0,0,1,0,.21s0,.06-.05.06l-.54.11a.41.41,0,0,1,0-.07c0-.21-.06-.21.2-.25L16,26.8S16,26.8,16.05,26.81Z" transform="translate(0.5 0.5)"/><path d="M15.17,27c.05.28,0,.28-.21.32l-.3.06,0-.05c0-.22,0-.23.21-.27Z" transform="translate(0.5 0.5)"/><path d="M34.31,30.29c.18.06.22.13.17.31l.08,0s.07.06.06.11a.12.12,0,0,1-.1.1h-.06l-.71.05-.64,0H32.8s-.1,0-.11-.06,0-.12,0-.14.05-.08.05-.13l0-.93c0-.19,0-.39,0-.59s0-.15.15-.15h.3c.06,0,.08,0,.08.08v.56a.19.19,0,0,1,0,.07.27.27,0,0,0-.07.26c0,.14,0,.29,0,.44s0,.08,0,.09.08.13.08.21,0,.07.07.07h.29c.06,0,.09,0,.09-.1a.45.45,0,0,0,0-.11c0-.45,0-.89,0-1.34,0-.25,0-.26.25-.26l.33,0c.08,0,.12,0,.08.11a1,1,0,0,0-.07.46.13.13,0,0,1-.05.09c-.06,0-.07.06-.08.11s0,.2,0,.3S34.3,30.19,34.31,30.29Z" transform="translate(0.5 0.5)"/><path d="M37.38,30.29a.29.29,0,0,1,0,.09c0,.15,0,.16-.17.17l-1.09.07-.25,0c-.13,0-.15,0-.15-.14s0-.38,0-.57,0-.45,0-.68,0-.2,0-.3a.1.1,0,0,1,.08-.08h.48a.14.14,0,0,1,.08.07c0,.05,0,.1,0,.11s-.1.1-.1.19a1.27,1.27,0,0,1,0,.2.31.31,0,0,1,0,.12s0,0,0,0a2.79,2.79,0,0,0,0,.5c0,.16.06.17-.11.25a3.07,3.07,0,0,0,1-.07.32.32,0,0,0-.23,0c-.14,0-.19,0-.18-.16l0-.63a3.62,3.62,0,0,1,0-.47c0-.12,0-.12.12-.12h.32c.1,0,.14.06.09.13a.77.77,0,0,0-.09.39,1.13,1.13,0,0,1,0,.18l-.06.33s0,0,0,0,.09.13.09.21,0,.16.15.13Z" transform="translate(0.5 0.5)"/><path d="M32.71,26V24.62c0-.22,0-.26.27-.23a2,2,0,0,1,.33.09c.08,0,.08.12,0,.18a.18.18,0,0,1-.21,0s-.1,0-.11,0,0,.07.08.08a1.25,1.25,0,0,0,.19,0c.1,0,.14.05.12.15s-.08.34-.11.52a4.48,4.48,0,0,0-.09.64c0,.28,0,.56,0,.84s0,.15.15.17a.48.48,0,0,1,.17.05.12.12,0,0,1,.06.1c0,.05,0,.08-.09.08H33.2c-.14,0-.17,0-.2.16s0,.14-.1.14-.16,0-.16-.13,0-.43,0-.64V26Z" transform="translate(0.5 0.5)"/><path d="M36.69,28.26c-.33,0-.66-.05-1,0a6.55,6.55,0,0,1-.89,0c-.41,0-.82,0-1.23,0l-.84,0c-.09,0-.11,0-.12-.12h0c0-.22,0-.22.21-.21l1.43.07,1.3,0,.64,0,1.06.06c.05,0,.13,0,.14,0s0,.11,0,.17,0,.11-.12.11h-.61Z" transform="translate(0.5 0.5)"/><path d="M34,25a.2.2,0,0,0,.2.09.3.3,0,0,1,.2.08c.07.06.08.12,0,.17a.31.31,0,0,0-.14.3c0,.46,0,.92,0,1.39a.26.26,0,0,0,.14.27.11.11,0,0,1,0,.13c0,.05-.05.06-.1.07h-.13c-.08,0-.14,0-.13.15s0,.1-.12.1-.12,0-.12-.1c0-.29,0-.57,0-.86,0-.63,0-1.27,0-1.91a.41.41,0,0,1,0-.11s.06-.1.1-.1a.52.52,0,0,1,.38.07.12.12,0,0,1,.06.14c0,.06-.06.05-.1.06Z" transform="translate(0.5 0.5)"/><path d="M35.35,27.33v.2a1.91,1.91,0,0,1-.48,0c-.09,0-.12-.05-.12-.14s0-.41,0-.62v-.59a1.85,1.85,0,0,0,0-.23c0-.3,0-.59,0-.88s.1-.28.33-.22l.22,0a.14.14,0,0,1,.12.11c0,.12,0,.17-.13.17h-.15c0,.06,0,.07.07.07a.16.16,0,0,1,.14.17,1.37,1.37,0,0,0,0,.19.56.56,0,0,1-.12.41.5.5,0,0,0-.07.27c0,.22,0,.44,0,.66v.19C35.17,27.28,35.17,27.28,35.35,27.33Z" transform="translate(0.5 0.5)"/><path d="M37.05,25.55a.21.21,0,0,1,.14.2l0,.8a.17.17,0,0,1,0,.07c-.12.12-.07.28-.11.43s0,.07,0,.1a.22.22,0,0,0,.13.25.1.1,0,0,1,.05,0,.35.35,0,0,1,.06.14c0,.07-.09.05-.14.05l-.4,0c-.11,0-.14-.05-.14-.15s0-.43,0-.64,0-.43,0-.65,0-.45,0-.68a.42.42,0,0,1,0-.15.16.16,0,0,1,.2-.09c.06,0,.13,0,.19,0a.52.52,0,0,1,.21.07.09.09,0,0,1,0,.09.17.17,0,0,1-.08.09A.63.63,0,0,1,37.05,25.55Z" transform="translate(0.5 0.5)"/><path d="M36.22,25.36a.34.34,0,0,1,.12.27c0,.11,0,.21,0,.31a.23.23,0,0,1,0,.12.8.8,0,0,0-.07.55c0,.1,0,.2,0,.29s0,.19,0,.28a1.2,1.2,0,0,1,0,.19h.14s.09,0,.08.11,0,.1-.1.1H36a.18.18,0,0,1-.17-.2v-.87c0-.44,0-.88,0-1.32,0-.17,0-.19.2-.15l.24.06s.11,0,.11.08,0,.13-.08.15S36.24,25.35,36.22,25.36Z" transform="translate(0.5 0.5)"/><path d="M24.24,30.32c0-.36,0-.72,0-1.08,0-.18,0-.18.18-.18h.39c.07,0,.11,0,.11.1v.95c0,.05,0,.09-.08.09s-.06,0-.06.08v.95c0,.06,0,.08.08.09s.13,0,.13.15a.09.09,0,0,1-.08.09l-.51,0c-.11,0-.12,0-.12-.11s0-.44,0-.66,0-.33,0-.5Z" transform="translate(0.5 0.5)"/><path d="M18.44,36.45a.51.51,0,0,1,.51.31.73.73,0,0,1,0,.7.44.44,0,0,1-.56.16.61.61,0,0,1-.29-.36,1,1,0,0,1,0-.49A.35.35,0,0,1,18.44,36.45Zm.27.65a.33.33,0,0,1,0-.1.33.33,0,0,0-.17-.27c-.05,0-.11,0-.16,0a.25.25,0,0,0-.06.23l.06.17c0,.1.08.14.15.12S18.72,37.2,18.71,37.1Z" transform="translate(0.5 0.5)"/><path d="M32.34,37a1.24,1.24,0,0,1-.09.41.38.38,0,0,1-.42.24.44.44,0,0,1-.46-.49.85.85,0,0,1,.1-.47.52.52,0,0,1,.42-.27C32.25,36.4,32.35,36.7,32.34,37Zm-.45.32c.1,0,.12-.13.14-.19a.37.37,0,0,0,0-.34c0-.08-.1-.11-.17-.06a.67.67,0,0,0-.14.15.27.27,0,0,0,0,.25c0,.06.12.18.19.19Z" transform="translate(0.5 0.5)"/><path d="M29.64,29.23c-.22,0-.22,0-.18-.28H30s.06,0,.06.05a.27.27,0,0,1,0,.18.39.39,0,0,0,0,.21v1.43c0,.16,0,.17-.17.17s-.23.08-.23-.2V29.23Z" transform="translate(0.5 0.5)"/><path d="M30.72,29.22v.18c0,.43,0,.87,0,1.31v.12a.08.08,0,0,1-.07.08h0c-.24.06-.25.05-.25-.19,0-.45,0-.9,0-1.35,0-.07,0-.16-.1-.17s-.07-.13-.05-.2.05-.05.09-.05h.53c.07,0,.11,0,.11.1s0,.13-.1.15Z" transform="translate(0.5 0.5)"/><path d="M25.15,35.6h.09a.2.2,0,0,1,.19.08,1.4,1.4,0,0,1,.27.61c0,.12.06.23.06.35a2.06,2.06,0,0,1-.14,1,.64.64,0,0,1-.37.35.32.32,0,0,1-.27,0c-.06,0-.14-.06-.18-.12a.86.86,0,0,1-.11-.28,1.8,1.8,0,0,1-.14-.64c0-.24,0-.48.05-.72a.8.8,0,0,1,.3-.49A.3.3,0,0,1,25.15,35.6Zm0,.6h0s0,0,0,0a1.29,1.29,0,0,0-.1.44,1.35,1.35,0,0,0,.06.72c0,.05,0,.13.11.13s.1-.09.12-.15v0a2,2,0,0,0,0-.64,2.26,2.26,0,0,0-.1-.45A.1.1,0,0,0,25.16,36.2Z" transform="translate(0.5 0.5)"/><path d="M26,37.51c0-.17,0-.35,0-.53a.39.39,0,0,1,0-.14l.09-.34s0-.09.05-.14a2.22,2.22,0,0,1,.23-.43.39.39,0,0,1,.3-.17l.34.05c.1,0,.1.08,0,.15l-.28.26a2,2,0,0,0-.3.51l-.12.27-.27.74a.11.11,0,0,1,0,.06s0,0-.06,0a.07.07,0,0,1,0,0,2.43,2.43,0,0,1,0-.27Z" transform="translate(0.5 0.5)"/><path d="M24.47,37.53s0,.1,0,.15,0,.09-.05.1-.07,0-.09-.08c-.08-.21-.16-.43-.25-.64a3.75,3.75,0,0,0-.38-.78,1.09,1.09,0,0,0-.36-.35l-.05,0a.08.08,0,0,1,.06-.14l.25,0a.83.83,0,0,1,.21.06.81.81,0,0,1,.35.38,2.79,2.79,0,0,1,.14.37,4,4,0,0,1,.16.78,1.61,1.61,0,0,1,0,.22Z" transform="translate(0.5 0.5)"/><path d="M14.15,22.31v.57c0,.15,0,.16-.2.2v-.59C14,22.37,14,22.34,14.15,22.31Z" transform="translate(0.5 0.5)"/><path d="M13.59,23.28v-.62c0-.08.09-.1.15-.13a.08.08,0,0,1,0,0c0,.19,0,.38,0,.57S13.69,23.25,13.59,23.28Z" transform="translate(0.5 0.5)"/><path d="M13.36,22.78c0,.07,0,.12,0,.18v.34c0,.12,0,.14-.19.17v-.56C13.2,22.83,13.27,22.81,13.36,22.78Z" transform="translate(0.5 0.5)"/><path d="M12.48,23.85v-.47c0-.08,0-.09.17-.14,0,.05,0,.09,0,.13v.29C12.67,23.8,12.67,23.8,12.48,23.85Z" transform="translate(0.5 0.5)"/><path d="M12,24.09v-.41c0-.1.07-.13.15-.15a1.34,1.34,0,0,1,0,.44C12.21,24,12.18,24.05,12,24.09Z" transform="translate(0.5 0.5)"/><path d="M11.69,24.27c0-.14,0-.26,0-.38a.16.16,0,0,1,.05-.09c.07-.06.12,0,.13.05a1.69,1.69,0,0,1,0,.23C11.86,24.21,11.86,24.21,11.69,24.27Z" transform="translate(0.5 0.5)"/><path d="M11.38,24.43c0-.13,0-.25,0-.37s.07-.09.12-.11.06,0,.06,0,0,.22,0,.33S11.47,24.41,11.38,24.43Z" transform="translate(0.5 0.5)"/><path d="M13.54,30v1s0,.1-.08.09-.12,0-.12-.08a.34.34,0,0,1,0-.1l0-1.81V29c0-.09,0-.1.12-.1s.09.05.09.11v1Z" transform="translate(0.5 0.5)"/><path d="M13.68,29.91V29c0-.05,0-.1.07-.11s.13,0,.13.12c0,.54,0,1.07,0,1.61a2.09,2.09,0,0,0,0,.25s0,.1-.08.09-.12,0-.13-.1v-1Z" transform="translate(0.5 0.5)"/><path d="M14.16,29.87v.88c0,.05,0,.1-.07.1a.13.13,0,0,1-.13-.09v-.09c0-.55,0-1.1,0-1.66,0,0,0-.1.06-.12s.13,0,.13.1v.88Z" transform="translate(0.5 0.5)"/><path d="M12.57,29.6v-.54c0-.11,0-.12.12-.12s.08,0,.08.08v.07c0,.32,0,.63,0,.94v.11s0,.11-.07.11-.13,0-.13-.13V29.6Z" transform="translate(0.5 0.5)"/><path d="M12.21,29.63v-.55a.17.17,0,0,1,0-.1.15.15,0,0,1,.11,0,.11.11,0,0,1,.05.08,2.62,2.62,0,0,1,0,.28c0,.27,0,.53,0,.8v.1c0,.06,0,.1-.09.09s-.1,0-.1-.09,0-.39,0-.58Z" transform="translate(0.5 0.5)"/><path d="M11.56,29.6v-.54c0-.07,0-.09.1-.09s.08,0,.08.07v.11c0,.29,0,.59,0,.88,0,0,0,.08,0,.12s0,.08-.08.08-.09,0-.09-.09V29.6Z" transform="translate(0.5 0.5)"/><path d="M11.85,29.44v-.36c0-.1,0-.12.09-.12s.09.07.09.13v.2c0,.18,0,.36,0,.54s0,.1-.09.1-.09-.05-.09-.11v-.38Z" transform="translate(0.5 0.5)"/><path d="M28.59,28.7c0,.23,0,.23-.21.22s-.13,0-.14-.14a.31.31,0,0,1,0-.1c0-.05,0-.14,0-.15a1,1,0,0,1,.25,0s0,0,0,.07A.41.41,0,0,1,28.59,28.7Z" transform="translate(0.5 0.5)"/><path d="M26.6,28.72v-.08c0-.14,0-.15.17-.14a.1.1,0,0,1,.11.11v.19c0,.14-.1.2-.23.15a.1.1,0,0,1,0-.07.85.85,0,0,1,0-.16Z" transform="translate(0.5 0.5)"/><path d="M27.68,18.11c-.17,0-.17,0-.17-.17a.14.14,0,0,0-.11-.12l-.77-.35c-.23-.1-.24-.12-.15-.38l.12,0,1,.46c.13.06.13.06.12.2S27.69,18,27.68,18.11Z" transform="translate(0.5 0.5)"/><path d="M22.09,16.18c-.15,0-.18,0-.2-.14v-.15a.54.54,0,0,1-.6-.11.71.71,0,0,1-.18-.54c.14,0,.14,0,.17.09a.83.83,0,0,0,.08.22.3.3,0,0,0,.52,0,.11.11,0,0,1,.14-.06.13.13,0,0,1,.08.13Z" transform="translate(0.5 0.5)"/><path d="M20.77,14.94c.15,0,.16,0,.16.15v.55c-.13,0-.16,0-.16-.08s0-.4,0-.6C20.75,15,20.76,15,20.77,14.94Z" transform="translate(0.5 0.5)"/><path d="M38.06,25.73a.58.58,0,0,1,.3,0,.11.11,0,0,1,.08.11c0,.32,0,.64,0,1a.09.09,0,0,1-.08.1.14.14,0,0,0-.11.13,2.11,2.11,0,0,1,0,.25c0,.07,0,.1-.11.09s-.07-.05-.07-.1a1.08,1.08,0,0,1,0-.18c0-.41,0-.82,0-1.23A1,1,0,0,1,38.06,25.73Z" transform="translate(0.5 0.5)"/><path class="a5fa3262-bf79-4ae7-bdfb-060f64f09c12" d="M5.23,18.52a.46.46,0,0,0,0,.09l0,.13c0,.05,0,.09,0,.13s0,.08,0,.12,0,.08,0,.12a.51.51,0,0,0,0,.09l-.07,0-.07,0a.08.08,0,0,0,0-.07s0,0-.08,0a.68.68,0,0,0-.2,0l-.21,0-.26.07-.27.07-.15,0-.08,0-.05,0,0,0H3.46l-.07,0s0-.06,0-.1l0-.14s0-.09,0-.13a1.42,1.42,0,0,0,0-.16c0-.05,0-.1,0-.13l.07,0,.07,0a.16.16,0,0,0,0,.07.06.06,0,0,0,.06,0l.14,0,.27-.08.26-.06.19,0,.2-.05.11,0,.07-.05a.16.16,0,0,0,0-.06h.07Zm-.85.31-.13.09-.2-.25a.46.46,0,0,0-.15-.13s-.06,0-.09.06l-.07,0-.07,0,0-.07,0-.09,0-.07,0-.08,0-.08a.25.25,0,0,0,0-.07l.07,0,.07,0v.1l0,.1a.76.76,0,0,0,.1.13Zm.4,1-.07,0-.07,0a.32.32,0,0,0,0-.17.78.78,0,0,0-.12-.21l-.23-.31L4.38,19l.18.22a.81.81,0,0,0,.11.13s0,0,.07,0l.06-.06h.07l.08,0a.73.73,0,0,0,0,.12c0,.05,0,.09,0,.13l0,.08,0,.09Z" transform="translate(0.5 0.5)"/><path class="a5fa3262-bf79-4ae7-bdfb-060f64f09c12" d="M4.2,17.14l1.19,0h.18a.15.15,0,0,0,.08,0l0,0h.07l.08,0a.36.36,0,0,0,0,.09s0,.07,0,.11l0,.08,0,.07,0,.09,0,.09,0,.07-.07,0-.06,0c0-.05,0-.08,0-.1a.16.16,0,0,0-.11,0H4.61l-.2,0,0-.05.16.12.16.15.33.31A.24.24,0,0,0,5.2,18,.1.1,0,0,0,5.29,18h.07l.08,0,0,.06,0,.08,0,.07s0,.07,0,.11l0,.08-.07,0-.06,0a.16.16,0,0,0,0-.07.25.25,0,0,0,0-.07L5,18.1l-.84-.83a.14.14,0,0,1,0-.06A.25.25,0,0,1,4.2,17.14Zm.92.29h.13c0,.09-.07.18-.11.28s-.07.19-.1.28l-.13-.08Z" transform="translate(0.5 0.5)"/><path class="a5fa3262-bf79-4ae7-bdfb-060f64f09c12" d="M5.9,16.94l-.08,0-.05,0a.51.51,0,0,0,0-.09.08.08,0,0,0,0-.07.31.31,0,0,0-.12-.07L5,16.32a.28.28,0,0,0-.12-.05.08.08,0,0,0-.08,0,.17.17,0,0,0-.06.06H4.65l-.07,0,.08-.16L4.74,16a.34.34,0,0,1,.06-.12l.06-.13,0-.1a1.05,1.05,0,0,1,.21-.27.37.37,0,0,1,.21-.08.49.49,0,0,1,.23.06.65.65,0,0,1,.22.18.5.5,0,0,1,.09.24.56.56,0,0,1-.07.29.62.62,0,0,1-.08.12l-.07,0,0-.05,0,0v0a.14.14,0,0,0,0-.11.21.21,0,0,0,0-.11.37.37,0,0,0-.15-.11.45.45,0,0,0-.26-.06.23.23,0,0,0-.18.14.08.08,0,0,0,0,0,.13.13,0,0,0,0,.06l0,0,.84.41a.31.31,0,0,0,.13.05.14.14,0,0,0,.11,0,.49.49,0,0,0,.08-.1l.07,0,.07,0,0,.09-.07.12-.06.12L6,16.72l-.07.13A.63.63,0,0,0,5.9,16.94Z" transform="translate(0.5 0.5)"/><path class="a5fa3262-bf79-4ae7-bdfb-060f64f09c12" d="M6.56,15.66l-.07-.05,0,0a.51.51,0,0,0,0-.09.09.09,0,0,0,0-.07.81.81,0,0,0-.12-.08L5.69,15l-.12-.06a.11.11,0,0,0-.08,0L5.43,15l-.07,0-.07,0,0-.08a.75.75,0,0,0,.07-.12.37.37,0,0,0,.06-.1.7.7,0,0,0,.06-.09l.06-.1a.9.9,0,0,0,0-.09l.06,0,.06.05a.13.13,0,0,0,0,.08.09.09,0,0,0,0,.07l.11.08L6.5,15l.13.06h.08A.17.17,0,0,0,6.77,15l.06,0,.08,0-.08.11-.09.15-.1.17A.74.74,0,0,0,6.56,15.66Zm.56-.91a.48.48,0,0,1-.18,0l-.2,0-.21,0a.47.47,0,0,0-.17,0,.19.19,0,0,0-.13.1l-.13-.07a.28.28,0,0,0,.05-.12.21.21,0,0,0,0-.13.67.67,0,0,0-.08-.18A1.47,1.47,0,0,1,6,14.18a.49.49,0,0,1-.06-.13.22.22,0,0,1,0-.11,1.12,1.12,0,0,1,.05-.13l0-.07,0-.05.1.06.12.07.1,0a.31.31,0,0,1,0,.08.47.47,0,0,1-.06.09l-.11,0s0,0,0,0a.1.1,0,0,0,0,.09l.06.13a.9.9,0,0,1,.07.14.36.36,0,0,1,0,.09s0,0,0,.09l-.06,0a.5.5,0,0,1,.11-.13.34.34,0,0,1,.12-.06.37.37,0,0,1,.16,0h.45a.09.09,0,0,0,.07,0l.06-.07,0,0,0,0,0,0-.07.1a.83.83,0,0,1-.07.13Z" transform="translate(0.5 0.5)"/><path class="a5fa3262-bf79-4ae7-bdfb-060f64f09c12" d="M6.6,13.52a.4.4,0,0,0-.12-.07H6.41a.21.21,0,0,0-.08.06l-.06,0-.07,0a.28.28,0,0,0,.06-.08l.08-.11.07-.09s0-.06.06-.1l.07-.1,0-.08.06,0,.06.05,0,.09a.11.11,0,0,0,0,.07l.11.08.6.4a.4.4,0,0,0,.12.07.08.08,0,0,0,.08,0l.07-.06.06,0,.07,0-.08.11L7.62,14l-.11.16a.8.8,0,0,0-.09.14l-.06,0-.05-.05a.16.16,0,0,0,0-.08.09.09,0,0,0,0-.07.35.35,0,0,0-.11-.09Z" transform="translate(0.5 0.5)"/><path class="a5fa3262-bf79-4ae7-bdfb-060f64f09c12" d="M6.75,12.65l.07-.08a.86.86,0,0,1,.07-.1L7,12.36l.1-.13.08-.11a1.34,1.34,0,0,1,.23-.24.35.35,0,0,1,.2-.07.32.32,0,0,1,.18.06.28.28,0,0,1,.12.2.34.34,0,0,1-.06.27A.77.77,0,0,1,8,12.19a.26.26,0,0,1,.19,0,.48.48,0,0,1,.18.08.31.31,0,0,1,.13.19.36.36,0,0,1,0,.25,1,1,0,0,1-.19.32l-.11.14a.76.76,0,0,1-.11.14l-.1.14-.09.13-.07-.06a.1.1,0,0,1,0-.05.16.16,0,0,0,0-.08.07.07,0,0,0,0-.07.57.57,0,0,0-.11-.1l-.57-.43L7,12.68a.08.08,0,0,0-.08,0l-.08.06-.06,0Zm.39-.37L8,12.9l.12.07h.09l.06-.06a.2.2,0,0,0,0-.16.25.25,0,0,0-.11-.16A.33.33,0,0,0,8,12.51H7.92a.27.27,0,0,0-.1.06.76.76,0,0,0-.09.09l-.08.1-.11-.09.09-.11a.3.3,0,0,0,.06-.13.23.23,0,0,0,0-.12.44.44,0,0,0-.09-.11.24.24,0,0,0-.13,0,.25.25,0,0,0-.12,0,.32.32,0,0,0-.09.08l0,.05a.14.14,0,0,0,0,.06Z" transform="translate(0.5 0.5)"/><path class="a5fa3262-bf79-4ae7-bdfb-060f64f09c12" d="M9.34,11.82A.69.69,0,0,1,9,12a.67.67,0,0,1-.37,0,.79.79,0,0,1-.36-.19.76.76,0,0,1-.2-.25A.54.54,0,0,1,8,11.35a.62.62,0,0,1,.05-.27.72.72,0,0,1,.14-.24l.19-.16a1.43,1.43,0,0,1,.21-.12l.11.12.13.12,0,.07L8.75,11a.62.62,0,0,0-.17-.1H8.44a.38.38,0,0,0-.11.08.26.26,0,0,0-.07.15.33.33,0,0,0,0,.17.6.6,0,0,0,.09.15,1,1,0,0,0,.14.15.91.91,0,0,0,.28.17.42.42,0,0,0,.27,0,.38.38,0,0,0,.23-.14.72.72,0,0,0,.15-.32h.06l0,0a.77.77,0,0,1,0,.25A.7.7,0,0,1,9.34,11.82Z" transform="translate(0.5 0.5)"/><path class="a5fa3262-bf79-4ae7-bdfb-060f64f09c12" d="M9.79,11.31l-.06-.06s0,0,0-.06a.13.13,0,0,0,0-.07.11.11,0,0,0,0-.08.47.47,0,0,0-.1-.11l-.5-.5a.35.35,0,0,0-.1-.09.12.12,0,0,0-.08,0,.25.25,0,0,0-.08,0l0,0s-.05,0-.07-.06a1.49,1.49,0,0,0,.14-.12L9,10l.1-.09.09-.1.08-.07,0,0,0,.06a.31.31,0,0,0-.07.12.12.12,0,0,0,0,.1.41.41,0,0,0,.09.12l.49.49.11.09h.09l.07,0a.23.23,0,0,0,.07-.16.32.32,0,0,0-.09-.17l-.11-.09-.11,0a.19.19,0,0,0-.1,0l-.09.06,0,0-.05.06-.11-.11,0-.07.07-.07A1,1,0,0,1,10,10a.39.39,0,0,1,.25-.06.43.43,0,0,1,.22.13.37.37,0,0,1,.11.19.45.45,0,0,1,0,.25.94.94,0,0,1-.23.29L10.1,11l-.16.16Z" transform="translate(0.5 0.5)"/><path class="a5fa3262-bf79-4ae7-bdfb-060f64f09c12" d="M10.86,10.27l0-.06,0-.06s.05-.05.05-.08a.06.06,0,0,0,0-.07.49.49,0,0,0-.08-.12l-.47-.54-.09-.09a.13.13,0,0,0-.08,0l-.08,0-.06,0-.05-.06L10,9.1l.1-.08.09-.08.09-.07.08-.08.08-.06.05,0,0,.07,0,.07a.1.1,0,0,0,0,.07.33.33,0,0,0,.08.11l.47.54.09.1.08,0,.08,0,.05,0,.05.06-.1.09-.14.11-.15.13Zm.83-.68a.36.36,0,0,1-.17,0l-.19-.08-.18-.09a.39.39,0,0,0-.18,0,.23.23,0,0,0-.15.05l-.1-.1.09-.1a.27.27,0,0,0,0-.13c0-.05,0-.11,0-.2s0-.14,0-.19a.71.71,0,0,1,0-.14.2.2,0,0,1,0-.11s0-.06.09-.1L11,8.28l.06,0,.08.09.08.09a.76.76,0,0,0,.09.09l-.06.06a.19.19,0,0,1-.08.07s-.07-.06-.09-.06h0a.09.09,0,0,0,0,.08.5.5,0,0,0,0,.15A1,1,0,0,1,11,9v.1a.31.31,0,0,1,0,.08H10.9a.6.6,0,0,1,.15-.09.2.2,0,0,1,.13,0l.16,0,.21.08.13.05.09,0h.07l.08,0,0,0,0,0,0,.05-.1.08-.1.1Z" transform="translate(0.5 0.5)"/><path class="a5fa3262-bf79-4ae7-bdfb-060f64f09c12" d="M11.86,7.61l1,.58.16.08.08,0,.06,0,.05.05,0,.06-.09,0-.09.07L13,8.57l-.06,0-.08.06-.08.06-.06,0a.25.25,0,0,1,0-.07s0,0,0-.06.05-.06,0-.09,0-.05-.08-.08l-.42-.24L12,8.11,11.87,8l.05,0a1.07,1.07,0,0,1,.07.19l.06.21.12.43a.17.17,0,0,0,.06.11.11.11,0,0,0,.11,0,.1.1,0,0,1,.05,0l0,.06,0,0-.08.05-.06.05-.09.06-.07.06a.21.21,0,0,1,0-.06.11.11,0,0,1,0-.07l0-.06a.11.11,0,0,0,0-.08,1.15,1.15,0,0,0,0-.14L11.75,7.7s0,0,.05,0Zm.62.72.11.08-.24.17-.24.2-.06-.14Z" transform="translate(0.5 0.5)"/><path class="a5fa3262-bf79-4ae7-bdfb-060f64f09c12" d="M13.85,8l-.07-.12a.15.15,0,0,0,.08-.11.54.54,0,0,0,0-.18,1.12,1.12,0,0,0-.06-.23,2.34,2.34,0,0,0-.09-.24c0-.07-.07-.15-.11-.22l-.08-.11s0,0-.07,0a.24.24,0,0,0-.12,0l0-.06,0-.06.19-.11.31-.17L14,6.27l.16-.09.1-.06,0,.06,0,.07a.45.45,0,0,0-.07.07.08.08,0,0,0,0,.07.69.69,0,0,0,.06.13l.36.62.09.12a.09.09,0,0,0,.07,0l.08,0,.07.12ZM14,7.8H14l.33-.19a.35.35,0,0,0,.11-.08.08.08,0,0,0,0-.08.69.69,0,0,0-.06-.13L14,6.7l-.07-.11a.08.08,0,0,0-.06,0h-.05l0,0-.06,0s0,0,0,0a.12.12,0,0,0,0,.08l.06.11.13.28a1.45,1.45,0,0,1,.11.26,1.12,1.12,0,0,1,.06.23A.38.38,0,0,1,14,7.8Zm.16.45-.1.08-.1,0-.11-.17-.1-.13a.27.27,0,0,1,0-.14l.15-.09.11,0,.09.21A1.45,1.45,0,0,0,14.18,8.25Zm.88-.51L15,7.57l-.14-.18,0-.11L15,7.2a.26.26,0,0,1,.11.1.94.94,0,0,0,.06.15,1,1,0,0,0,.1.17.36.36,0,0,1-.09.08Z" transform="translate(0.5 0.5)"/><path class="a5fa3262-bf79-4ae7-bdfb-060f64f09c12" d="M14.63,5.92l.1,0,.13-.06L15,5.75l.11-.06.47,1,.08.12a.09.09,0,0,0,.08,0,.26.26,0,0,0,.11,0v.15L15.71,7l-.17.08-.16.08-.11.06,0-.08a.14.14,0,0,1,0-.06A.14.14,0,0,0,15.29,7a.08.08,0,0,0,0-.08.31.31,0,0,0-.05-.13l-.31-.64-.08-.11a.07.07,0,0,0-.06,0,.2.2,0,0,0-.1,0l0-.06Zm1-.48.06.1a1,1,0,0,0,.08.11.36.36,0,0,0,.07.1l-.06,0-.1.06a.43.43,0,0,0-.09-.1.19.19,0,0,0-.12,0,.33.33,0,0,0-.18,0l-.19.1V5.7l.25-.12.17-.08Zm0,.51a.69.69,0,0,0,0,.1.67.67,0,0,0,.06.12l.06.13.06.09-.09,0-.07,0c0-.06-.07-.09-.1-.09a.24.24,0,0,0-.15,0l-.11.06-.07-.13.12-.06q.11,0,.12-.09a.16.16,0,0,0,0-.13.18.18,0,0,1,.07,0A.2.2,0,0,1,15.68,6Zm.35.43.11,0h.09a1.36,1.36,0,0,0,0,.17l.06.18-.13.07L16,6.86l-.17.08V6.79l0,0A.48.48,0,0,0,16,6.68a.28.28,0,0,0,0-.13A.51.51,0,0,0,16,6.38Z" transform="translate(0.5 0.5)"/><path class="a5fa3262-bf79-4ae7-bdfb-060f64f09c12" d="M16.54,6.62a.13.13,0,0,1,0-.08.14.14,0,0,1,0-.06.16.16,0,0,0,.08-.05.11.11,0,0,0,0-.08.3.3,0,0,0,0-.13l-.27-.66a.33.33,0,0,0-.06-.12.07.07,0,0,0-.06,0,.18.18,0,0,0-.1,0l0-.06,0-.07.17-.07.15,0,.12,0,.14-.06.09,0A.82.82,0,0,1,17,4.94a.33.33,0,0,1,.22.08.7.7,0,0,1,.13.19.51.51,0,0,1,0,.27.42.42,0,0,1-.09.24.63.63,0,0,1-.24.18l-.15,0a.15.15,0,0,1,0-.07.13.13,0,0,1,0-.06h.06A.15.15,0,0,0,17,5.72a.5.5,0,0,0,0-.13A.49.49,0,0,0,17,5.41a.44.44,0,0,0-.15-.21.26.26,0,0,0-.23,0l-.05,0-.05,0v0l.35.85a.42.42,0,0,0,.07.12.19.19,0,0,0,.1.05l.13,0a.09.09,0,0,1,0,.06.43.43,0,0,1,0,.07l-.1,0-.13,0-.13,0-.13.06-.13,0Z" transform="translate(0.5 0.5)"/><path class="a5fa3262-bf79-4ae7-bdfb-060f64f09c12" d="M18.22,6l-.15,0-.14,0-.12,0,0,0,0-.06V6l.08,0a.1.1,0,0,0,0,0l0-.08s0-.08,0-.14,0-.16,0-.21A1.31,1.31,0,0,1,18,5.28a.28.28,0,0,1,.09-.1l.15-.07-.05,0h-.05l-.06,0L18,5.05,17.94,5a.35.35,0,0,0-.11-.09.1.1,0,0,0-.09,0,0,0,0,0,0,0,0,.19.19,0,0,0,0,.11l-.1,0h-.09a.6.6,0,0,0,0-.12.56.56,0,0,0,0-.12.36.36,0,0,0,0-.11l.06,0,.08,0,.13,0a.23.23,0,0,1,.11,0l.11.09.14.14.16.12a.18.18,0,0,0,.11,0,.32.32,0,0,0,.13,0l0,.14a.2.2,0,0,0-.12.1.38.38,0,0,0-.05.16c0,.06,0,.13,0,.2a1.36,1.36,0,0,1,0,.2A.44.44,0,0,1,18.22,6Zm.34-.12s0,0,0-.08a.15.15,0,0,1,0-.06s.06,0,.07-.05a.14.14,0,0,0,0-.07s0-.08,0-.14l-.21-.68a.59.59,0,0,0-.05-.13.07.07,0,0,0-.05,0h-.08a.25.25,0,0,1,0-.07s0,0,0-.07l.09,0,.12,0,.1,0,.11,0,.11,0,.1,0a.19.19,0,0,0,0,.07s0,0,0,.07-.06,0-.07.05a.08.08,0,0,0,0,.07.39.39,0,0,0,0,.13l.21.68,0,.13s0,0,.06,0h.08l0,.06,0,.08-.13,0-.19.06-.18.05Zm1-.28a.33.33,0,0,1-.14-.1l-.13-.15-.13-.16A.49.49,0,0,0,19,5.07a.24.24,0,0,0-.15,0l0-.13.11-.06a.26.26,0,0,0,.07-.1A1.67,1.67,0,0,0,19,4.58a1.93,1.93,0,0,1,.05-.2.4.4,0,0,1,0-.13.27.27,0,0,1,.07-.08.34.34,0,0,1,.12-.06l.08,0h.06l0,.11s0,.09.05.13,0,.07,0,.11l-.07,0-.11,0a.29.29,0,0,0-.06-.1h0a.13.13,0,0,0-.07.06.84.84,0,0,0,0,.14.74.74,0,0,0,0,.12l0,.08,0,.06,0,0H19a.36.36,0,0,1,.17,0,.28.28,0,0,1,.13,0,.47.47,0,0,1,.12.09s.1.09.16.16l.09.1.07,0,.07,0h.09v0a.13.13,0,0,1,0,.06,0,0,0,0,1,0,0l-.11,0-.14,0Z" transform="translate(0.5 0.5)"/><path class="a5fa3262-bf79-4ae7-bdfb-060f64f09c12" d="M20.51,3.85l.7.95.11.14.07.06h.06a.64.64,0,0,1,0,.07.19.19,0,0,1,0,.08h-.1l-.11,0-.1,0-.07,0-.1,0-.09,0-.07,0a.29.29,0,0,1,0-.09V5.13c.05,0,.07,0,.08-.07a.19.19,0,0,0,0-.1l-.29-.39c0-.07-.09-.13-.12-.19l-.09-.18h.06c0,.07,0,.13,0,.2a2.07,2.07,0,0,1,0,.22l-.07.44a.16.16,0,0,0,0,.12.1.1,0,0,0,.1,0l0,.07a.19.19,0,0,1,0,.08h-.15l-.08,0-.11,0-.09,0a.17.17,0,0,1,0-.07V5.3l0,0a.15.15,0,0,0,0-.08.86.86,0,0,0,0-.13l.23-1.16.06,0Zm.28.91.06.12-.29.06-.3.08V4.87Z" transform="translate(0.5 0.5)"/><path class="a5fa3262-bf79-4ae7-bdfb-060f64f09c12" d="M21.44,3.68h.23l.13,0,.17,0,.14,0a1.27,1.27,0,0,1,.33,0,.37.37,0,0,1,.2.08.3.3,0,0,1,.08.18.3.3,0,0,1-.06.22.42.42,0,0,1-.23.15.6.6,0,0,1,.24,0,.37.37,0,0,1,.16.1.54.54,0,0,1,.07.19.33.33,0,0,1,0,.22.39.39,0,0,1-.18.18,1.31,1.31,0,0,1-.36.1l-.18,0-.18,0-.17,0-.16,0a.25.25,0,0,0,0-.08s0,0,0-.06a.15.15,0,0,0,.08,0s0,0,0-.07a.82.82,0,0,0,0-.14l-.1-.7a.21.21,0,0,0,0-.13s0,0-.05-.06h-.09a.64.64,0,0,1,0-.07A.25.25,0,0,1,21.44,3.68Zm.54,0,.13,1a.39.39,0,0,0,0,.14s0,0,.06,0h.09a.2.2,0,0,0,.15-.09.24.24,0,0,0,0-.19.4.4,0,0,0,0-.13.2.2,0,0,0-.08-.08l-.11,0H22l0-.14.15,0a.34.34,0,0,0,.14-.05.16.16,0,0,0,.07-.09.32.32,0,0,0,0-.14.22.22,0,0,0-.05-.12.17.17,0,0,0-.1-.07.23.23,0,0,0-.12,0H22l-.06,0Z" transform="translate(0.5 0.5)"/><path class="a5fa3262-bf79-4ae7-bdfb-060f64f09c12" d="M23.14,4.93V4.85a.15.15,0,0,1,0-.07.1.1,0,0,0,.08,0,.07.07,0,0,0,0-.06.53.53,0,0,0,0-.14l0-.71c0-.06,0-.11,0-.14a.1.1,0,0,0,0-.06l-.09,0s0,0,0-.07a.17.17,0,0,0,0-.07h.7v.07a.22.22,0,0,1,0,.08l-.09,0a.16.16,0,0,0,0,.07v.14l0,.71a.39.39,0,0,0,0,.13s0,.06,0,.07h.09s0,0,0,.07a.25.25,0,0,1,0,.08h-.52Zm.48-.69V4.08l.51,0V4.2h-.5Zm.37.64V4.8s0,0,0-.07l.09,0a.16.16,0,0,0,0-.07V4.5l0-.71a.9.9,0,0,0,0-.13.09.09,0,0,0,0-.06.16.16,0,0,0-.1,0s0-.05,0-.07a.25.25,0,0,1,0-.08h.69v.08a.2.2,0,0,1,0,.07s-.07,0-.09,0a.06.06,0,0,0,0,.06.53.53,0,0,0,0,.14l0,.71c0,.06,0,.11,0,.14a.1.1,0,0,0,.05.06l.09,0s0,0,0,.06v.08h-.32l-.2,0Z" transform="translate(0.5 0.5)"/><path class="a5fa3262-bf79-4ae7-bdfb-060f64f09c12" d="M25.64,3.4l.46,1.08.08.15s0,.06.05.07l.06,0a.15.15,0,0,0,0,.06v.08h-.66V4.77s0,0,0-.06.08,0,.09,0a.17.17,0,0,0,0-.11l-.18-.44a1.45,1.45,0,0,1-.08-.21,1.46,1.46,0,0,1,0-.2h.06l-.06.19-.08.2-.17.42a.19.19,0,0,0,0,.12.09.09,0,0,0,.09.06.17.17,0,0,1,0,.07.19.19,0,0,1,0,.08h-.44V4.77a.64.64,0,0,1,0-.07l.06,0A.1.1,0,0,0,25,4.61L25,4.48l.48-1.07h.14Zm.06.94,0,.13h-.61l0-.15Z" transform="translate(0.5 0.5)"/><path class="a5fa3262-bf79-4ae7-bdfb-060f64f09c12" d="M26.92,4.91a.17.17,0,0,1,0-.07.64.64,0,0,1,0-.07H27s0,0,.05-.06a1.06,1.06,0,0,0,0-.14l.09-.7a.32.32,0,0,0,0-.14.09.09,0,0,0,0-.07l-.09,0V3.47l.1,0h.14l.12,0h.33a.22.22,0,0,1,0,.08.25.25,0,0,1,0,.07h-.09s0,0-.05.06a.86.86,0,0,0,0,.13l-.09.71a.33.33,0,0,0,0,.14.09.09,0,0,0,0,.07l.09,0V5l-.14,0-.19,0-.2,0Zm.6-.58,0-.17.5.06,0,.15-.12,0h-.38Zm.24.69s0,0,0-.08a.64.64,0,0,1,0-.07h.09a.1.1,0,0,0,.05-.06.86.86,0,0,0,0-.13L28.06,4a.64.64,0,0,0,0-.14.06.06,0,0,0,0-.06.19.19,0,0,0-.09,0V3.57l.1,0,.14,0h.23l.12,0h.1a.17.17,0,0,1,0,.07.19.19,0,0,1,0,.07h-.1a.09.09,0,0,0,0,.06.35.35,0,0,0,0,.13l-.09.71a.82.82,0,0,0,0,.14.16.16,0,0,0,0,.07l.09,0V5a.22.22,0,0,1,0,.08l-.13,0-.19,0-.2,0Z" transform="translate(0.5 0.5)"/><path class="a5fa3262-bf79-4ae7-bdfb-060f64f09c12" d="M29.66,3.84,29.92,5a.76.76,0,0,0,0,.16.22.22,0,0,0,0,.08s0,0,.05,0a.09.09,0,0,1,0,.07.22.22,0,0,1,0,.08l-.1,0-.11,0-.1,0h-.07l-.1,0-.09,0h-.08a.31.31,0,0,0,0-.08l0-.06a.13.13,0,0,0,.1,0,.23.23,0,0,0,0-.12l-.1-.46c0-.08,0-.16,0-.22a1.41,1.41,0,0,1,0-.2h.06a1.62,1.62,0,0,1-.1.18l-.11.19L29,4.87A.13.13,0,0,0,29,5s0,.06.07.08v.07a.25.25,0,0,1,0,.08l-.07,0-.08,0h-.08l-.11,0h-.09a.14.14,0,0,1,0-.07.11.11,0,0,1,0-.07h.06l.07-.06.08-.11.66-1h.15Zm-.11.94v.14l-.3-.06-.3,0L29,4.68Z" transform="translate(0.5 0.5)"/><path class="a5fa3262-bf79-4ae7-bdfb-060f64f09c12" d="M30.4,5.52a.3.3,0,0,1-.14-.06.28.28,0,0,1-.07-.09.44.44,0,0,1,0-.1l.05-.1.09,0a.46.46,0,0,0,.14,0,.34.34,0,0,0,.13,0,.14.14,0,0,0,.09,0l.09-.09.28-.25a2.8,2.8,0,0,0,.28-.3c0-.05.07-.09.06-.12s0-.06-.08-.08a.13.13,0,0,1,0-.06s0-.06,0-.09l.07,0,.08,0,.08,0,.11,0,.1,0,0,.07,0,.07h-.08l-.07,0-.1.11-.6.64a.7.7,0,0,1-.17.14.27.27,0,0,1-.16.06A.29.29,0,0,1,30.4,5.52Zm.37-.26c0-.1-.05-.2-.08-.3s-.06-.19-.08-.28-.05-.16-.07-.23a1.31,1.31,0,0,0-.05-.15.31.31,0,0,0,0-.1.1.1,0,0,0-.06,0,.2.2,0,0,1,0-.07.31.31,0,0,1,0-.08l.06,0,.09,0,.09,0,.07,0,.15,0,.18,0,0,.08s0,0,0,.06a.14.14,0,0,0-.09,0,.06.06,0,0,0,0,0,.34.34,0,0,0,0,.09l.05.16s0,.09,0,.13l0,.12s0,.09,0,.15Z" transform="translate(0.5 0.5)"/><path class="a5fa3262-bf79-4ae7-bdfb-060f64f09c12" d="M31.53,5.82a.25.25,0,0,1,0-.07.16.16,0,0,1,0-.06h.09a.12.12,0,0,0,.07,0l0-.13.25-.67a.39.39,0,0,0,0-.13.08.08,0,0,0,0-.07A.13.13,0,0,0,32,4.6a.17.17,0,0,1,0-.07.19.19,0,0,1,0-.08l.09,0,.13,0,.11,0,.11,0,.11,0,.09,0a.19.19,0,0,1,0,.07l0,.06h-.09s0,0-.06,0L32.41,5l-.25.67a.45.45,0,0,0,0,.13.11.11,0,0,0,0,.08l.07,0a.17.17,0,0,1,0,.07.24.24,0,0,1,0,.08l-.13,0-.16-.06-.19-.07Zm1,.37A.29.29,0,0,1,32.48,6c0-.07,0-.13,0-.2a1.41,1.41,0,0,0,0-.21.48.48,0,0,0-.05-.17.27.27,0,0,0-.13-.1l0-.13.13,0a.28.28,0,0,0,.12,0l.16-.12L32.89,5A.37.37,0,0,1,33,4.88a.2.2,0,0,1,.11,0,.34.34,0,0,1,.13,0l.08,0,.06,0a.93.93,0,0,0,0,.1.5.5,0,0,1,0,.13l0,.11h-.08l-.1,0a.23.23,0,0,0,0-.12s0,0,0,0a.14.14,0,0,0-.09,0l-.12.09-.12.1-.09,0-.09,0,0,0,.15.08a.31.31,0,0,1,.09.11.58.58,0,0,1,.05.14c0,.06,0,.14,0,.22a1.15,1.15,0,0,1,0,.14.46.46,0,0,0,0,.09l0,.06a.29.29,0,0,0,.08,0l0,0s0,0,0,0a.08.08,0,0,1,0,0l-.11,0-.14,0Z" transform="translate(0.5 0.5)"/><path class="a5fa3262-bf79-4ae7-bdfb-060f64f09c12" d="M33.68,6.65a.8.8,0,0,1-.32-.24.7.7,0,0,1-.12-.34.69.69,0,0,1,.08-.39.69.69,0,0,1,.17-.26.61.61,0,0,1,.24-.15.59.59,0,0,1,.27,0,.77.77,0,0,1,.29.07.8.8,0,0,1,.32.24.59.59,0,0,1,.13.33.66.66,0,0,1-.07.38.78.78,0,0,1-.17.26.63.63,0,0,1-.24.16.52.52,0,0,1-.28,0A.69.69,0,0,1,33.68,6.65Zm.09-.12a.25.25,0,0,0,.19,0,.39.39,0,0,0,.18-.14,1,1,0,0,0,.16-.25.75.75,0,0,0,.08-.31.51.51,0,0,0,0-.25.26.26,0,0,0-.15-.16.23.23,0,0,0-.18,0,.38.38,0,0,0-.17.12,1.2,1.2,0,0,0-.16.25,2.25,2.25,0,0,0-.08.24.86.86,0,0,0,0,.22.34.34,0,0,0,0,.17A.3.3,0,0,0,33.77,6.53Z" transform="translate(0.5 0.5)"/><path class="a5fa3262-bf79-4ae7-bdfb-060f64f09c12" d="M35.23,5.74l.09,0a.3.3,0,0,0,.11.06l.12.07L35.7,6l.12.07a1.36,1.36,0,0,1,.28.18.44.44,0,0,1,.11.18.34.34,0,0,1,0,.19.26.26,0,0,1-.19.15.42.42,0,0,1-.27,0,.71.71,0,0,1,.18.15.27.27,0,0,1,.07.18.38.38,0,0,1-.06.19.31.31,0,0,1-.16.16.39.39,0,0,1-.25,0,1.4,1.4,0,0,1-.35-.13L35,7.25l-.16-.08-.15-.08L34.53,7a.16.16,0,0,1,0-.07l0,0,.09,0a.09.09,0,0,0,.07,0,.48.48,0,0,0,.08-.12l.34-.62A.31.31,0,0,0,35.24,6a.08.08,0,0,0,0-.07l-.07-.07,0-.06A.43.43,0,0,1,35.23,5.74Zm.42.32L35.17,7a.55.55,0,0,0-.05.13.19.19,0,0,0,0,.08l.07.06a.2.2,0,0,0,.17,0,.27.27,0,0,0,.15-.13.38.38,0,0,0,0-.13.14.14,0,0,0,0-.11.28.28,0,0,0-.07-.09.41.41,0,0,0-.11-.07l-.11-.06.07-.13.13.07a.27.27,0,0,0,.14,0,.27.27,0,0,0,.12,0,.53.53,0,0,0,.09-.11.31.31,0,0,0,0-.13.21.21,0,0,0,0-.11.22.22,0,0,0-.09-.07l-.06,0h-.07Z" transform="translate(0.5 0.5)"/><path class="a5fa3262-bf79-4ae7-bdfb-060f64f09c12" d="M37.27,6.89,37.1,8.05a1.49,1.49,0,0,0,0,.17.22.22,0,0,0,0,.09l0,0a.14.14,0,0,1,0,.06s0,.05,0,.08L37,8.43l-.1-.07-.09,0-.06,0-.08,0-.09-.05-.06,0s0-.06,0-.07l0-.05a.15.15,0,0,0,.11,0,.23.23,0,0,0,0-.11l.08-.47a1.24,1.24,0,0,1,0-.22L36.92,7l0,0-.15.13a1.41,1.41,0,0,1-.18.14l-.37.27a.15.15,0,0,0-.07.09.1.1,0,0,0,0,.1.14.14,0,0,1,0,.06.43.43,0,0,1,0,.07l-.06,0-.07-.05L36,7.8l-.1-.06-.07,0,0-.06,0,0H36l.08,0,.12-.08,1-.67.07,0Zm-.45.83,0,.13-.26-.15-.27-.15.11-.11Z" transform="translate(0.5 0.5)"/><path class="a5fa3262-bf79-4ae7-bdfb-060f64f09c12" d="M37.56,8.84l.06-.06a.12.12,0,0,1,.05,0,.12.12,0,0,0,.08,0l.08,0,.09-.1.44-.56A.48.48,0,0,0,38.44,8a.11.11,0,0,0,0-.08l-.06-.07,0-.06,0-.07.08.07.11.09.12.09.11.08-.68.86a.31.31,0,0,0-.07.12.11.11,0,0,0,0,.08l.06.07a.2.2,0,0,0,.16,0,.28.28,0,0,0,.16-.11A.4.4,0,0,0,38.59,9a.22.22,0,0,0,0-.11.36.36,0,0,0,0-.09l-.07-.07,0,0-.06,0,.09-.12.07,0,.08.05a1.47,1.47,0,0,1,.25.25.46.46,0,0,1,.08.23.4.4,0,0,1-.09.24.41.41,0,0,1-.19.13.52.52,0,0,1-.25,0,1.19,1.19,0,0,1-.32-.18L38,9.15,37.83,9l-.14-.11ZM39,8.61a.31.31,0,0,0,0-.12.19.19,0,0,0,0-.13.33.33,0,0,0-.13-.14l-.18-.14L38.87,8l.23.18.16.11.11.08a.86.86,0,0,0-.07.1.75.75,0,0,0-.07.12.53.53,0,0,0-.06.1l-.08,0Z" transform="translate(0.5 0.5)"/><path class="a5fa3262-bf79-4ae7-bdfb-060f64f09c12" d="M39.59,9.05l.08-.1a.08.08,0,0,0,0-.08.25.25,0,0,0,0-.08l0-.06,0-.06.08.07.1.09.09.08.08.07.1.08.08.06-.05.06-.06,0-.09,0a.11.11,0,0,0-.07,0,.46.46,0,0,0-.1.1l-.47.53-.09.11a.12.12,0,0,0,0,.08l.05.08a.09.09,0,0,1,0,.05l0,.07-.1-.1L39,10l-.15-.13-.13-.1,0-.06.06,0,.08,0a.1.1,0,0,0,.07,0,.46.46,0,0,0,.1-.1Z" transform="translate(0.5 0.5)"/><path class="a5fa3262-bf79-4ae7-bdfb-060f64f09c12" d="M39.42,10.34l.06-.06s0,0,.05,0l.08,0a.09.09,0,0,0,.08,0,.35.35,0,0,0,.11-.09l.5-.51.09-.1s0-.05,0-.07,0-.05,0-.08l0-.06.06-.06.07.08.1.09.11.11.09.09-.76.78a.27.27,0,0,0-.09.11.11.11,0,0,0,0,.08.12.12,0,0,0,.05.07.16.16,0,0,0,.15.06.22.22,0,0,0,.17-.09l.09-.11a.43.43,0,0,0,0-.11.32.32,0,0,0,0-.09l-.06-.08s0,0,0,0l-.06,0,.11-.11.06.05a.19.19,0,0,1,.07.06,1.18,1.18,0,0,1,.22.27.35.35,0,0,1-.06.47.49.49,0,0,1-.2.11.53.53,0,0,1-.24,0,.82.82,0,0,1-.3-.22l-.13-.12-.13-.13-.13-.11Zm1.45-.07a.75.75,0,0,0,.07-.12.28.28,0,0,0,0-.13.55.55,0,0,0-.11-.15l-.17-.16.15-.05.21.2.14.13.1.09-.08.09a.76.76,0,0,0-.08.11l-.07.1-.07,0A.28.28,0,0,1,40.87,10.27Z" transform="translate(0.5 0.5)"/><path class="a5fa3262-bf79-4ae7-bdfb-060f64f09c12" d="M40.54,11.46a.22.22,0,0,1,0-.08.31.31,0,0,1,0-.08l.1-.11.12-.08.05.07,0,.06.09.06a.45.45,0,0,0,.16,0l.19-.11a3.46,3.46,0,0,0,.31-.23l.1-.09a.12.12,0,0,0,0-.08.38.38,0,0,0-.07-.11l0-.06s0,0,0-.05l.15.17.24.26.2.23.13.14.08.08-.06.05-.06,0a.25.25,0,0,0-.08-.05.09.09,0,0,0-.07,0,.33.33,0,0,0-.11.08l-.54.47a.47.47,0,0,0-.1.11.07.07,0,0,0,0,.07.2.2,0,0,0,0,.08l0,.05-.06.06-.09-.1-.12-.14L41.05,12l-.12-.12.06,0,.06,0,.08.05a.1.1,0,0,0,.07,0l.12-.08.54-.47.1-.11a.08.08,0,0,0,0-.07L42,11l0,0,0,0,0,0h0a.09.09,0,0,0-.06,0l-.1.07-.38.28a2.18,2.18,0,0,1-.31.18.53.53,0,0,1-.23.06A.23.23,0,0,1,40.54,11.46Z" transform="translate(0.5 0.5)"/><path class="a5fa3262-bf79-4ae7-bdfb-060f64f09c12" d="M42.47,12a.3.3,0,0,0,.1-.09.07.07,0,0,0,0-.07.16.16,0,0,0,0-.08.21.21,0,0,1,0-.06l.06,0,.06.08.08.11.08.09L43,12l.08.09.06.08-.06,0-.07,0a.19.19,0,0,0-.07-.06.08.08,0,0,0-.08,0l-.11.07-.57.44a.46.46,0,0,0-.1.1.11.11,0,0,0,0,.07A.3.3,0,0,0,42,13,.21.21,0,0,1,42,13l-.07.05a.33.33,0,0,0-.08-.11l-.11-.15-.13-.15-.11-.13.07,0,.06,0a.21.21,0,0,0,.08.06.06.06,0,0,0,.07,0,.49.49,0,0,0,.12-.08Z" transform="translate(0.5 0.5)"/><path class="a5fa3262-bf79-4ae7-bdfb-060f64f09c12" d="M42.47,13.81a.7.7,0,0,1-.15-.37.61.61,0,0,1,.07-.35.73.73,0,0,1,.28-.3.79.79,0,0,1,.28-.13.89.89,0,0,1,.28,0,.85.85,0,0,1,.26.11.7.7,0,0,1,.21.21.92.92,0,0,1,.15.36.68.68,0,0,1-.06.35.82.82,0,0,1-.26.3,1.23,1.23,0,0,1-.29.13,1,1,0,0,1-.29,0,.82.82,0,0,1-.26-.1A.66.66,0,0,1,42.47,13.81Zm.14-.06a.21.21,0,0,0,.16.1.47.47,0,0,0,.23,0,1.76,1.76,0,0,0,.27-.14,1.21,1.21,0,0,0,.23-.22.61.61,0,0,0,.11-.23.3.3,0,0,0,0-.21.22.22,0,0,0-.15-.1.42.42,0,0,0-.22,0,.9.9,0,0,0-.26.13l-.19.16a.68.68,0,0,0-.13.18.43.43,0,0,0-.06.18A.27.27,0,0,0,42.61,13.75Z" transform="translate(0.5 0.5)"/><path class="a5fa3262-bf79-4ae7-bdfb-060f64f09c12" d="M44.42,14.23l.19.32-.88.51-.11.08a.16.16,0,0,0,0,.09.51.51,0,0,0,0,.12l0,0-.07,0-.08-.15-.11-.18L43.24,15l-.08-.13s0-.07-.06-.1l.07,0,.07,0,.08.1a.15.15,0,0,0,.09,0l.13-.06Zm-.08,0a.24.24,0,0,0-.1-.1.21.21,0,0,0-.12,0l-.15,0a.41.41,0,0,1,0-.09.32.32,0,0,1,0-.09l.19-.07.18-.09.08.15.1.17.14.23.13.22.11.17.09.15-.16.1-.16.13a.17.17,0,0,1-.06-.06.35.35,0,0,1-.06-.09.42.42,0,0,0,.14-.17.18.18,0,0,0,0-.17Z" transform="translate(0.5 0.5)"/><path class="a5fa3262-bf79-4ae7-bdfb-060f64f09c12" d="M45,15.12l0,.1.06.13a.83.83,0,0,1,.07.13l0,.11-1,.48-.12.07a.12.12,0,0,0,0,.08.26.26,0,0,0,0,.11H44l-.07-.13L43.85,16c0-.06-.06-.11-.08-.16l-.06-.1.08,0,.06,0,.06.07a.11.11,0,0,0,.08,0,.34.34,0,0,0,.14,0l.64-.32a.35.35,0,0,0,.11-.07.08.08,0,0,0,0-.07.18.18,0,0,0,0-.09l.06,0Zm-.45,1.39a.19.19,0,0,1,0,.1.26.26,0,0,1,0,.09l-.18,0-.18.07-.07-.14-.09-.17a1.3,1.3,0,0,1-.08-.17h.16v0a.34.34,0,0,0,.1.13.28.28,0,0,0,.13,0Zm.44-.36-.11,0-.12.06-.13.07-.09.05a.3.3,0,0,1,0-.08.19.19,0,0,1,0-.07.2.2,0,0,0,.09-.1.23.23,0,0,0,0-.14l-.06-.12.13-.06.06.11c0,.07.07.11.1.12a.16.16,0,0,0,.13,0l0,.06Zm.51,0-.1.06-.11.07-.1.08-.06-.06-.06-.09a.52.52,0,0,0,.11-.1.21.21,0,0,0,0-.12.41.41,0,0,0,0-.17l-.1-.19h.16l.12.25a1.46,1.46,0,0,1,.09.16A.66.66,0,0,1,45.53,16.1Z" transform="translate(0.5 0.5)"/><path class="a5fa3262-bf79-4ae7-bdfb-060f64f09c12" d="M44.34,17l.08,0,.07,0a.16.16,0,0,0,0,.08.11.11,0,0,0,.08,0l.13,0,.67-.28a.33.33,0,0,0,.12-.06.07.07,0,0,0,0-.06s0-.05,0-.09l.06,0,.07,0,0,.09,0,.12,0,.11a.93.93,0,0,1,.05.1l0,.11,0,.09-.07,0h-.08l0-.07h-.08l-.13,0-.66.28-.13.06a.07.07,0,0,0,0,.06s0,.05,0,.09l-.06,0-.08,0a.93.93,0,0,0,0-.13c0-.05-.05-.1-.07-.16l-.08-.18A1.07,1.07,0,0,0,44.34,17Zm.41,1a.34.34,0,0,1,.08-.16.86.86,0,0,1,.13-.14c.06-.05.1-.1.15-.15a.6.6,0,0,0,.09-.15.18.18,0,0,0,0-.16l.14-.06a.23.23,0,0,0,.07.11.17.17,0,0,0,.11.06l.2,0,.19,0,.14,0,.1.06a.63.63,0,0,1,.07.12l0,.08a.18.18,0,0,1,0,.06l-.11,0-.12.06a.31.31,0,0,0-.1.05.18.18,0,0,1-.05-.07.3.3,0,0,1,0-.1.25.25,0,0,0,.09-.07,0,0,0,0,0,0-.05.09.09,0,0,0-.07-.06l-.14,0-.16,0-.09,0-.08-.05,0-.06c0,.07,0,.13,0,.17a.51.51,0,0,1,0,.13.5.5,0,0,1-.08.14L45.2,18l-.09.11a.35.35,0,0,0,0,.08.15.15,0,0,0,0,.07.51.51,0,0,0,0,.09h0l-.06,0s0,0,0,0l-.05-.11-.06-.13Z" transform="translate(0.5 0.5)"/><path class="a5fa3262-bf79-4ae7-bdfb-060f64f09c12" d="M46.61,18.75l-.88.79a.66.66,0,0,1-.12.12.15.15,0,0,0,0,.08.09.09,0,0,0,0,.05.1.1,0,0,1,0,0l-.08,0,0-.1,0-.11,0-.09,0-.07,0-.09,0-.1,0-.06.08,0h.07a.15.15,0,0,0,.07.07s.06,0,.11-.06l.36-.32.18-.14.16-.11,0,.06h-.42l-.46,0a.16.16,0,0,0-.12,0,.11.11,0,0,0,0,.11l-.06,0-.08,0a.14.14,0,0,0,0-.06l0-.09,0-.08,0-.1,0-.08.08,0h.07a.12.12,0,0,0,0,0l.08,0h.14l1.18.09a.09.09,0,0,1,0,.06Zm-.88.37-.12.08-.09-.28-.12-.28.16,0Z" transform="translate(0.5 0.5)"/><path class="a5fa3262-bf79-4ae7-bdfb-060f64f09c12" d="M13.77,42.06l.06-.12a.08.08,0,0,0,0-.07.13.13,0,0,0-.06-.07l0-.07,0-.06.08,0,.11.08.1.07.1.06.1.06.09.06-.05.06s0,0,0,0l-.09,0a.11.11,0,0,0-.07,0l-.08.11-.41.59a.88.88,0,0,0-.07.12.08.08,0,0,0,0,.07.13.13,0,0,0,.06.07.13.13,0,0,1,0,.07l0,.06-.11-.08-.15-.1L13.16,43,13,42.87l.05-.06,0-.05.09,0a.09.09,0,0,0,.07,0,.35.35,0,0,0,.09-.11Z" transform="translate(0.5 0.5)"/><path class="a5fa3262-bf79-4ae7-bdfb-060f64f09c12" d="M14.58,43.86l.12-1.23,0,0-.36.51a.78.78,0,0,0-.11.18.16.16,0,0,0,0,.11.16.16,0,0,0,.07.07s0,0,0,.07l0,.07-.09-.06-.11-.06-.09,0-.08,0-.06,0a.25.25,0,0,1,0-.07l.05,0a.14.14,0,0,0,.09,0s.06,0,.1-.06a1.31,1.31,0,0,0,.14-.16l.33-.48.08-.13a.08.08,0,0,0,0-.08.14.14,0,0,0-.07-.06.64.64,0,0,1,0-.07.25.25,0,0,1,0-.07l.07,0,.09,0,.07,0,.07,0,.09,0,.07,0L15,43.63l-.06,0,.89-.75.07,0L16,43,16,43l.08,0,.08,0,.07,0a.25.25,0,0,1,0,.07l0,0a.14.14,0,0,0-.14,0,.32.32,0,0,0-.1.15l-.27.59a1.2,1.2,0,0,0-.06.17.14.14,0,0,0,0,.09.22.22,0,0,0,.07.06l0,.07a.25.25,0,0,1,0,.07l0,0-.09-.06-.1,0-.08-.05-.1,0-.11-.06-.07,0,0-.06,0-.06.1,0s0,0,.06-.05l.08-.14.28-.65,0,0-.95.75-.06,0Z" transform="translate(0.5 0.5)"/><path class="a5fa3262-bf79-4ae7-bdfb-060f64f09c12" d="M16.15,44.67a.27.27,0,0,1-.13-.13.23.23,0,0,1,0-.18.22.22,0,0,1,.13-.12.31.31,0,0,1,.19,0,.25.25,0,0,1,.12.13.18.18,0,0,1,0,.16.24.24,0,0,1-.13.13A.25.25,0,0,1,16.15,44.67Z" transform="translate(0.5 0.5)"/><path class="a5fa3262-bf79-4ae7-bdfb-060f64f09c12" d="M17.66,43.73l.1,0,.11,0,.13,0,.16,0,.14.05a1.58,1.58,0,0,1,.29.14.37.37,0,0,1,.14.17.33.33,0,0,1,0,.19.28.28,0,0,1-.15.17.43.43,0,0,1-.28,0,.54.54,0,0,1,.21.13.27.27,0,0,1,.08.16.35.35,0,0,1,0,.2.37.37,0,0,1-.14.18.43.43,0,0,1-.24.07,1.24,1.24,0,0,1-.37-.08l-.17-.06-.17-.06-.16-.06-.15,0,0-.08,0,0h.1a.13.13,0,0,0,.06,0,.53.53,0,0,0,.06-.13l.25-.66,0-.13a.19.19,0,0,0,0-.08l-.08-.05s0,0,0-.07Zm.47.26-.35.94a.44.44,0,0,0,0,.14.11.11,0,0,0,0,.08l.07,0a.22.22,0,0,0,.18,0,.27.27,0,0,0,.12-.15.39.39,0,0,0,0-.14.3.3,0,0,0,0-.1.6.6,0,0,0-.08-.08l-.12-.06-.12,0,.05-.13.14.05a.26.26,0,0,0,.15,0,.22.22,0,0,0,.11,0,.35.35,0,0,0,.07-.12.2.2,0,0,0,0-.13.12.12,0,0,0-.05-.1l-.1-.07-.07,0h-.06Z" transform="translate(0.5 0.5)"/><path class="a5fa3262-bf79-4ae7-bdfb-060f64f09c12" d="M19,45.73a.22.22,0,0,1-.15-.11.2.2,0,0,1,0-.17.21.21,0,0,1,.12-.14.31.31,0,0,1,.19,0,.24.24,0,0,1,.14.12.2.2,0,0,1,0,.15.22.22,0,0,1-.3.16Z" transform="translate(0.5 0.5)"/><path class="a5fa3262-bf79-4ae7-bdfb-060f64f09c12" d="M19.49,45.87s0-.06,0-.09l0-.05h.09a.17.17,0,0,0,.06-.06.5.5,0,0,0,0-.13l.18-.69a1.05,1.05,0,0,0,0-.13.08.08,0,0,0,0-.07l-.08,0v-.06s0-.06,0-.09l.11,0,.14,0,.15,0,.12,0-.26,1a.35.35,0,0,0,0,.14.11.11,0,0,0,.05.09.22.22,0,0,0,.12.06V46s0,.05,0,.08l-.1,0L20,46l-.13,0-.22-.06Zm1.2-.79a.61.61,0,0,0,0-.14.19.19,0,0,0-.07-.11.4.4,0,0,0-.16-.08l-.21,0,.1-.12.27.07.18,0,.13,0a.74.74,0,0,1,0,.12s0,.09,0,.13a.49.49,0,0,0,0,.12h-.19Z" transform="translate(0.5 0.5)"/><path class="a5fa3262-bf79-4ae7-bdfb-060f64f09c12" d="M21,46.22a.2.2,0,0,1-.15-.09.19.19,0,0,1,0-.18.18.18,0,0,1,.1-.14.31.31,0,0,1,.19,0,.24.24,0,0,1,.15.1.21.21,0,0,1,0,.15.29.29,0,0,1-.1.16A.2.2,0,0,1,21,46.22Z" transform="translate(0.5 0.5)"/><path class="a5fa3262-bf79-4ae7-bdfb-060f64f09c12" d="M22.07,46.4a.25.25,0,0,1,0-.08s0,0,0-.06l.09,0s0,0,0-.06a.86.86,0,0,0,0-.13l.07-.71a.72.72,0,0,0,0-.13s0-.06,0-.07a.2.2,0,0,0-.08,0s0,0,0-.07a.17.17,0,0,1,0-.07h.09l.14,0h.44a.17.17,0,0,1,0,.07.14.14,0,0,1,0,.07l-.08,0a.1.1,0,0,0-.05.06.39.39,0,0,0,0,.13l-.08.71a.82.82,0,0,0,0,.14.16.16,0,0,0,0,.07l.08,0v.07a.17.17,0,0,1,0,.07h-.13l-.18,0-.2,0Zm1.07.13a.31.31,0,0,1-.1-.15,1.07,1.07,0,0,1-.07-.19L22.91,46a.38.38,0,0,0-.09-.15.22.22,0,0,0-.15-.08l0-.14a.19.19,0,0,0,.13,0,.3.3,0,0,0,.11-.06l.13-.16.12-.15a.52.52,0,0,1,.1-.11l.09,0a.33.33,0,0,1,.14,0h.09l.06,0s0,.07,0,.11,0,.09,0,.13v.12h-.19a.42.42,0,0,0,0-.11.05.05,0,0,0-.05,0,.08.08,0,0,0-.08,0,.69.69,0,0,0-.1.12l-.09.12-.08.07-.07,0-.05,0a.58.58,0,0,1,.17,0,.21.21,0,0,1,.11.08.49.49,0,0,1,.08.13l.09.2a.59.59,0,0,0,0,.13.29.29,0,0,0,0,.08l.06,0,.09,0v0s0,0,0,.06,0,0,0,.05l-.12,0h-.29Z" transform="translate(0.5 0.5)"/><path class="a5fa3262-bf79-4ae7-bdfb-060f64f09c12" d="M24.52,46.61a.81.81,0,0,1-.39-.11.6.6,0,0,1-.25-.27.8.8,0,0,1-.08-.39.94.94,0,0,1,.07-.3.73.73,0,0,1,.16-.23.59.59,0,0,1,.23-.14,1,1,0,0,1,.3,0,.81.81,0,0,1,.39.1.75.75,0,0,1,.25.25.79.79,0,0,1,.08.38.75.75,0,0,1-.06.31.78.78,0,0,1-.16.24.61.61,0,0,1-.23.15A.81.81,0,0,1,24.52,46.61Zm0-.15a.24.24,0,0,0,.18-.07.44.44,0,0,0,.12-.19,1.36,1.36,0,0,0,0-.3,1,1,0,0,0,0-.31.52.52,0,0,0-.13-.23.29.29,0,0,0-.2-.09.27.27,0,0,0-.17.06.4.4,0,0,0-.11.18.84.84,0,0,0,0,.29,1,1,0,0,0,0,.25.65.65,0,0,0,.06.21.33.33,0,0,0,.12.14A.23.23,0,0,0,24.55,46.46Z" transform="translate(0.5 0.5)"/><path class="a5fa3262-bf79-4ae7-bdfb-060f64f09c12" d="M25.6,46.61a.34.34,0,0,1,0-.09s0,0,0-.06.07,0,.09,0a.09.09,0,0,0,0-.06.57.57,0,0,0,0-.14l0-.72s0-.1,0-.13,0-.05-.05-.06l-.09,0s0,0,0-.06a.28.28,0,0,1,0-.09h.72a.69.69,0,0,1,.34,0,.34.34,0,0,1,.18.15.38.38,0,0,1,.06.22.49.49,0,0,1-.05.27.41.41,0,0,1-.17.2.49.49,0,0,1-.28.08.35.35,0,0,1-.15,0,.22.22,0,0,1,0-.08.14.14,0,0,1,0-.06h.06a.17.17,0,0,0,.1,0,.27.27,0,0,0,.08-.1.53.53,0,0,0,0-.19.46.46,0,0,0-.08-.25.26.26,0,0,0-.21-.09h0l-.06,0,0,0,.05.91a.26.26,0,0,0,0,.14.14.14,0,0,0,.07.08l.13,0a.14.14,0,0,1,0,.07.22.22,0,0,1,0,.08H25.6Z" transform="translate(0.5 0.5)"/><path class="a5fa3262-bf79-4ae7-bdfb-060f64f09c12" d="M27.94,46.43a.85.85,0,0,1-.4,0,.66.66,0,0,1-.29-.23.87.87,0,0,1-.14-.37.79.79,0,0,1,0-.31.83.83,0,0,1,.12-.25.91.91,0,0,1,.21-.18,1.23,1.23,0,0,1,.29-.09.75.75,0,0,1,.4,0,.66.66,0,0,1,.29.21.82.82,0,0,1,.14.36,1.13,1.13,0,0,1,0,.32.58.58,0,0,1-.12.25.55.55,0,0,1-.21.19A.83.83,0,0,1,27.94,46.43Zm0-.16a.2.2,0,0,0,.16-.09A.51.51,0,0,0,28.2,46a1,1,0,0,0,0-.3.75.75,0,0,0-.09-.3.47.47,0,0,0-.16-.2.27.27,0,0,0-.21-.06.24.24,0,0,0-.16.09.42.42,0,0,0-.09.19,1.4,1.4,0,0,0,0,.29q0,.14.06.24a.75.75,0,0,0,.1.2.35.35,0,0,0,.14.13A.32.32,0,0,0,28,46.27Z" transform="translate(0.5 0.5)"/><path class="a5fa3262-bf79-4ae7-bdfb-060f64f09c12" d="M29.07,46.26a.33.33,0,0,1-.1,0l-.08,0a.46.46,0,0,1-.05-.14.76.76,0,0,1,0-.15H29a.21.21,0,0,0,.1-.06.3.3,0,0,0,0-.15v-.22c0-.1,0-.22-.05-.38A.33.33,0,0,0,29,45s0,0-.06,0a.24.24,0,0,0-.12,0l0-.06a.31.31,0,0,1,0-.08l.22,0,.35-.08.3-.06.19,0,.11,0s0,0,0,.07v.08a.19.19,0,0,0-.09,0,.12.12,0,0,0,0,.07.72.72,0,0,0,0,.13l.16.7a.33.33,0,0,0,0,.13.09.09,0,0,0,.06.06h.09a.14.14,0,0,1,0,.06.31.31,0,0,1,0,.08l-.13,0L30,46l-.2,0-.16.05s0-.05,0-.08V46l.09,0a.14.14,0,0,0,0-.07.39.39,0,0,0,0-.14l-.15-.7,0-.14a.1.1,0,0,0-.06,0s0,0-.05,0h-.06l0,0,0,0,0,0V45a.74.74,0,0,0,0,.12c0,.18,0,.33.06.47s0,.25,0,.35a.52.52,0,0,1-.07.23A.27.27,0,0,1,29.07,46.26Z" transform="translate(0.5 0.5)"/><path class="a5fa3262-bf79-4ae7-bdfb-060f64f09c12" d="M30.2,44.5l.11,0,.14,0,.14,0,.12,0,.31,1a.64.64,0,0,0,.06.14.12.12,0,0,0,.07.05.22.22,0,0,0,.11,0l0,.16-.14,0-.18.06-.17,0-.12,0s0,0,0-.08,0,0,0-.06.07,0,.08,0a.06.06,0,0,0,0-.07.44.44,0,0,0,0-.14l-.2-.68-.05-.13s0,0-.06,0h-.1l0-.07A.25.25,0,0,1,30.2,44.5Zm1.07-.32a.84.84,0,0,0,0,.12l.06.12a.31.31,0,0,0,.05.1.18.18,0,0,1-.07,0l-.1,0a.44.44,0,0,0-.08-.11.19.19,0,0,0-.11-.07.4.4,0,0,0-.18,0l-.21.06,0-.15.27-.08.18-.06Zm0,.51,0,.11a.79.79,0,0,0,0,.13s0,.1.05.14l0,.1-.09,0h-.07a.2.2,0,0,0-.08-.11.28.28,0,0,0-.15,0l-.13,0,0-.13.12,0a.22.22,0,0,0,.14-.08.14.14,0,0,0,0-.13l.07,0Zm.28.49h.11l.09,0a1,1,0,0,0,0,.17l0,.2-.14,0-.19,0-.19.06,0-.16h0a.46.46,0,0,0,.14-.07.23.23,0,0,0,.06-.12A.79.79,0,0,0,31.51,45.18Z" transform="translate(0.5 0.5)"/><path class="a5fa3262-bf79-4ae7-bdfb-060f64f09c12" d="M32.11,45.45a.24.24,0,0,1,0-.08.64.64,0,0,0,0-.07.16.16,0,0,0,.08,0,.1.1,0,0,0,0-.08.3.3,0,0,0,0-.13l-.26-.66a.33.33,0,0,0-.06-.12.13.13,0,0,0-.06,0h-.1a.16.16,0,0,1,0-.06.25.25,0,0,1,0-.07l.1,0,.12-.05.12,0,.1,0,.12,0,.09,0,0,.07s0,.05,0,.07l-.08.06a.08.08,0,0,0,0,.07.46.46,0,0,0,0,.13l.26.67a.67.67,0,0,0,.06.12.12.12,0,0,0,.07,0h.09l0,0,0,.08-.13,0-.18.07-.18.07Zm.25-.8-.07-.16.47-.18.06.14-.12,0-.12,0-.12.06Zm.55.49,0-.08s0-.05,0-.07a.16.16,0,0,0,.08-.05.15.15,0,0,0,0-.07.51.51,0,0,0,0-.14l-.26-.66L32.6,44a.12.12,0,0,0-.07-.05h-.09l0-.06,0-.07.1,0,.12,0,.11,0,.11,0,.11,0,.1,0a.64.64,0,0,0,0,.07.22.22,0,0,1,0,.08l-.07,0s0,0,0,.08l0,.13.27.66a.33.33,0,0,0,.06.12.13.13,0,0,0,.06.05h.1l0,.06,0,.07-.13,0-.17.07-.19.07Z" transform="translate(0.5 0.5)"/><path class="a5fa3262-bf79-4ae7-bdfb-060f64f09c12" d="M33.87,44.75l0-.07a.25.25,0,0,1,0-.07.22.22,0,0,0,.07-.06.11.11,0,0,0,0-.08l0-.13-.33-.63a.31.31,0,0,0-.07-.12s0,0-.06,0l-.09,0s0,0,0-.06l0-.06.1-.05.12,0,.1-.05.1,0,.11-.06.09,0,0,.06s0,0,0,.08a.18.18,0,0,0-.07.05.11.11,0,0,0,0,.08.51.51,0,0,0,0,.12l.32.64.07.12a.13.13,0,0,0,.07,0,.13.13,0,0,0,.08,0,.13.13,0,0,1,0,.06.25.25,0,0,1,0,.07l-.12,0-.16.08-.18.09Zm1-.46a.56.56,0,0,1-.16-.07l-.16-.13L34.36,44a.35.35,0,0,0-.16-.08.18.18,0,0,0-.16,0L34,43.77a.24.24,0,0,0,.11-.08.16.16,0,0,0,.05-.11s0-.12,0-.2,0-.14,0-.2a.44.44,0,0,1,0-.13.17.17,0,0,1,.06-.1.35.35,0,0,1,.11-.08l.08,0,.06,0,.05.1.06.12.06.1-.07,0-.09.05a.19.19,0,0,0-.08-.08h0a.09.09,0,0,0-.06.06s0,.08,0,.15,0,.12,0,.16,0,.07,0,.09a.59.59,0,0,0,0,.08h-.07a.45.45,0,0,1,.17,0,.23.23,0,0,1,.14,0l.14.06.18.13.12.08s0,0,.08,0h.07l.09,0,0,0s0,0,0,.06,0,0,0,.05l-.12,0-.12.07Z" transform="translate(0.5 0.5)"/><path class="a5fa3262-bf79-4ae7-bdfb-060f64f09c12" d="M35.35,42.31l1,.67.15.09.08,0h.06l0,0a.18.18,0,0,1,.05.07l-.09,0-.1.06-.08,0-.06,0-.09.05-.08,0-.06,0,0-.07s0,0,0-.06.06-.06.05-.09,0,0-.07-.09l-.4-.27a1.41,1.41,0,0,1-.18-.14l-.15-.13.06,0,0,.2a1.55,1.55,0,0,1,0,.21l.08.45a.2.2,0,0,0,.06.11.11.11,0,0,0,.11,0l0,.05,0,.07-.06,0-.08,0-.07,0-.09,0-.08.05,0-.06,0-.07,0-.06a.17.17,0,0,0,0-.08,1.15,1.15,0,0,0,0-.14l-.18-1.16.06,0Zm.57.77.1.09c-.09,0-.17.1-.26.15l-.25.18,0-.15Z" transform="translate(0.5 0.5)"/></svg>