<svg id="a2ba8332-d39c-458d-a130-8952fa06177d" data-name="Layer 1 copy" xmlns="http://www.w3.org/2000/svg" viewBox="0 0 72.82 72.82"><defs><style>.b9e0f33f-04e2-4330-80d7-e021f729fe75{fill:#fff;}.a2aa1ff5-f88c-45a7-939d-caec95b3b06b{fill:none;stroke:#000;stroke-miterlimit:10;stroke-width:5.02px;}</style></defs><circle class="b9e0f33f-04e2-4330-80d7-e021f729fe75" cx="36.41" cy="36.41" r="36.41"/><polyline class="a2aa1ff5-f88c-45a7-939d-caec95b3b06b" points="45.19 15.08 36.41 23.86 27.63 15.08"/><line class="a2aa1ff5-f88c-45a7-939d-caec95b3b06b" x1="36.41" y1="23.86" x2="36.41" y2="3.79"/><polyline class="a2aa1ff5-f88c-45a7-939d-caec95b3b06b" points="27.63 57.74 36.41 48.96 45.19 57.74"/><line class="a2aa1ff5-f88c-45a7-939d-caec95b3b06b" x1="36.41" y1="48.96" x2="36.41" y2="69.03"/><polyline class="a2aa1ff5-f88c-45a7-939d-caec95b3b06b" points="57.74 45.19 48.96 36.41 57.74 27.63"/><line class="a2aa1ff5-f88c-45a7-939d-caec95b3b06b" x1="48.96" y1="36.41" x2="69.03" y2="36.41"/><polyline class="a2aa1ff5-f88c-45a7-939d-caec95b3b06b" points="15.08 27.63 23.86 36.41 15.08 45.19"/><line class="a2aa1ff5-f88c-45a7-939d-caec95b3b06b" x1="23.86" y1="36.41" x2="3.79" y2="36.41"/><circle cx="36.41" cy="36.41" r="5.02"/><path d="M93.93,169.63l3.15-2.09a27.67,27.67,0,0,1,11.71-17A28.77,28.77,0,0,1,148.2,158a27.23,27.23,0,0,1,4.65,12.18l4.72-3.14a32.08,32.08,0,0,0-5.1-11.88,34,34,0,0,0-46.57-8.74A32.73,32.73,0,0,0,92,166.79Z" transform="translate(-88.32 -137.18)"/><path d="M155.52,177.55l-3.14,2.09a27.68,27.68,0,0,1-11.72,17,28.77,28.77,0,0,1-39.41-7.39A27.23,27.23,0,0,1,96.6,177l-4.72,3.14A32.39,32.39,0,0,0,97,192a34,34,0,0,0,46.57,8.74,32.69,32.69,0,0,0,13.94-20.39Z" transform="translate(-88.32 -137.18)"/></svg>