<svg id="a9dc480a-7d7d-4062-a5e6-4c7ac3973702" data-name="Слой 1" xmlns="http://www.w3.org/2000/svg" viewBox="0 0 50 50"><defs><style>.ec6b3b1a-6d4c-4185-ad9e-d1222df3e326{fill:#fff;}.b22943f2-5850-4d4e-8b8e-264a7f0edc04{fill:#13110c;}</style></defs><circle class="ec6b3b1a-6d4c-4185-ad9e-d1222df3e326" cx="25" cy="25" r="25"/><path d="M519.05,502.69c-.1-.38-.2-.76-.28-1.14a3.83,3.83,0,0,1-.09-.56l-.12-1.19c0-.12,0-.24,0-.37s0-.55-.08-.83l0-.49c0-.22,0-.44-.07-.66a.84.84,0,0,0-.16-.48,1,1,0,0,0-.64-.28,3,3,0,0,0-1.07.07l-.33.07c-.12,0-.14.05-.21-.05s-.19-.27-.28-.4a1.47,1.47,0,0,0-.6-.48,3.11,3.11,0,0,0-.91-.28,7.72,7.72,0,0,0-1.36,0,7.29,7.29,0,0,0-1.47.25,12.56,12.56,0,0,0-1.61.51.26.26,0,0,1-.28,0l-.37-.2a4.67,4.67,0,0,0-1.13-.42,2.34,2.34,0,0,0-.7,0,.76.76,0,0,1,0-.14c0-1.25,0-2.5,0-3.75,0-1,0-2,0-3a.38.38,0,0,0-.19-.37l-1.41-1c-.05,0-.11-.07-.15-.11a.15.15,0,0,0-.19,0l-.07,0a.2.2,0,0,1-.25,0l-.71-.5a.24.24,0,0,1-.12-.27.2.2,0,0,0-.09-.22l-.94-.67a.14.14,0,0,0-.19,0l-4.19,3a.2.2,0,0,0-.1.18.41.41,0,0,1,0,.11c0,.87,0,1.74,0,2.6,0,.07,0,.14,0,.21-.14-.12-.26-.06-.39,0s-.33.14-.48.22a.28.28,0,0,1-.25,0c-.49-.21-1-.43-1.48-.63a.17.17,0,0,1-.13-.21.19.19,0,0,0-.15-.21l-1.1-.51-1.37-.64a.17.17,0,0,0-.2,0L491.71,491a.16.16,0,0,0-.08.15.25.25,0,0,1-.09.2l-.82.73c-.16.14-.1.14-.3,0a.2.2,0,0,0-.26,0l-1.77,1.48a.29.29,0,0,0-.12.28.35.35,0,0,1-.15.35l-1.38,1.23a.23.23,0,0,0-.09.19c0,.19,0,.38,0,.57v.18l-.24-.05a15.4,15.4,0,0,0-2.32-.57c-.31,0-.61-.09-.92-.1s-.77,0-1.15,0a3.34,3.34,0,0,0-.78.12,2.13,2.13,0,0,0-1.24.78l-.15.19a.13.13,0,0,1-.15.07c-.23-.05-.47-.1-.71-.13a2.82,2.82,0,0,0-.87,0,.74.74,0,0,0-.61.72c0,.56-.07,1.13-.1,1.7s-.08,1-.11,1.46a7.89,7.89,0,0,1-.31,1.8,1.46,1.46,0,0,0-.09.59,1.6,1.6,0,0,0,.42.91c.07.07.13.16.21.23a.4.4,0,0,1,.15.4,1.24,1.24,0,0,0,.11.78l.08.18a1.87,1.87,0,0,0,1,.94c.16.07.33.11.5.17s.11.05.07.15l-.15.33a.38.38,0,0,0,0,.36c.16.28.3.57.46.86s.18.29.28.44a6.24,6.24,0,0,1,.66,1.08,1.8,1.8,0,0,0,.08.21,8,8,0,0,1,.58,1.86c.07.34.12.68.19,1a.54.54,0,0,0,.08.21c.1.14.22.28.33.42a2.9,2.9,0,0,0,.9.77,1.75,1.75,0,0,0,1,.15,1.22,1.22,0,0,0,.65-.25,1.08,1.08,0,0,0,.31-.36,1.8,1.8,0,0,0,.17-1.12,1.35,1.35,0,0,1,0-.29c0-.12,0-.16.15-.15a2,2,0,0,1,1.11.39.25.25,0,0,1,.09.31l-.09.19c-.09.19-.18.38-.26.57a.46.46,0,0,0,0,.38c.06.13.1.28.16.4a1.37,1.37,0,0,0,.44.54.11.11,0,0,0,.15,0l.22-.13a2.74,2.74,0,0,1,.73-.3,1.31,1.31,0,0,1,.27-.06,2,2,0,0,1,.91.1,2.52,2.52,0,0,1,.82.45c.1.08.11.1,0,.21a3.45,3.45,0,0,1-.2.32,3.65,3.65,0,0,0-.18.34,2.09,2.09,0,0,0-.15.7,2,2,0,0,0,.15.91c0,.08.07.14.11.24a1.4,1.4,0,0,1,.82-.47c.12,0,.15,0,.2.08l0,.06a1.52,1.52,0,0,0,.89.8,2.5,2.5,0,0,0,.76.15l.3,0c.08,0,.11,0,.1-.11a.36.36,0,0,0,0-.1,1,1,0,0,1,0-.74.49.49,0,0,1,.43-.38,1.78,1.78,0,0,1,.4,0,4.42,4.42,0,0,1,.79.22,1.19,1.19,0,0,0,.87,0,1.38,1.38,0,0,1,.29-.08c.14,0,.17,0,.21.13s.12.37.2.54.15.3.36.31l.08-.18a1.42,1.42,0,0,1,.43-.6,1.6,1.6,0,0,1,.67-.32l.39-.08c.08,0,.12,0,.1.11l0,.09a2.34,2.34,0,0,0-.24.67,2.29,2.29,0,0,0,0,1.19.81.81,0,0,0,.43.54.57.57,0,0,0,.54,0,.71.71,0,0,0,.4-.49,2.61,2.61,0,0,0,0-1.18,2,2,0,0,0-.21-.67,1.72,1.72,0,0,1-.11-.3,1.44,1.44,0,0,1,.51.08l.14,0a1.54,1.54,0,0,1,.78.54c.09.14.16.3.24.45s.09.13.2.06a.75.75,0,0,0,.27-.39c.05-.14.08-.28.12-.43s.08-.14.2-.11l.37.1a.72.72,0,0,0,.41.05c.2-.06.41-.11.61-.18a2.61,2.61,0,0,1,.83-.17.55.55,0,0,1,.52.26,1.22,1.22,0,0,1,.13.46,1,1,0,0,1-.11.45c0,.13,0,.17.11.17l.27,0a2.09,2.09,0,0,0,.78-.16,1.39,1.39,0,0,0,.78-.65,1.67,1.67,0,0,1,.16-.24.12.12,0,0,1,.07,0,1.35,1.35,0,0,1,.81.35l.13.11c.07-.21.13-.39.18-.57a1.9,1.9,0,0,0-.09-1.2,2,2,0,0,0-.42-.71.14.14,0,0,1,0-.2.35.35,0,0,1,.11-.1,3.37,3.37,0,0,1,.31-.21,2.18,2.18,0,0,1,.71-.27,1.61,1.61,0,0,1,.69,0,2.94,2.94,0,0,1,.66.19l.47.26c.12.06.14.06.24,0s.1-.13.16-.19a1.86,1.86,0,0,0,.38-.77.45.45,0,0,0,0-.32l-.15-.37-.21-.46a.13.13,0,0,1,0-.15.84.84,0,0,1,.35-.3,2.74,2.74,0,0,1,.4-.15,2.58,2.58,0,0,1,.39,0c.15,0,.17,0,.17.19v0a2.42,2.42,0,0,0,0,.85,1.14,1.14,0,0,0,.42.75,1.57,1.57,0,0,0,1.32.3,1.7,1.7,0,0,0,.49-.18,3.16,3.16,0,0,0,1-.94,1,1,0,0,0,.24-.56,3,3,0,0,1,.06-.4l.18-.84c0-.24.09-.47.15-.7s.13-.38.19-.57a3.93,3.93,0,0,1,.43-.93c.19-.3.4-.6.6-.89a5.36,5.36,0,0,0,.54-1,.53.53,0,0,0,0-.35,1,1,0,0,0-.23-.48l.07-.05.46-.14a1.42,1.42,0,0,0,.57-.33,1.84,1.84,0,0,0,.53-.73,2,2,0,0,0,.13-1c0-.32.34-.57.49-.82a1.26,1.26,0,0,0,.13-.26c0-.16.08-.33.12-.49A.76.76,0,0,0,519.05,502.69Zm-13.3-14.13v-.17l.13.08.54.35a.15.15,0,0,1,.08.16v9c0,.12,0,.23,0,.37l-.66-.2c-.07,0-.06-.07-.07-.12,0-.39,0-.78,0-1.17Zm4.39,11.61c.16.05.22.14.19.29s-.05.11-.16.1c0-.2,0-.29-.15-.31s-.19,0-.24.21a1.65,1.65,0,0,1-.32-.06l-.06-.29a.15.15,0,0,0-.15-.11.15.15,0,0,0-.15.12l0,.18-.4-.1c0-.11,0-.2-.05-.3a.18.18,0,0,0-.19-.14.17.17,0,0,0-.17.13c0,.06,0,.12,0,.2l-.61-.15a.4.4,0,0,0,.07-.33.24.24,0,0,0-.23-.2.21.21,0,0,0-.22.19c0,.07,0,.15-.05.24l-.66-.17.12-.09a.24.24,0,0,0,.05-.32.26.26,0,0,0-.31-.11.26.26,0,0,0-.16.3s0,.08,0,.14a3.88,3.88,0,0,1-.63-.14c.11-.17.12-.32,0-.42s-.21-.1-.37,0h0c0-.07-.07-.15,0-.21s.15,0,.21,0Zm-1.84,6.64c0-.19,0-.39,0-.58s0-.41,0-.61,0-.2,0-.3a.22.22,0,0,1,0-.11s0-.08-.06-.08h-.52c-.07,0-.09.05-.09.11,0,.36,0,.72,0,1.08s0,.63,0,.94c0,.08.05.18,0,.23a.56.56,0,0,1-.23.05l-1.32.19c-.15,0-.31.05-.47.06s-.12,0-.13-.11v-.32c0-.28,0-.55-.05-.83s0-.4,0-.6,0-.29,0-.43,0-.17,0-.25c0-.42,0-.84,0-1.26,0-.23,0-.45,0-.68s0-.53,0-.79,0-.65,0-1l0-1.32c0-.12,0-.13.13-.1l.68.16,1.23.31,1.16.29.84.2.7.17.35.1a.09.09,0,0,1,.05.07.57.57,0,0,1,0,.13c0,.59,0,1.18,0,1.77,0,1.2,0,2.4,0,3.6v.11a.1.1,0,0,1-.09.09l-1.91.27h0Zm-3-7.08c.07-.06.1,0,.14,0v0Zm.79.2v0l.19.05v0ZM505,488.52c.07,0,.09,0,.1.08a1.34,1.34,0,0,1,0,.2c0,1.74.06,3.49.08,5.24v.09c0,.15,0,.27.19.32s.09.12.09.2c0,.57,0,1.15,0,1.72,0,0,0,.09,0,.13s-.11-.05-.11-.12,0-.45,0-.68a.28.28,0,0,1,0-.09.16.16,0,0,0-.12-.19l-.06,0a.17.17,0,0,1-.11-.18c0-.31,0-.62,0-.93l0-3.21c0-.8,0-1.61,0-2.42C505,488.61,505,488.57,505,488.52Zm-.19,16.34-.6,0-2.29,0h-.07c-.07,0-.1,0-.1-.1v-.27h.39l.92,0,1.81,0c.15,0,.17,0,.17.17,0,.74,0,1.48,0,2.23,0,0,0,.05,0,.07s0,.09-.1.09l-.59.06-1.2.14-.91.1-.48.06c0-.21,0-.41,0-.6,0-.52,0-1,0-1.56v-.09c0-.05,0-.07.07-.07h3c.1,0,.11,0,.11-.1S504.94,504.87,504.84,504.86Zm-3,2.86,3.28-.41v.36a.07.07,0,0,1-.08.07l-.45.06-1.3.17-1.35.18c-.08,0-.1,0-.1-.09Zm3.18-3.48s0,0,0,.05h-.85l-.69,0h0l-1.48,0s-.11,0-.11-.05.07-.05.11-.05l1,0,1.86,0H505S505,504.22,505,504.24Zm0-.48c0,.21,0,.2-.2.2l-3-.06h-.1a.41.41,0,0,1-.3-.14c-.24-.26-.49-.51-.73-.75s-.12-.12-.25,0l-.51.37a.6.6,0,0,1,0-.12v-.42c0-.1,0-.1-.12-.1h-.31c-.07,0-.1,0-.1.1s0,.16.13.18.09.05.09.11a2.44,2.44,0,0,1,0,.27c0,.08.05.18,0,.24s-.22.19-.39.14H499l-1.23,0-2.27-.09-.43,0a1.64,1.64,0,0,1,0-.22c0-.67,0-1.34,0-2l-.06-4.92a1.21,1.21,0,0,0,0-.19c0-.13,0-.16-.18-.15l-.1,0q-.12,0-.09-.09a.36.36,0,0,1,.12-.15.16.16,0,0,0,.07-.14c0-.07-.07-.07-.11-.08l-.27-.08c-.12,0-.12,0-.16.08a.41.41,0,0,1,0,.07l-.63-.16h0c-.05,0-.07-.33,0-.36a.22.22,0,0,1,.11,0l.7.2,9.73,2.91.7.21c.13,0,.13.05.14.18,0,.34,0,.69,0,1Zm-5.13,1.66,0,2.8c0,.19,0,.19-.18.23a1.52,1.52,0,0,0-.21,0c-.06,0-.1,0-.1-.07v-.08c0-.6,0-1.21,0-1.81h0c0-.59,0-1.18,0-1.77,0-.19,0-.18.18-.18l1.93,0s.07,0,.09,0a.16.16,0,0,1,.07.07.57.57,0,0,1,0,.13c0,.91,0,1.82,0,2.73V508c0,.15,0,.15-.14.17s-.22,0-.22-.19c0-.6,0-1.19,0-1.79,0-.27,0-.55,0-.82s0-.13-.13-.13H500C499.87,505.27,499.87,505.27,499.87,505.42Zm.57-1.34c.06-.06.11-.05.16,0l.22.23c-.49,0-1,0-1.45,0,0,0,0,0,0,0v0l.06-.05,1.19-.92.92.95a.24.24,0,0,1,0,.07.17.17,0,0,1-.22-.05c-.2-.23-.42-.45-.63-.68s-.11-.1-.22,0l-.59.51-.09.09C500.05,504.16,500.26,504.24,500.44,504.08ZM494,507.37a1.36,1.36,0,0,0-.2,0c-.12,0-.12,0-.13-.13v-.16a.18.18,0,0,1,0-.06l.56,0,0,0c0-.25,0-.26-.22-.27h-.3l-.07,0c0-.06,0-.05.07-.05l.86,0h.69c.05,0,.11,0,.13-.07s0-.15-.12-.15h-1.63v-.24h2.4c.1,0,.11,0,.11.12s0,.41,0,.62,0,.6,0,.9a1.15,1.15,0,0,0,0,.18l.59,0a.09.09,0,0,0,.06-.06s0-.11,0-.12-.11-.1-.11-.18v-2c0-.31,0-.29-.28-.29h-.15s-.09,0-.09.06-.08.09-.14.09h-2.39s0-.05,0-.07c0-.2,0-.21.17-.21l5.05,0H499v.52c0,.08-.06.08-.11.08h-.74c-.07,0-.1,0-.1.1s0,.09.1.09h.69c.16,0,.16,0,.16.16l0,1.55a.22.22,0,0,0,0,.08c0,.06,0,.09-.09.09l-1.06.09-1.16.11-.82.07-.85.08-.75.07-.56.05h-.07c0-.21,0-.42,0-.62s0-.07.08-.07l.23,0a.08.08,0,0,0,.09-.09C494.1,507.43,494.08,507.38,494,507.37Zm-.18-1.58a.25.25,0,0,1-.12,0s0,0,0-.06,0-.05.05-.06.06,0,.09,0l2.23,0h.1a.07.07,0,0,1,0,.05s0,0-.05.05h-2.3Zm.32-3-.35,0c-.19,0-.19,0-.19-.21,0,0,0,0,0-.09H494c.11,0,.13,0,.14-.14s0-.14-.12-.15a1.23,1.23,0,0,0-.27,0c-.1,0-.11,0-.11-.12a2.8,2.8,0,0,1,0-.29l.22,0c.11,0,.13,0,.15-.11v-.06c0-.09,0-.12-.11-.13l-.27,0v-.2h.26l.13,0c.14,0,.16,0,.16-.15s0-.15-.15-.16l-.41,0v-.36l.74.06h.08c.17,0,.24-.07.18-.23a.15.15,0,0,0-.11-.06l-.68-.07h-.09c-.12,0-.13,0-.13-.15a2.25,2.25,0,0,1,0-.26h.18l.62.08h.05c.05,0,.13,0,.14-.05a.33.33,0,0,0,0-.2.16.16,0,0,0-.11-.05l-.76-.1c-.14,0-.14,0-.15-.16v-.16h.24l.5.05c.15,0,.16,0,.16-.15,0-.54,0-1.08,0-1.62v-.16c.08,0,.08,0,.08.09s0,.35,0,.53a.78.78,0,0,0,.13.47.33.33,0,0,1,.05.2c0,1.28,0,2.57,0,3.86v1a.1.1,0,0,1-.11.11l-.9,0c-.05,0-.11,0-.11-.07v-.48h.49c.12,0,.12,0,.13-.12v-.05C494.26,502.84,494.26,502.83,494.16,502.82Zm-.64-6.88.2,0,.39.1c.13,0,.13,0,.13.18a.76.76,0,0,1,0,.14l-.62-.14a.11.11,0,0,1-.09-.12A1.2,1.2,0,0,0,493.52,495.94Zm0,.77a.61.61,0,0,0,0-.14l.14,0,.47.1c.07,0,.1,0,.09.11V497l-.2,0-.41-.09C493.55,496.83,493.52,496.79,493.53,496.71Zm0,.44.61.13a.09.09,0,0,1,.08.09c0,.09,0,.18,0,.3l-.61-.12a.12.12,0,0,1-.07-.07Zm0,.72.64.12v.32l-.6-.1a.1.1,0,0,1,0-.07A2.42,2.42,0,0,1,493.56,497.87Zm0,.69.59.09s0,.05.06.07h0c0,.28.05.3-.27.24l-.26,0c-.11,0-.11,0-.12-.13ZM499,504a.87.87,0,0,0,0,.1c0,.07,0,.09-.09.09l-2.53-.07h-.24l-1.89,0-.62,0v-.2Zm-5.36.33h.18l2.35,0,1.8,0,.93,0c.12,0,.12,0,.12.12a1,1,0,0,1,0,.25c0,.11,0,.11-.11.11h-2.38l-2.59,0-.23,0a.07.07,0,0,1-.07-.07Zm.15,4.28.86-.09,1.25-.14.92-.1,1-.11.95-.1.26,0v.37c0,.07,0,.1-.11.11l-.78.11-1.41.2-1.2.16-1.23.17-.47.07c-.12,0-.14,0-.15-.12s0-.27,0-.4A.09.09,0,0,1,493.8,508.62ZM493.54,494v-.16l.16,0L500,496l4.75,1.6.1,0a.12.12,0,0,1,.09.12v.52l-.16,0-9.51-2.86-1.56-.48c-.14,0-.14,0-.14-.19Zm11-5.88a.25.25,0,0,1,0,.08c0,.79,0,1.57,0,2.35,0,.57,0,1.14,0,1.71a.24.24,0,0,0,.12.23.2.2,0,0,1,.12.2c0,.83,0,1.66,0,2.5v0l-.1,0a.16.16,0,0,1-.12-.18c0-1,0-2-.07-3s0-2-.06-3c0-.24,0-.49,0-.73v-.16Zm-.44-.32a.22.22,0,0,1,.16.23c0,.84,0,1.67,0,2.5s0,1.76,0,2.63c0,.55,0,1.1,0,1.65V495c-.18,0-.2-.05-.2-.2,0-1.26,0-2.51,0-3.76,0-1,0-2,0-3ZM503,487c.15.05.17.06.17.21v1.11c0,.1,0,.19.11.23s.06.08.06.14v.82c0,.14,0,.15.18.19,0-.46,0-.92,0-1.37V487a1.27,1.27,0,0,1,.38.22.27.27,0,0,1,0,.13v2.44l0,4.88v.18a.27.27,0,0,0-.31,0s-.09,0-.13,0-.26-.13-.4-.18a.19.19,0,0,1-.12-.2v-1.62c0-1.64,0-3.28,0-4.93,0-.21,0-.42,0-.63Zm-.9,7.05v-1.16c0-1.25,0-2.51,0-3.77,0-.63,0-1.26,0-1.89a.3.3,0,0,1,.14-.27l.35-.23.08,0a1,1,0,0,1,0,.17l0,5.52v2l-.56-.25C502.13,494.16,502.14,494.12,502.14,494.07Zm-.8-6.41c0,.06,0,.11,0,.16,0,1.42,0,2.84,0,4.26,0,.27,0,.55,0,.83s0,.2.18.24.09,0,.09-.07,0-.22,0-.33c0-.81,0-1.62,0-2.44s0-1.82,0-2.74c0-.06,0-.12.1-.15v5.95l-.45-.23s0-.08-.05-.12v-.57c0-1.16,0-2.33,0-3.49,0-.36,0-.72,0-1.08A.2.2,0,0,1,501.34,487.66Zm-.67.46h0v.17c0,1.13,0,2.27,0,3.4,0,.05,0,.11,0,.16a.19.19,0,0,0,.1.2.14.14,0,0,1,.05.1c0,.26,0,.52,0,.79l-.13,0a.15.15,0,0,1-.1-.16v-.87c0-1.2,0-2.4,0-3.59C500.65,488.23,500.63,488.17,500.67,488.12Zm-.42.33a.2.2,0,0,1,0-.08h0c0,1.39.05,2.77.07,4.15-.08,0-.08,0-.08-.08s0-.33,0-.5l-.06-3.27A1.77,1.77,0,0,1,500.25,488.45Zm-.8.54c.18-.12.34-.26.55-.41,0,1.33,0,2.62,0,3.94l-.12,0-.47-.25a.16.16,0,0,1-.12-.18,2.43,2.43,0,0,0,0-.27c0-.82,0-1.64,0-2.47A.33.33,0,0,1,499.45,489Zm-.67,4.72c0-.3,0-.59,0-.92l.14.06,2.48,1.16a.19.19,0,0,1,.13.22c0,.1,0,.2,0,.3s0,.12.1.15l.58.25,1.63.68.17.06.09-.15.56.25a.14.14,0,0,1,.05.1c0,.12,0,.23,0,.37l-.2-.07L498.94,494C498.75,493.88,498.78,493.92,498.78,493.71Zm2,1.49,3.91,1.49.1,0c.1,0,.1,0,.08.2l-.12,0-7.07-2.57c-1.36-.49-2.71-1-4.06-1.5l-.08,0a.11.11,0,0,1-.09-.13v-.27l.17.06Zm-7.38-4.36.14.05,1.49.63a.18.18,0,0,1,.13.19c0,.23,0,.19.19.28l2.94,1.17c.16.06.16.06.14.24s0,.22,0,.34l-.17-.05-2.68-1.06-2-.79c-.14-.06-.14-.06-.15-.21s0-.42,0-.63A.84.84,0,0,1,493.42,490.84Zm-2.65,2,.92-.79,1.15-1,.15-.12a.31.31,0,0,1,0,.08c0,.21,0,.41,0,.62a.19.19,0,0,1-.08.17l-2.19,1.76s0,0-.08.05V493C490.67,492.91,490.72,492.88,490.77,492.84Zm-3.41,3a.23.23,0,0,1,.09-.11c.17-.16.35-.31.53-.46l.53-.45a.16.16,0,0,0,.07-.16,2.81,2.81,0,0,1,0-.29.14.14,0,0,1,.05-.11l1.3-1.09.06,0c0,.34,0,.66,0,1,0,.08,0,.11-.08.15l-.61.49-1.9,1.53-.07,0Zm0,1,1.73-1.32,3.4-2.6.48-.37a.23.23,0,0,1-.07.3q-2,1.46-3.94,2.93l-1.46,1.08-.17.12A.1.1,0,0,1,487.4,496.77Zm0,1.21a.13.13,0,0,1,.06-.09l5.47-3.78.15-.1c0,.15,0,.27,0,.4s0,.23,0,.35a.2.2,0,0,1-.11.2l-1.37.85-4,2.48-.22.13C487.36,498.26,487.35,498.12,487.36,498Zm0,1.33a2.67,2.67,0,0,1,.07-.47.79.79,0,0,1,.13-.28.28.28,0,0,1,.28-.14.28.28,0,0,1,.2.22c0,.05,0,.1,0,.15a.56.56,0,0,0,0,.12c.09,0,.09-.08.09-.14a1.22,1.22,0,0,1,.08-.47.92.92,0,0,1,.19-.25.21.21,0,0,1,.34.06,1.6,1.6,0,0,1,.1.23.74.74,0,0,0,0,.14c.11,0,.1-.1.11-.16s0-.23,0-.34a.7.7,0,0,1,.23-.43.3.3,0,0,1,.52.1c0,.06,0,.14.06.2s0,.09.08.09.06-.05.06-.1,0-.28.07-.42a1,1,0,0,1,.24-.5.35.35,0,0,1,.63.12,1.66,1.66,0,0,0,.06.21.14.14,0,0,0,.08.09c.06,0,.09,0,.09-.09a1.36,1.36,0,0,0,0-.2,1.11,1.11,0,0,1,.25-.76.75.75,0,0,1,.26-.21.32.32,0,0,1,.42.1,1.3,1.3,0,0,1,.14.29s0,.1.05.12.09.17.09.27v.33a1.56,1.56,0,0,0-.13-.13.32.32,0,0,0-.47,0,.77.77,0,0,0-.2.54c0,.38,0,.76,0,1.14,0,.11,0,.19.15.22s.09.06.09.13l0,2.56c0,.13,0,.13-.13.17s-.15,0-.15.2,0,.13,0,.2h.14l.86-.19c.13,0,.13,0,.13-.16v-.25l-.16,0v-.28l0-5.44a.55.55,0,0,1,.15-.41.28.28,0,0,1,.09-.07c.15-.07.24,0,.24.15,0,1,0,1.94,0,2.92,0,1.61,0,3.22.05,4.83a.37.37,0,0,1,0,.15s0,.05-.06.07,0,0,0-.05-.07-.1-.14-.09l-.28,0c-.08,0-.16,0-.15.14s0,.06-.05.06l-.62.07-.05-.17-.55.07c-.11,0-.06.11-.09.18l-.52.07a.08.08,0,0,1-.09-.08.78.78,0,0,1,0-.09l-.46.05c-.06,0-.06.05-.06.09s0,.11-.11.12l-.27,0c-.11,0-.11,0-.13-.11s0,0,0-.05l-.44,0a.14.14,0,0,0-.06.07.49.49,0,0,0,0,.13l-.43,0,0-.17-.47.05s-.05,0-.06.07a.41.41,0,0,0,0,.12l-.55.07c0-.06,0-.1,0-.15Zm0,5.36v-.07c0-.12,0-.13.13-.14l.77-.07,1.2-.1.8-.07,1.22-.11,1.17-.11.4,0c.12,0,.12,0,.12.11v.74a2.11,2.11,0,0,1-.33,0h-2.68c-.07,0-.11,0-.11.1s0,.07.11.07h2.9c.07,0,.11,0,.11.09s0,.09-.1.09h-.45l-4.87,0h-.1c-.07,0-.09.05-.09.1s0,.08.07.09h.11c0,.14,0,.26,0,.39s0,.15.13.16a.09.09,0,0,1,.09.11c0,.27,0,.54,0,.81,0,.12,0,.12-.16.14l0,.05c0,.15,0,.16.13.18l.42,0v-1.86l0,0c.2,0,.2,0,.21.19s0,.21,0,.31,0,.12.09.13.08.06.08.12c0,.28,0,.55,0,.83,0,.05,0,.11-.07.12s0,.06-.05.09a.65.65,0,0,0,0,.14,1.77,1.77,0,0,0,.52.07c0-.66,0-1.32,0-2,0,0,0,0,.05,0,.28,0,.24,0,.25.23v.14c0,.11,0,.12.12.15a.09.09,0,0,1,.09.11c0,.37,0,.75,0,1.12,0,.05,0,.09-.07.09s-.07,0-.06.09,0,.14.06.15l.47.07v-.22c0-.59,0-1.17,0-1.76a.28.28,0,0,1,0-.09s0-.06.06-.06h.33c.06,0,.07,0,.07.09s0,.22,0,.33,0,.12.11.13.14,0,.14.14c0,.36,0,.73,0,1.09,0,.06,0,.12,0,.18l-.14,0,0,0c0,.19,0,.19.18.22s.27,0,.43.06v-.26c0-.6,0-1.21,0-1.81,0-.05,0-.09,0-.14s0-.08.08-.08h.4c.08,0,.1,0,.1.11s0,.27,0,.4,0,.13.13.15.07.08.07.13c0,.41,0,.81,0,1.22a.49.49,0,0,1,0,.11h-.22s0,.05,0,.07c0,.19,0,.19.18.21l.53.08h.13a.07.07,0,0,0,.09-.08s0-.07,0-.1c0-.5,0-1,0-1.49,0-.23,0-.45,0-.68s0-.12.12-.12c.32,0,.27,0,.27.26v2.46l-.46-.06-1.52-.23-1.61-.26-1.58-.25-.55-.09c-.06,0-.1,0-.1-.1v-.12C487.34,506.29,487.35,505.48,487.35,504.67Zm.08,3,.89.15,1.69.28,1.7.28,1.31.23c.14,0,.14,0,.14.17v.12h0l0,.26-.24,0-3.48-.67-1.9-.37-.09,0c-.06,0-.08,0-.09-.1v-.22C487.34,507.65,487.37,507.64,487.43,507.65Zm-.41-2.93-.51,0-1.55.13a.11.11,0,0,0-.08,0,.08.08,0,0,0,0,.07s0,0,.05.06H485l.81-.05L487,505l.11,0v2.6l-.43-.07-2.33-.45c-.15,0-.15,0-.15-.16,0-.64,0-1.28,0-1.91,0,0,0-.08,0-.13l.49-.06,1.88-.19.44-.05c.05,0,.11,0,.12.06S487.11,504.71,487,504.72Zm-2.84-.29c0-.59,0-1.19,0-1.79,0-.12,0-.12.11-.16l2.68-.93.15,0v2.69h0s0-.07,0-.11V502.2c0-.05,0-.12-.08-.12a.12.12,0,0,0-.13.13c0,.59,0,1.18,0,1.77,0,.07,0,.15,0,.22s0,0-.05.06c0-.43,0-.85,0-1.27-.18,0-.19,0-.19.13,0,.34,0,.67,0,1v.1s0,.07-.07.07-.05,0-.06-.07,0-.33,0-.49c0-.45,0-.89,0-1.34a.57.57,0,0,0,0-.13c-.17,0-.18,0-.18.16v1.78c0,.13,0,.13-.12.15l-.32,0c-.06,0-.09,0-.09-.08v-.07c0-.54,0-1.08,0-1.62v-.16c-.18,0-.18,0-.18.15,0,.57,0,1.14,0,1.71,0,.11,0,.14-.13.12a.09.09,0,0,1-.07-.05,1.09,1.09,0,0,1,0-.18c0-.48,0-1,0-1.44a.49.49,0,0,0,0-.12s0-.09-.05-.09-.11,0-.12.09v.12c0,.53,0,1.06,0,1.58,0,.12,0,.12-.13.15a.62.62,0,0,1,0-.13l0-1.53a.28.28,0,0,0,0-.09s0-.09-.06-.09a.11.11,0,0,0-.12.1v.39c0,.4,0,.79,0,1.19a.76.76,0,0,1,0,.15l-.05,0s-.05,0-.05,0a.37.37,0,0,1,0-.11v-1.54s0-.09-.07-.09-.11,0-.12.09v1.59a.76.76,0,0,1,0,.14l-.19,0Zm2.92-6V501a.71.71,0,0,1,0,.14h0a1,1,0,0,1,0-.17c0-.37,0-.75,0-1.12v-.12s0-.11-.06-.1a.11.11,0,0,0-.12.09v1.4c0,.11,0,.14-.15.14v-1.48c-.2,0-.21,0-.21.2,0,.42,0,.84,0,1.26,0,.13,0,.13-.16.16l0-1.43c-.18,0-.19,0-.19.19,0,.41,0,.81,0,1.21,0,.14,0,.13-.11.18l-.43.16,0-1.39c-.16,0-.19,0-.19.16,0,.39,0,.77,0,1.16,0,.16,0,.17-.2.19l-.05-1.32c-.17,0-.18,0-.18.18,0,.38,0,.75,0,1.13,0,.11,0,.11-.13.13,0-.22,0-.45,0-.67s0-.33,0-.49,0-.11-.07-.12a.14.14,0,0,0-.12.12V502c0,.07,0,.14-.1.13l0-1.26c-.18,0-.19,0-.19.19,0,.35,0,.7,0,1,0,.12,0,.12-.14.15s0-.06,0-.1c0-.62,0-1.25,0-1.87a.26.26,0,0,1,.12-.25c.73-.49,1.46-1,2.18-1.5l.48-.33.15-.1C487.08,498.21,487.1,498.31,487.1,498.41Zm-.19-.75.12-.07a.17.17,0,0,1-.08.25l-2.46,1.72-.34.24c0-.08,0-.11,0-.14l.5-.37Zm-2.82,16.23a.41.41,0,0,1-.24.11,1.63,1.63,0,0,1-.76,0,.71.71,0,0,1-.47-.63,2.38,2.38,0,0,1,.1-.65.73.73,0,0,1,.43-.43,2.25,2.25,0,0,1,.48-.06l-.3.4h.16a2,2,0,0,0,.35,0,.24.24,0,0,1,.23.14c-.17-.11-.32,0-.47,0s-.27.13-.39.21a.11.11,0,0,0,.12.08,1.53,1.53,0,0,1,.67.15A.42.42,0,0,1,484.09,513.89Zm5,.25H489a7.83,7.83,0,0,0-.78-.25,2,2,0,0,0-.69,0,1.58,1.58,0,0,0-.66.23h0a.27.27,0,0,1-.14-.23.66.66,0,0,1,.39-.75l.19-.08c.09,0,.11-.07.06-.16a1,1,0,0,0-.28-.3l-.26-.22a.84.84,0,0,1,.37.09l.46.23a3.45,3.45,0,0,1,1,.79,2.09,2.09,0,0,1,.2.22c.09.13.17.27.25.4A.09.09,0,0,1,489.09,514.14Zm5.86,2.64h-.2a1.49,1.49,0,0,1-.42-.08,3.21,3.21,0,0,0-.53-.15,2,2,0,0,0-1.63.12,1.08,1.08,0,0,0-.51.75c0,.07,0,.15,0,.24a.48.48,0,0,1-.16-.09,1.4,1.4,0,0,1-.3-.39c-.06-.14-.12-.28-.17-.42s-.09-.19-.25-.18a1.14,1.14,0,0,0-.25.06,1.2,1.2,0,0,0-.36.13c-.1.07-.2,0-.19-.15a1.25,1.25,0,0,1,.25-.55,1,1,0,0,1,.41-.34,1.52,1.52,0,0,1,.87-.12l.78.18h.09s0-.08,0-.1-.15-.19-.23-.29-.24-.28-.35-.43-.18-.31-.26-.46a.22.22,0,0,0-.17-.11.83.83,0,0,1-.75-.51c0-.12-.09-.25-.14-.37a.56.56,0,0,0-.15-.27l-.21-.25s0-.08,0-.09a.13.13,0,0,1,.1,0l.45,0c.14,0,.14,0,.15-.12a1.78,1.78,0,0,0-.16-.68.84.84,0,0,0-.19-.24c-.08-.09-.15-.19-.29-.19a.07.07,0,0,1,0-.05.1.1,0,0,1,0-.07l.07,0a.66.66,0,0,1,.43.1s.1,0,.14.08a1.36,1.36,0,0,1,.39.53l.09.21a.16.16,0,0,0,.16-.11,1.28,1.28,0,0,1,.29-.41s.09-.05.16-.09c0,.12,0,.22,0,.32a1.46,1.46,0,0,0,0,.22.78.78,0,0,0,0,.16.75.75,0,0,0,0,.16c.09.23.2.46.27.7a.55.55,0,0,1-.13.51.45.45,0,0,1-.14.1c-.12.06-.15.1-.12.23a1.76,1.76,0,0,0,.22.55,2.08,2.08,0,0,0,.57.61,2.27,2.27,0,0,0,.79.36c.08,0,.1,0,.1-.08a.17.17,0,0,0,0-.07,1.17,1.17,0,0,1,.34-1.16l.22-.22a.71.71,0,0,0,.21-.39,1.39,1.39,0,0,1,.06-.13.45.45,0,0,1,.17.74c0,.06-.1.11-.1.2l.21.09a1.09,1.09,0,0,1,.5.34.35.35,0,0,1,0,.11s-.07,0-.1,0-.11-.05-.17,0a1.21,1.21,0,0,0-.78.27.51.51,0,0,0-.07.67,1.17,1.17,0,0,0,.59.46l.47.18S495,516.78,495,516.78Zm.41-.68c-.14,0-.37,0-.48-.12a.14.14,0,0,1,0-.09c0-.09.19-.1.3-.08s.21.15.29.26Zm2.71,2.64a.19.19,0,0,1-.05-.09c0-.11,0-.29.08-.36,0,.1.09.18.1.28a.25.25,0,0,1,0,.12A.09.09,0,0,1,498.07,518.74Zm.61-3.93-.66-.07a.55.55,0,0,0-.18,0,.93.93,0,0,1-.41,0c-.11,0-.24,0-.36-.06a.69.69,0,0,1-.43-.33,1.07,1.07,0,0,1-.2-.51l-.06-.49a3.81,3.81,0,0,0-.29-1c-.06-.12-.13-.23-.21-.37a1,1,0,0,1,.62-.06l.26.05a1,1,0,0,1,.36.17s.05.05.08.06.13,0,.18,0l.07-.12a1.88,1.88,0,0,1,.31-.43.29.29,0,0,1,.43,0,1.89,1.89,0,0,1,.2.2l.31.42c.06.09.09.09.19,0l.27-.15a1.16,1.16,0,0,1,.71-.12.82.82,0,0,1,.22,0c.1,0,.12,0,.07.12a2.58,2.58,0,0,0-.26.59,1.89,1.89,0,0,0-.09.34c0,.07,0,.15-.05.22s0,.06,0,.08a3,3,0,0,1-.15.9.77.77,0,0,1-.45.45l-.29.1A.55.55,0,0,1,498.68,514.81Zm2.07,1.34c.06-.2.21-.23.4-.23a.17.17,0,0,1,.1,0c.13.08-.11.15-.16.16Zm5.52.64-.56-.17a3,3,0,0,0-.32-.06c-.09,0-.14,0-.18.12l-.09.28a1.2,1.2,0,0,1-.41.6c-.08.06-.13,0-.13,0a.65.65,0,0,0-.06-.24,1.07,1.07,0,0,0-.63-.67,2,2,0,0,0-.89-.13,1.92,1.92,0,0,0-.67.11,1.7,1.7,0,0,1-.22,0l-.43.13-.38.07c-.08,0-.09,0-.17-.06s.09-.07.15-.08a1.08,1.08,0,0,0,.64-.31,1.56,1.56,0,0,0,.23-.28.49.49,0,0,0-.14-.65c-.06,0-.12-.1-.19-.14l-.18-.06h0c-.11,0-.21,0-.31,0a1.43,1.43,0,0,0-.32.07.3.3,0,0,1,.13-.26,3.3,3.3,0,0,1,.41-.23l0,0c.15-.07.15-.09.06-.23a.71.71,0,0,1-.14-.29.33.33,0,0,1,0-.28c.06-.08.13-.15.21-.24a1.38,1.38,0,0,0,.06.16,1.45,1.45,0,0,0,.35.52,4.12,4.12,0,0,1,.35.37,1.08,1.08,0,0,1,.17.72,2.64,2.64,0,0,0,0,.28c.11.07.19,0,.27,0a2.83,2.83,0,0,0,.43-.2,2.18,2.18,0,0,0,.49-.42,2.45,2.45,0,0,0,.26-.37,1.43,1.43,0,0,0,.18-.47c0-.16,0-.21-.15-.28a.45.45,0,0,1-.27-.34.89.89,0,0,1,.11-.53,2.54,2.54,0,0,0,.21-.66c0-.15,0-.3,0-.45s0-.09,0-.11a.11.11,0,0,1,.13,0l.29.36c0,.06.07.14.16.18a1,1,0,0,0,.14-.31.84.84,0,0,1,.44-.5l.13-.07c.15-.12.3-.06.49,0-.07.05-.1.09-.15.12a1.27,1.27,0,0,0-.41.42.14.14,0,0,0,0,.09.9.9,0,0,1-.06.22.83.83,0,0,0-.05.35c0,.12,0,.14.14.13l.39,0h.06s.11,0,.12.06,0,.08-.05.11a1.62,1.62,0,0,0-.31.54,1.29,1.29,0,0,1-.28.59.36.36,0,0,1-.12.08,1.75,1.75,0,0,1-.32.12c-.08,0-.18,0-.24.06s-.07.14-.11.22l-.25.42-.09.12-.36.41-.13.18a1,1,0,0,0,.37-.06,3.48,3.48,0,0,1,.72-.11,1.93,1.93,0,0,1,.34,0,1.29,1.29,0,0,1,.35.1,1.36,1.36,0,0,1,.72,1A.08.08,0,0,1,506.27,516.79Zm3.14-3.07a.78.78,0,0,1-.07.25c0,.13-.19,0-.25,0a1,1,0,0,0-.64-.14,2.87,2.87,0,0,0-1.08.2l-.15,0-.2.06a2.86,2.86,0,0,1,.44-.65l.16-.18.32-.28a3.09,3.09,0,0,1,.68-.45l.44-.19h.07s0,.06,0,.08l-.23.21a1.07,1.07,0,0,0-.15.22s0,.1.08.13l.18.07a.79.79,0,0,1,.34.29A.52.52,0,0,1,509.41,513.72Zm3.83,0a.7.7,0,0,1-.52.17h0a1,1,0,0,1-.63-.14.37.37,0,0,1-.11-.5.67.67,0,0,1,.39-.26,2.26,2.26,0,0,1,.53-.08l.1,0a.47.47,0,0,0-.39-.25h-.08l-.06-.06s.05-.05.07-.05l.18,0h.07c0-.2-.16-.22-.22-.35a.68.68,0,0,1,.78.34,2,2,0,0,1,.16.67A.6.6,0,0,1,513.24,513.73Zm5.19-10.49a1.17,1.17,0,0,1-.5.51,1,1,0,0,1-.37.13l-.44.11-.43.09a.43.43,0,0,0-.33.43,1.06,1.06,0,0,0,.06.53.24.24,0,0,0,.09.13.43.43,0,0,0,.66-.08,1.17,1.17,0,0,0,.16-.34.29.29,0,0,1,.26-.17c.06,0,.08.05.07.11s-.06.26-.1.38c-.08.28-.32.4-.54.55,0,0-.09,0-.14,0a1,1,0,0,1-.54-.07.58.58,0,0,1-.36-.27l0,0a1,1,0,0,1-.22-.65.88.88,0,0,1,.22-.71,1.09,1.09,0,0,1,.62-.38,5.38,5.38,0,0,1,.69-.07,4.34,4.34,0,0,0,.52-.07A.3.3,0,0,0,518,503l0-.14a.53.53,0,0,0-.48-.34,1.35,1.35,0,0,0-.53.1c-.14.06-.3.08-.44.13a1.18,1.18,0,0,0-.18.13,1.38,1.38,0,0,0-.36.4,2.67,2.67,0,0,1-.31.36,1.41,1.41,0,0,1-1.12.47,1.39,1.39,0,0,1-.53-.1.76.76,0,0,1-.5-.54c0-.05,0-.1,0-.16a1,1,0,0,1,.06-.56.7.7,0,0,1,.2-.33.84.84,0,0,1,.49-.24,1.3,1.3,0,0,1,.82.12.38.38,0,0,0,.15.05c.15,0,.19,0,.27-.1a.26.26,0,0,0,0-.28c-.07-.09-.1-.22-.21-.26s-.25-.22-.43-.23a1.84,1.84,0,0,0-.73-.16.44.44,0,0,0-.16,0,2.37,2.37,0,0,0-.8.22c-.18.11-.33.24-.5.36a.65.65,0,0,0-.19.18.26.26,0,0,0,0,.17l.12.65a6,6,0,0,1,.09,1.59c0,.22-.07.44-.11.66,0,.05,0,.1,0,.16a1.47,1.47,0,0,0,.4.1c.4.07.81.13,1.21.23a4.29,4.29,0,0,1,.85.3,1.23,1.23,0,0,1,.6.63l0,.06a.11.11,0,0,1-.19.11,1.44,1.44,0,0,0-.64-.35.26.26,0,0,0-.15,0,.24.24,0,0,0-.1.1c0,.05,0,.08.08.11l.21.16c.08.07.15.15.25.25-.07,0-.12,0-.15,0a1.21,1.21,0,0,0-.35-.12.18.18,0,0,0-.13,0,.17.17,0,0,0,0,.14.62.62,0,0,0,.14.14l.25.23s0,.05,0,.09l-.27-.07a.47.47,0,0,0-.33,0s0,0,0,.05a.35.35,0,0,0,.06.14l.25.32a2.34,2.34,0,0,0-.32-.07.65.65,0,0,0-.24,0c-.13,0-.14.12,0,.2s.23.17.35.25.14.13.1.22l-.46-.06a.13.13,0,0,0-.09.25l.27.21.1.09a.3.3,0,0,1-.21,0l-.25,0c-.09,0-.12.05-.08.13a.46.46,0,0,0,.15.16,1.68,1.68,0,0,1,.4.35.13.13,0,0,1,0,.16,1.8,1.8,0,0,0-.84-.23s-.1,0-.16.06a.69.69,0,0,0,.25.28c.11.09.23.17.34.27a2.19,2.19,0,0,1,.2.22.16.16,0,0,1-.17,0l-.32-.12-.18,0c-.06,0-.14,0-.17.05a.18.18,0,0,0,.07.17c.06.07.14.12.2.18a1.44,1.44,0,0,1,.36.44l-.2-.07a1,1,0,0,0-.57-.12c-.11,0-.14.07-.07.16l.23.27.25.26,0,0s0,.08,0,.13-.09,0-.11,0a1.9,1.9,0,0,0-.48-.27l-.62-.28a1.1,1.1,0,0,0-.26-.06,3,3,0,0,0-1.15-.05c-.19,0-.38.1-.58.12a3.61,3.61,0,0,0-.71.21,4.52,4.52,0,0,0-.84.38l-.61.36c-.17.11-.32.24-.49.34a4.36,4.36,0,0,0-.55.41c-.15.12-.28.25-.42.37l-.33.27a.73.73,0,0,0-.05.09l-.13.16c0-.06,0-.08,0-.09l.21-.37,0,0a.65.65,0,0,1,.42-.39c.13-.06.14-.12,0-.23a1.16,1.16,0,0,0-.6-.31l-.06,0c-.17,0-.18-.09-.11-.23a.35.35,0,0,1,.46-.13l.17.09c.07,0,.1,0,.1,0a1,1,0,0,0-.11-.52c0-.1-.1-.18-.15-.28a.58.58,0,0,0-.39-.29l-.33-.08a.5.5,0,0,0-.27,0l-.27.07a3.17,3.17,0,0,0-.36.13,1.17,1.17,0,0,1-.05-.11c-.07-.2-.12-.4-.19-.6a1.51,1.51,0,0,0-.1-.17l-.05-.06c0-.18-.2-.26-.33-.36a.6.6,0,0,0-.5-.14h-.09a.66.66,0,0,0-.55.93.51.51,0,0,0,.19.29.58.58,0,0,0,.62-.1l.12-.12c.08-.07.08-.07.17,0a.61.61,0,0,1,.27.56c0,.11,0,.12-.13.11l-.65-.05a.41.41,0,0,0-.16,0,.19.19,0,0,0-.13.26,1.14,1.14,0,0,1,0,.66c-.09.34-.18.67-.29,1a.89.89,0,0,0,.1.73,2.9,2.9,0,0,0,.25.36.15.15,0,0,1,0,.2,1,1,0,0,0-.1.18.23.23,0,0,1-.23.16,2,2,0,0,0-.08-.33,1.4,1.4,0,0,0-.48-.76l-.18-.16a.34.34,0,0,1-.1-.27c0-.13.1-.19.11-.32a.19.19,0,0,0,0-.08s0,0-.07,0a.92.92,0,0,0-.61,0,2.92,2.92,0,0,0-.5.25,1.16,1.16,0,0,0-.52.8,2.17,2.17,0,0,0,0,.36.15.15,0,0,1-.08.14,2,2,0,0,0-.31.27.67.67,0,0,0-.1.28,1.6,1.6,0,0,0,.1.84c0,.05.07.09.09.14s.05.09,0,.1a.2.2,0,0,1-.13.06l-.35-.05a1.76,1.76,0,0,1-.5-.18.62.62,0,0,0-.46-.09c-.07,0-.11,0-.11-.09s0-.24,0-.36.06-.09.11-.11a3.56,3.56,0,0,0,.52-.18,1,1,0,0,0,.51-.48,2.49,2.49,0,0,0,.3-1.07,2.33,2.33,0,0,1,.12-.69,1.41,1.41,0,0,1,.47-.66l.32-.25c0-.18-.19-.24-.31-.32a2.2,2.2,0,0,0-1.66-.26c-.16,0-.32.22-.45,0a3.45,3.45,0,0,0-.52-.56,1.87,1.87,0,0,0-.29-.2.14.14,0,0,0-.17,0,4.19,4.19,0,0,0-.33.26,3,3,0,0,0-.22.28l-.05.07c-.17.19-.23.2-.45.08a.55.55,0,0,0-.17-.05c-.2,0-.41,0-.61,0a1.35,1.35,0,0,0-.35.06,1.9,1.9,0,0,0-.9.54s0,0,0,.05l.13.09a1.87,1.87,0,0,1,.46.38,1.75,1.75,0,0,1,.26.46,3.28,3.28,0,0,1,.13.75,3.52,3.52,0,0,0,.2.79,1.35,1.35,0,0,0,.4.52,1.62,1.62,0,0,0,.72.32c.11,0,.14.05.14.16a1.62,1.62,0,0,0,0,.2c0,.13,0,.19-.13.19a1.09,1.09,0,0,0-.56.18,1.53,1.53,0,0,1-.42.11l-.34,0a1.49,1.49,0,0,1-.19,0,.84.84,0,0,0,.26-.41,1.37,1.37,0,0,0,0-.85.83.83,0,0,0-.35-.42.18.18,0,0,1-.09-.18,1.34,1.34,0,0,0-.4-1,2.31,2.31,0,0,0-.45-.29,1.26,1.26,0,0,0-.83-.13c-.33.06-.13.14,0,.34a.29.29,0,0,1,0,.37.52.52,0,0,1-.11.1,2,2,0,0,0-.42.46s0,.05,0,.08a2.83,2.83,0,0,0-.14.52s0,.09-.05.09-.08,0-.12,0a.89.89,0,0,1-.21-.33s0-.07,0-.1.14-.24.22-.36a.88.88,0,0,0,.11-.83c-.08-.24-.16-.47-.23-.71a1.59,1.59,0,0,1-.06-.89c0-.17,0-.22-.19-.27a1.84,1.84,0,0,0-.62,0l-.12.05c-.13.05-.18,0-.18-.12a.7.7,0,0,1,.36-.61l.37.25a.43.43,0,0,0,.61-.14.8.8,0,0,0,.07-.55,1.17,1.17,0,0,0-.05-.2.2.2,0,0,0,0-.08.77.77,0,0,0-.42-.26.92.92,0,0,0-.77.2.86.86,0,0,0-.13.14,2.19,2.19,0,0,0-.37.84,1.05,1.05,0,0,1-.05.19c0,.11-.08.13-.19.09l-.29-.12a1.16,1.16,0,0,0-.78,0,.75.75,0,0,0-.46.38,1.34,1.34,0,0,0-.19.74.06.06,0,0,1,0,0l0,0a2.68,2.68,0,0,1,.3-.12.53.53,0,0,1,.22,0,.27.27,0,0,1,.2.3.13.13,0,0,1-.09.07,1.53,1.53,0,0,0-.59.28.75.75,0,0,0-.14.17c-.05.07,0,.13,0,.14a.58.58,0,0,1,.47.34,3.47,3.47,0,0,1,.18.33l.08.13,0,0-.12-.07c-.21-.21-.42-.42-.64-.61s-.38-.31-.57-.45-.53-.39-.81-.56-.54-.27-.82-.4a1.87,1.87,0,0,0-.32-.15,1.75,1.75,0,0,0-.32-.12,3.9,3.9,0,0,0-.46-.12,2.59,2.59,0,0,0-.54-.11,8,8,0,0,0-.85,0c-.11,0-.22,0-.33,0a1.58,1.58,0,0,0-.7.21l-.24.1a.85.85,0,0,0-.31.17,2.91,2.91,0,0,1-.43.28.54.54,0,0,1,.14-.27l.44-.51.05,0c.06-.09.05-.11-.05-.14a.33.33,0,0,0-.22,0l-.44.11-.19.08,0-.07a2.31,2.31,0,0,1,.54-.54l.06,0a.12.12,0,0,0-.07-.19.83.83,0,0,0-.44.08l-.38.16c0-.07.05-.11.08-.15s.24-.25.37-.36a3.69,3.69,0,0,1,.34-.25.24.24,0,0,0,0-.1.14.14,0,0,0-.08-.07.18.18,0,0,0-.1,0,1.22,1.22,0,0,0-.65.18s-.05,0-.08,0h-.08a.26.26,0,0,1,0-.08,1.06,1.06,0,0,1,.42-.42l.06,0c0-.06.11-.11.08-.18s-.1-.06-.17-.07-.21.07-.32.09-.05,0-.09,0a.09.09,0,0,1,0-.11l.14-.11.14-.1a.54.54,0,0,0,.12-.09c.07-.08,0-.19-.06-.2a.52.52,0,0,0-.25,0,3.4,3.4,0,0,0-.34.12l-.11,0a.56.56,0,0,1,0-.1l.31-.28c.1-.08.26-.14.33-.24a.09.09,0,0,0-.05-.15.63.63,0,0,0-.43,0l-.22.1a.56.56,0,0,1,.17-.22c.06-.07.13-.13.18-.2s0-.19-.11-.18l-.48,0a.47.47,0,0,1,.2-.24,1.71,1.71,0,0,0,.2-.18c.08-.08.05-.17-.06-.18a1.7,1.7,0,0,0-.22,0l-.27.07,0,0,.36-.29s.06,0,.08-.07,0-.16-.06-.16a.87.87,0,0,0-.42.07c-.14.09-.28.18-.43.26s0,0-.07,0a.14.14,0,0,1,0-.17,1.18,1.18,0,0,1,.74-.71,5.76,5.76,0,0,1,1.22-.38l1-.18c.13,0,.12,0,.09-.15a6.49,6.49,0,0,1-.16-.86,5.9,5.9,0,0,1,0-1,9.5,9.5,0,0,1,.15-1.07.18.18,0,0,0-.05-.16,2,2,0,0,0-.85-.6,2,2,0,0,0-.83-.15,2.15,2.15,0,0,0-1,.32.64.64,0,0,0-.29.39.34.34,0,0,0,0,.2.14.14,0,0,0,.21.1,1.17,1.17,0,0,0,.26-.1,1.18,1.18,0,0,1,.8-.1,1,1,0,0,1,.74.89.92.92,0,0,1-.63,1,1.87,1.87,0,0,1-.78.1,1.06,1.06,0,0,1-.56-.25,3.08,3.08,0,0,1-.59-.55,4.15,4.15,0,0,0-.27-.32,1.37,1.37,0,0,0-.81-.36,2.9,2.9,0,0,1-.41-.06.42.42,0,0,0-.41.17.49.49,0,0,0-.1.34.3.3,0,0,0,.29.32q.42,0,.84.06a1.25,1.25,0,0,1,1,.53,1,1,0,0,1,.14.81c0,.07,0,.13-.05.2a1,1,0,0,1-.31.46,1.77,1.77,0,0,1-.31.15l-.15,0a.85.85,0,0,1-1-.45c0-.05-.05-.09-.07-.13s-.07-.18,0-.44h.06c.2,0,.21,0,.27.19a.68.68,0,0,0,.25.39.43.43,0,0,0,.45,0,.36.36,0,0,0,.23-.33,1.64,1.64,0,0,0,0-.23.49.49,0,0,0-.41-.56l-.26-.06c-.26-.06-.53-.12-.79-.2a1.08,1.08,0,0,1-.62-.47.68.68,0,0,1,.24-.93,4.52,4.52,0,0,1,.85-.36l.17-.07c.06,0,.06-.08,0-.12l-.32-.14a1.79,1.79,0,0,0-.3-.09,1.29,1.29,0,0,1,.41-.25l.27-.08s.1,0,.1-.08,0-.08-.06-.1l-.32-.16-.18-.07a1.52,1.52,0,0,1,.43-.3c.05,0,.14-.06.15-.1s-.09-.1-.15-.12a3.68,3.68,0,0,0-.35-.15,1,1,0,0,1,.31-.24,4.13,4.13,0,0,1,.37-.2,1.48,1.48,0,0,0-.55-.3,1.35,1.35,0,0,1,.57-.45,1.21,1.21,0,0,0-.69-.14v0l.11-.11.45-.24.16-.09a1.38,1.38,0,0,0-.68-.27.44.44,0,0,1,.23-.2l.31-.1.11,0c0-.09-.05-.12-.11-.15a.78.78,0,0,0-.37-.09h-.29c0-.07,0-.09.08-.1a.86.86,0,0,1,.72-.06l.14.06a.31.31,0,0,1,.2.24,6.49,6.49,0,0,1,.2,1.45c0,.17,0,.35,0,.52a11.69,11.69,0,0,1-.16,2c0,.19-.05.39-.07.59a.76.76,0,0,0,.19.57.9.9,0,0,0,.92.33l.37,0s.07,0,.09,0a.14.14,0,0,1,.07.06s0,.06-.06.07a.61.61,0,0,1-.13,0c-.08,0-.1.05-.06.12a.49.49,0,0,0,.42.27.69.69,0,0,0,.7-.41.56.56,0,0,0-.36-.73,1.44,1.44,0,0,0-.77,0l-.24.06a.49.49,0,0,1-.58-.32.67.67,0,0,1,.11-.68,1.75,1.75,0,0,1,.24-.23,2.44,2.44,0,0,1,.94-.43l.19-.05a.49.49,0,0,0-.33-.17,1.36,1.36,0,0,0-.35-.07h-.37a.86.86,0,0,1,.07-.1.8.8,0,0,1,.54-.25h.27l.13,0c0-.13-.17-.15-.26-.2s-.19-.08-.3-.13a.75.75,0,0,1,.46-.21h.19a.28.28,0,0,0,.12,0s0-.08-.07-.1a2,2,0,0,0-.36-.18l-.2-.08a1.39,1.39,0,0,1,.8-.35,1.06,1.06,0,0,0-.94-.29.81.81,0,0,1,.12-.14,1.1,1.1,0,0,1,.62-.28l.13,0a.27.27,0,0,0-.2-.19.94.94,0,0,0-.41,0h-.17a.27.27,0,0,1,.14-.23.89.89,0,0,1,.44-.15h.09l.1,0s0-.09-.05-.11a.4.4,0,0,0-.17-.09.93.93,0,0,0-.44,0H481a1.85,1.85,0,0,1,.75-.55.48.48,0,0,0-.43-.15l-.45.05.06-.07a1.66,1.66,0,0,1,.55-.27,3.72,3.72,0,0,1,1.41-.11c.47,0,.95.07,1.43.13a10.53,10.53,0,0,1,1.74.43,2.25,2.25,0,0,1,.46.24c.05,0,.05.06,0,.09l-.09.08-2.6,2a.32.32,0,0,0-.13.27q0,4.32,0,8.66c0,.17,0,.2.2.22l1.39.17,1.58.19,1.56.2,1.56.19,1.58.2,1.3.16.62.1h.12l1.64-.15,1.83-.17,1.52-.13,1.84-.16L502,509l1.49-.14,1.18-.1,1.49-.14.77-.07,1.25-.11,1.17-.1,1.17-.11.79-.07.39,0c.12,0,.16-.05.19-.17a.91.91,0,0,0,0-.17q0-3.15,0-6.28a.45.45,0,0,1,.17-.39c.14-.13.14-.18,0-.34l-.81-1.35,0-.07c-.08-.11-.14-.14-.27-.09l-.54.22a.25.25,0,0,1-.17,0l-2.95-.9c-.11,0-.12-.05-.12-.16,0-.57,0-1.14,0-1.7,0-.24,0-.27.27-.27a1.44,1.44,0,0,1,.67.16l.69.29c.09,0,.17.11.26.16l.25.17a.15.15,0,0,0,.18,0c.23-.11.46-.24.7-.34a6.46,6.46,0,0,1,1.13-.36,12.32,12.32,0,0,1,1.47-.19,8.83,8.83,0,0,1,1,0,2.65,2.65,0,0,1,.55.1,1.94,1.94,0,0,1,.35.18.1.1,0,0,1-.13.06,1.32,1.32,0,0,0-.44,0l-.05,0-.1.12a.39.39,0,0,0,.1.08,1.88,1.88,0,0,1,.44.24.32.32,0,0,1,.13.23h-.3l-.31.05s-.06,0-.07.05a.14.14,0,0,0,0,.1s.06.05.09.06,0,0,.07,0a.78.78,0,0,1,.52.23.08.08,0,0,1,0,.15.14.14,0,0,1-.09,0,.55.55,0,0,0-.31,0,.31.31,0,0,0-.23.21.26.26,0,0,0,.1,0,1.89,1.89,0,0,1,.52.13s.08.07.13.1l.14.12c0,.06-.06.06-.11.05a1.61,1.61,0,0,0-.65.13l0,0c-.05.05-.14.08-.12.16s.11.06.16.06a1.27,1.27,0,0,1,.5.19c.07,0,.07.07,0,.11a.46.46,0,0,1-.15.09l-.21.07a.44.44,0,0,0-.13.14c0,.05,0,.07.07.07l.38.07a.52.52,0,0,1,.34.22h-.18a.36.36,0,0,0-.27.05.3.3,0,0,0-.09.13.07.07,0,0,0,.06.1l.19,0a1.27,1.27,0,0,1,.34,0c.11.05.26.07.32.23l-.33.05a1.32,1.32,0,0,0-.48.06.34.34,0,0,0-.18.19,2.73,2.73,0,0,1,.43.16,1.88,1.88,0,0,1,.64.34l.05.06a1.06,1.06,0,0,1,.39.58.23.23,0,0,1,0,.14,1.2,1.2,0,0,1-.18.31.27.27,0,0,1-.26.1c-.1,0-.21-.05-.31-.09a1.34,1.34,0,0,0-.84,0,.56.56,0,0,0-.22.95.76.76,0,0,0,.78.23.36.36,0,0,0,.26-.34.28.28,0,0,0-.06-.09s0,0-.07,0a.07.07,0,0,1,0,0,0,0,0,0,1,0,0h.12l.26.05a.84.84,0,0,0,.56-.11.38.38,0,0,1,.13-.06c.19,0,.26-.2.33-.34a.54.54,0,0,0,.08-.21.88.88,0,0,0,0-.28,13.75,13.75,0,0,1-.24-1.69,11.81,11.81,0,0,1,0-1.46c0-.24.05-.49.08-.73s.07-.38.1-.57a.3.3,0,0,1,.18-.24,1.08,1.08,0,0,1,.77-.08.28.28,0,0,1,.22.16.2.2,0,0,1-.2.1l-.49,0s-.12,0-.12.07a.19.19,0,0,0,.07.14l.31.14c0,.12,0,.13-.14.13h-.09c-.07,0-.13,0-.14.11a.21.21,0,0,0,.06.2l.15.08.29.14,0,0s0,.07,0,.1-.06,0-.09.05l-.27,0h-.06s-.1.05-.1.08a.28.28,0,0,0,.06.14c.05,0,.12,0,.17.09a1.18,1.18,0,0,1,.28.22c.08.08.06.12,0,.15l-.26,0c-.07,0-.13,0-.15.1a.16.16,0,0,0,.09.17c.1,0,.19.11.29.15a.76.76,0,0,1,.23.24l-.17,0-.25,0a.1.1,0,0,0-.06.17.3.3,0,0,0,.13.09,1.57,1.57,0,0,1,.37.24c.09.11.08.16,0,.19s-.2,0-.29.06a.11.11,0,0,0-.1.07.12.12,0,0,0,.06.14s.09.05.12,0a.8.8,0,0,1,.43.15.26.26,0,0,1,.1.07.83.83,0,0,1,0,.12l-.48.1a.31.31,0,0,0-.15.08c-.05,0,0,.09,0,.12l.32.11.21.07a1.79,1.79,0,0,1,.6.34A.65.65,0,0,1,518.43,503.24Zm-3.42,1.7c0,.1,0,.2,0,.3s0,.08-.1.07l-.1,0c-.22-.08-.44-.19-.66-.26s-.41-.1-.61-.15-.2-.08-.17-.25l0-.13a.86.86,0,0,1,0-.15,6.48,6.48,0,0,0,.62.27,4.91,4.91,0,0,0,.66.17.85.85,0,0,0,.22,0C515,504.82,515,504.86,515,504.94ZM481,505a.1.1,0,0,1,.09-.09,3.32,3.32,0,0,0,.44-.06,2.7,2.7,0,0,0,.66-.22,4.54,4.54,0,0,1,.43-.19,3,3,0,0,1,0,.41.1.1,0,0,1-.06.08l-.24,0-.18.06-.15.05-.71.29-.29.11A1.12,1.12,0,0,1,481,505Zm29.78-2.74v-.68c0-.13,0-.14.14-.11l.47.13c.14,0,.16.07.16.21,0,.55,0,1.1,0,1.64V504c0,.17,0,.17-.19.17H511a.08.08,0,0,0-.09.09.28.28,0,0,0,0,.09c0,.15,0,.15.15.16l.35,0c.09,0,.1.06.1.12s0,.39,0,.59,0,.67,0,1c0,.15,0,.15-.17.13,0-.37,0-.72,0-1.08s-.07-.3-.3-.24a.07.07,0,0,0-.06.06.85.85,0,0,0,0,.22c0,.26,0,.53,0,.79v.52l.34,0h.07c.14,0,.16,0,.15.14a.76.76,0,0,1,0,.15s0,0,0,0,0,0-.05,0,0,0,0-.05,0-.15-.19-.14l-.22,0a1.36,1.36,0,0,1,0,.2c0,.05,0,.09-.08.08s0-.05-.06-.09a.17.17,0,0,1,0-.07C510.73,505.34,510.74,503.8,510.76,502.25Zm.13-2.07.13-.1a.09.09,0,0,1,.15,0,2.2,2.2,0,0,1,.41.67c0,.13,0,.2-.16.16l-.47-.14c-.21-.06-.22-.07-.22-.31A.28.28,0,0,1,510.89,500.18Z" transform="translate(-472.86 -476.17)"/><path d="M498.25,503.45c0-.13,0-.27,0-.41s0-.14-.14-.15-.2,0-.2-.22v-.09c0-.06,0-.08.08-.08h.2c.05,0,.07,0,.07-.07v-.09c0-.89,0-1.78,0-2.66v-.09s0-.08-.07-.08h-.08c-.07,0-.1,0-.1-.11s0-.3,0-.45v-.67a.67.67,0,0,0-.07-.31c-.08-.13-.15-.27-.22-.4s-.06-.09-.06-.14c0-.24-.24-.25-.38-.34s-.08,0-.1,0-.05.09-.11.07-.06-.07-.06-.13,0-.36,0-.55,0-.12.13-.09l.81.24a.19.19,0,0,1,.1.28c-.05.09,0,.11.06.14a1.8,1.8,0,0,1,.22.06.3.3,0,0,0,.26,0,.22.22,0,0,1,.27.08.21.21,0,0,0,.2.1.16.16,0,0,0,.08-.06.17.17,0,0,0,0-.07l-.08,0s-.09-.05-.06-.12.06-.08.13-.05l.93.29c.12,0,.11.05.11.17s0,.39,0,.59,0,.1.08.09a.56.56,0,0,1,.46.23.8.8,0,0,1,.24.58c0,.72,0,1.44,0,2.16,0,.34,0,.68,0,1,0,.14,0,.14.14.15h.25a1.28,1.28,0,0,0,0-.17l0-3.37a.24.24,0,0,0-.09-.21c-.11-.11-.21-.24-.32-.37s0-.1,0-.14a.78.78,0,0,0-.05-.14c-.13.06-.11.18-.15.26s-.21-.08-.21-.23a1.61,1.61,0,0,1,0-.48l.28.07.37.1a.23.23,0,0,1,.16.13,2,2,0,0,1,.19.8l0,3.78c0,.33,0,.67,0,1v.09c0,.15,0,.15-.19.14a2.46,2.46,0,0,1,0-.28c0-.07,0-.11-.11-.1h0l-.2,0v-.33s.05,0,.07,0h.14c.1,0,.11,0,.11-.1s0-.13-.12-.13l-1.45,0-.42,0c-.15,0-.16,0-.16.16v.67c0,.1,0,.13-.13.1a.09.09,0,0,1-.06-.07.17.17,0,0,1,0-.1c0-1.6,0-3.2,0-4.8v-.06c0-.1,0-.11.09-.11s.11,0,.11.12c0,.39,0,.77,0,1.16,0,.86,0,1.72,0,2.58,0,0,0,.06,0,.1h.41a.09.09,0,0,0,.09-.08V502l0-3.27a.44.44,0,0,1,.12-.33c.11-.11.06-.24.05-.36s-.13-.07-.19,0-.11.15-.17.23a.21.21,0,0,1-.11.07c-.07,0-.14,0-.16-.11a.49.49,0,0,1,0-.36,1.51,1.51,0,0,1,.11-.22.37.37,0,0,0,.05-.11s0-.07,0-.08-.09,0-.09,0a.34.34,0,0,1-.31.16l0,0c-.07.06-.13,0-.19,0l-.25-.23-.09,0a.24.24,0,0,0-.05.1v.27c0,.87,0,1.73,0,2.59l0,2.95v.05C498.41,503.48,498.41,503.49,498.25,503.45Zm2.44-3.42v.18c0,.64,0,1.28,0,1.92a.25.25,0,0,0,0,.12c.09,0,.05-.08.05-.12l0-1.78v-.26S500.77,500,500.69,500Z" transform="translate(-472.86 -476.17)"/><path d="M496.08,502v-3.06c0-.2,0-.4,0-.6a1.52,1.52,0,0,1,.12-.43,1.24,1.24,0,0,1,.3-.39.54.54,0,0,1,.86.15,6,6,0,0,1,.26.58.57.57,0,0,1,0,.18v1.56c0,.65,0,1.31,0,2,0,.12,0,.12.13.13l.28,0c.11,0,.11,0,.11.12v0c0,.1,0,.11-.1.1l-.57,0-1.3-.06-.26,0c-.06,0-.09,0-.08-.09v-.06c0-.11,0-.12.12-.11Zm1.36.05s0-.09,0-.14l0-2.35a.17.17,0,0,0,0-.1.08.08,0,0,0-.07,0s0,0,0,.05a.27.27,0,0,0,0,.09v1c0,.46,0,.92,0,1.38C497.3,502,497.3,502,497.44,502Z" transform="translate(-472.86 -476.17)"/><path d="M502.8,503v.42c0,.15,0,.15.14.16l.84,0h.09a.13.13,0,0,1,.1.2.1.1,0,0,1-.07,0h-1.39c-.08,0-.12,0-.11-.11a1.93,1.93,0,0,0,0-.24c0-.08,0-.1-.11-.1s-.08.05-.08.11v.24a.07.07,0,0,1-.08.08c-.06,0-.09,0-.1-.07v-.13c0-.7,0-1.4,0-2.1a1.23,1.23,0,0,1,0-.19s0-.08.08-.07a.14.14,0,0,1,.06.07.57.57,0,0,1,0,.13v.88s0,.09,0,.14l.11,0c.1,0,.13,0,.13-.13s0-.07,0-.1c0-.93,0-1.85,0-2.77a.52.52,0,0,1,.21-.41.4.4,0,0,1,.56.17.62.62,0,0,1,.05.27c0,.36,0,.72,0,1.08,0,.6,0,1.2,0,1.8,0,.14,0,.17.16.18l.43,0s.12,0,.12.06a.55.55,0,0,1,0,.22s-.08,0-.12,0l-.9,0h-.7l-.07,0,.06,0h.18Z" transform="translate(-472.86 -476.17)"/><path d="M495.43,495.91l.35.1.73.22a.19.19,0,0,1,.15.12c0,.16.06.31.08.47s0,.22-.2.22a.36.36,0,0,0-.29.15.4.4,0,0,1-.29.17c-.13,0-.13,0-.13.16,0,.58,0,1.16,0,1.74,0,1,0,2,0,2.95,0,.18,0,.18.18.19h.18c.07,0,.11,0,.1.1V503c0,.22,0,.22.22.22l1.43,0H498c.06,0,.07.05.07.1s0,.09-.07.09h-.11l-1.8,0c-.26,0-.21,0-.22-.23s0-.25,0-.38,0,0,0-.06,0,0,0,.06v.32c0,.09,0,.11-.1.11s-.13,0-.13-.1a1,1,0,0,1,0-.17v-4.75a.37.37,0,0,0-.07-.3s0-.08,0-.12l0-.63c0-.14,0-.16.16-.16a.48.48,0,0,0,.43-.33c0-.05,0-.11,0-.14s-.11,0-.14.07,0,.06,0,.09,0,.11-.08.14a.31.31,0,0,1-.48-.18.25.25,0,0,0-.18-.18c-.13,0-.16-.11-.14-.21a.1.1,0,0,1,.09-.08.39.39,0,0,1,.31.08,3,3,0,0,0,.3.18s0,0,0,0,0-.06,0-.07l-.13-.11-.18-.11C495.39,496.1,495.39,496,495.43,495.91Z" transform="translate(-472.86 -476.17)"/><path d="M504.16,498.56h0c.34.07.34.07.34.41v4.38a.17.17,0,0,1,0,.1.14.14,0,0,1-.07.08c-.05,0-.08,0-.09-.08s0-.08,0-.13c0-.44,0-.88,0-1.32,0-.09,0-.2-.12-.21s0,0,0-.07a.57.57,0,0,1,0-.13c0-.62,0-1.23,0-1.84,0-.08,0-.15-.06-.21a.24.24,0,0,1,0-.08c0-.28,0-.55,0-.83A.13.13,0,0,1,504.16,498.56Z" transform="translate(-472.86 -476.17)"/><path d="M503.18,498.24l.68.21a.17.17,0,0,1,.06.08,1.09,1.09,0,0,1,0,.18c0,1.15,0,2.29,0,3.43v.05a.08.08,0,0,1-.07.1c-.08,0-.08-.05-.08-.11,0-.25,0-.49,0-.74s0-.62,0-.93v-1a.5.5,0,0,0-.1-.31.34.34,0,0,1-.09-.18.23.23,0,0,0-.19-.19l-.07,0c-.13-.05-.14-.06-.14-.21S503.17,498.38,503.18,498.24Z" transform="translate(-472.86 -476.17)"/><path d="M502.91,498.3a.62.62,0,0,1,0,.15.13.13,0,0,1-.12.14.32.32,0,0,0-.23.19,1.11,1.11,0,0,1-.11.16.18.18,0,0,1-.33-.06l-.1-.22a1,1,0,0,0-.36-.33l-.06-.05a.13.13,0,0,1,0-.15.09.09,0,0,1,.12-.06l.23.07s.06,0,.09,0,.05,0,.07,0a.15.15,0,0,0,0-.06.43.43,0,0,1-.09-.1.14.14,0,0,1,0-.09.11.11,0,0,1,.08,0l.77.23c.06,0,.09.05.08.11Z" transform="translate(-472.86 -476.17)"/><path d="M503.69,503.35c0-.11,0-.2,0-.28s0-.1.08-.1h.39c.07,0,.11,0,.11.1,0,.32,0,.29-.25.27Z" transform="translate(-472.86 -476.17)"/><path d="M491.17,500.25c0,.52,0,1,0,1.54,0,.15,0,.3,0,.45a.11.11,0,0,1-.09.12l-.72.16c-.09,0-.11,0-.11-.1v0c0-.21,0-.19.17-.24s.14,0,.14-.18l0-1.46c0-.32,0-.64,0-1a.22.22,0,0,0-.11-.2.15.15,0,0,1-.1-.16c0-.3,0-.59,0-.89a1,1,0,0,1,.06-.3.39.39,0,0,1,.13-.2.27.27,0,0,1,.42,0,.73.73,0,0,1,.19.49l0,1.74a1.62,1.62,0,0,1,0,.22Z" transform="translate(-472.86 -476.17)"/><path d="M489.24,502.77v-.13c0-.18,0-.18.17-.23s.12,0,.11-.15c0-.75,0-1.49,0-2.24,0-.12,0-.22-.14-.27s-.07-.08-.08-.15c0-.23,0-.47,0-.7a.72.72,0,0,1,.09-.43.3.3,0,0,1,.54,0,.88.88,0,0,1,.1.36c0,1.09,0,2.18.07,3.28,0,.13,0,.27,0,.4s0,.1-.07.11Z" transform="translate(-472.86 -476.17)"/><path d="M488.28,503v-.13c0-.16,0-.16.16-.2s.14,0,.14-.19c0-.72,0-1.45,0-2.17a.2.2,0,0,0-.14-.22.18.18,0,0,1-.11-.19c0-.23,0-.47,0-.7a.57.57,0,0,1,.11-.33.25.25,0,0,1,.43,0,.65.65,0,0,1,.11.38c0,.22,0,.43,0,.65,0,.82,0,1.64,0,2.47a.58.58,0,0,0,0,.18.57.57,0,0,1,0,.23.17.17,0,0,1-.06.06Z" transform="translate(-472.86 -476.17)"/><path d="M487.52,503.12v-.22l.16-.06v-2.26c0-.08,0-.15-.08-.2s0-.06,0-.1c0-.22,0-.45,0-.67a.75.75,0,0,1,.05-.26.18.18,0,0,1,.17-.13.19.19,0,0,1,.18.12.57.57,0,0,1,0,.32v1.07c0,.63,0,1.25,0,1.87,0,.07,0,.15.08.18s0,.24,0,.26l-.5.1Z" transform="translate(-472.86 -476.17)"/><path d="M492.79,502.35c0,.15,0,.15-.15.18l-.84.17c-.11,0-.12,0-.13-.11v-.08a.11.11,0,0,1,.1-.14c.29-.05.58-.12.86-.18s.15,0,.16.13Z" transform="translate(-472.86 -476.17)"/><path d="M491.2,502.67c0,.15,0,.15-.14.18l-.52.1c-.07,0-.1,0-.11-.08s0-.21.18-.25l.42-.09C491.2,502.5,491.2,502.51,491.2,502.67Z" transform="translate(-472.86 -476.17)"/><path d="M489.31,503.18s0-.05,0-.07c0-.23-.05-.2.2-.25l.35-.08.15,0s0,0,0,0c.05.26.05.26-.22.31l-.41.08Z" transform="translate(-472.86 -476.17)"/><path d="M488.94,503c0,.07,0,.14,0,.21a.08.08,0,0,1,0,.07l-.55.11,0-.07c0-.22,0-.22.2-.26l.35-.07Z" transform="translate(-472.86 -476.17)"/><path d="M488.06,503.16c0,.29,0,.29-.21.33l-.3.06,0-.05c0-.23,0-.23.2-.27Z" transform="translate(-472.86 -476.17)"/><path d="M507.15,506.53c.18.06.21.12.17.31l.08.05a.12.12,0,0,1,0,.21h-.06l-.7,0-.64,0h-.31c-.05,0-.1,0-.11-.06s0-.12,0-.14.05-.08.05-.13l0-.94c0-.2,0-.4,0-.6s0-.15.15-.15h.3c.06,0,.08,0,.08.08s0,.38,0,.57a.1.1,0,0,1,0,.07c-.08.07-.07.16-.06.26s0,.29,0,.44,0,.09,0,.1.07.13.08.21a.08.08,0,0,0,.07.07h.29c.06,0,.08,0,.09-.1v-.12c0-.45,0-.89,0-1.34,0-.27,0-.27.26-.27l.33,0c.07,0,.11,0,.08.11a1,1,0,0,0-.07.47.13.13,0,0,1-.06.09.1.1,0,0,0-.07.11c0,.1,0,.2,0,.3S507.13,506.43,507.15,506.53Z" transform="translate(-472.86 -476.17)"/><path d="M510.21,506.53s0,.06,0,.08,0,.17-.16.18l-1.09.07-.25,0c-.13,0-.15,0-.15-.14s0-.38,0-.58,0-.45,0-.68,0-.21,0-.31,0-.08.08-.08h.48a.11.11,0,0,1,.08.07c0,.05,0,.1-.05.11s-.1.11-.1.19a1.48,1.48,0,0,1,0,.21.22.22,0,0,1-.05.11s0,0,0,.05a2.79,2.79,0,0,0,0,.5c0,.16.06.18-.11.25a3.06,3.06,0,0,0,.95-.06.28.28,0,0,0-.23,0c-.14,0-.19,0-.18-.17l0-.64a3.62,3.62,0,0,1,0-.47c0-.12,0-.12.12-.13H510c.1,0,.14.06.09.13a.81.81,0,0,0-.09.4,1,1,0,0,1,0,.17l-.06.34a.11.11,0,0,0,0,.05c.09,0,.09.12.09.2s0,.16.15.14Z" transform="translate(-472.86 -476.17)"/><path d="M505.55,502.21v-1.42c0-.22,0-.27.26-.23a1.59,1.59,0,0,1,.33.09c.09,0,.09.12,0,.18a.18.18,0,0,1-.21,0s-.09,0-.11,0,0,.07.09.08a1.25,1.25,0,0,0,.19,0c.1,0,.14.05.12.15s-.08.35-.11.53-.08.43-.1.64,0,.57,0,.85,0,.16.15.18a.48.48,0,0,1,.17.05.12.12,0,0,1,.06.1c0,.05,0,.08-.09.08H506c-.15,0-.17,0-.2.16s0,.14-.1.15-.16,0-.16-.14,0-.43,0-.64v-.9Z" transform="translate(-472.86 -476.17)"/><path d="M509.51,504.48c-.32,0-.65-.06-1-.05a6.55,6.55,0,0,1-.89,0c-.41,0-.82,0-1.22,0l-.84,0c-.09,0-.11,0-.12-.12h0c0-.22,0-.22.21-.21l1.43.06,1.29.05.64,0,1.05.05c.06,0,.13,0,.15,0a.36.36,0,0,1,0,.18c0,.11,0,.11-.12.11Z" transform="translate(-472.86 -476.17)"/><path d="M506.85,501.12a.18.18,0,0,0,.2.09.29.29,0,0,1,.2.09c.08.05.08.12,0,.16a.34.34,0,0,0-.15.31c0,.47,0,.94,0,1.4a.28.28,0,0,0,.14.28.1.1,0,0,1,.05.13c0,.05-.06.06-.1.07a.27.27,0,0,0-.13,0c-.08,0-.14,0-.13.14s0,.11-.13.11-.12,0-.12-.11c0-.29,0-.58,0-.86,0-.65,0-1.29,0-1.93a.24.24,0,0,1,0-.12s.06-.1.09-.1a.53.53,0,0,1,.39.07.16.16,0,0,1,.06.14c0,.06-.07.05-.11.06Z" transform="translate(-472.86 -476.17)"/><path d="M508.18,503.53v.2a1.55,1.55,0,0,1-.48,0c-.08,0-.11,0-.11-.14V503c0-.2,0-.4,0-.6s0-.16,0-.24c0-.29,0-.59,0-.89s.1-.28.32-.22l.22,0a.14.14,0,0,1,.12.12c0,.12,0,.16-.13.16H508c0,.07,0,.07.08.08a.14.14,0,0,1,.13.16c0,.07,0,.13,0,.2a.57.57,0,0,1-.11.42.43.43,0,0,0-.08.27c0,.22,0,.44,0,.66a1.34,1.34,0,0,0,0,.2C508,503.48,508,503.48,508.18,503.53Z" transform="translate(-472.86 -476.17)"/><path d="M509.88,501.73c.1,0,.14.11.13.2,0,.27,0,.54,0,.81a.17.17,0,0,1,0,.07c-.12.12-.08.29-.11.44s0,.07,0,.1a.22.22,0,0,0,.13.26.05.05,0,0,1,.05,0s.06.1,0,.14-.08.05-.13.05l-.41,0c-.1,0-.13,0-.13-.14s0-.44,0-.66,0-.43,0-.65,0-.46,0-.69a.42.42,0,0,1,0-.15.15.15,0,0,1,.2-.09,1.23,1.23,0,0,0,.19,0l.21.07s.06.07.05.1a.23.23,0,0,1-.08.09A.63.63,0,0,1,509.88,501.73Z" transform="translate(-472.86 -476.17)"/><path d="M509.05,501.54a.34.34,0,0,1,.12.27c0,.11,0,.21,0,.32a.23.23,0,0,1,0,.12.8.8,0,0,0-.07.55c0,.1,0,.2,0,.3a2.64,2.64,0,0,1,0,.28,1.2,1.2,0,0,1,0,.19h.14s.09,0,.08.11,0,.11-.1.11h-.4a.19.19,0,0,1-.18-.21v-.88c0-.45,0-.89,0-1.34,0-.16,0-.19.2-.15l.24.06c.05,0,.11,0,.11.08a.13.13,0,0,1-.08.16S509.07,501.52,509.05,501.54Z" transform="translate(-472.86 -476.17)"/><path d="M497.1,506.56c0-.37,0-.73,0-1.1,0-.18,0-.18.18-.18s.26,0,.39,0,.11,0,.11.1v1c0,.05,0,.09-.08.09s-.06,0-.06.08v1c0,.06,0,.09.08.1s.13,0,.13.15a.1.1,0,0,1-.08.09l-.51,0c-.11,0-.12,0-.12-.12s0-.43,0-.65v-.51Z" transform="translate(-472.86 -476.17)"/><path d="M491.32,512.76a.49.49,0,0,1,.5.31.75.75,0,0,1,0,.71.45.45,0,0,1-.56.16.55.55,0,0,1-.29-.36.94.94,0,0,1,0-.5A.34.34,0,0,1,491.32,512.76Zm.27.65a.34.34,0,0,1,0-.1c0-.13-.08-.2-.16-.27a.12.12,0,0,0-.17,0,.23.23,0,0,0-.05.24,1,1,0,0,0,.06.16c0,.11.07.14.14.13S491.59,513.52,491.59,513.41Z" transform="translate(-472.86 -476.17)"/><path d="M505.18,513.31a1.24,1.24,0,0,1-.09.41.37.37,0,0,1-.41.24.45.45,0,0,1-.47-.5.85.85,0,0,1,.1-.47.52.52,0,0,1,.42-.27C505.09,512.71,505.19,513,505.18,513.31Zm-.45.32c.1,0,.12-.13.14-.2a.37.37,0,0,0,0-.34.11.11,0,0,0-.17-.06.67.67,0,0,0-.14.15.28.28,0,0,0,0,.25c0,.06.12.19.19.2Z" transform="translate(-472.86 -476.17)"/><path d="M502.49,505.46c-.22,0-.22,0-.18-.29h.57s.05,0,.06.05,0,.14,0,.18a.32.32,0,0,0,0,.21c0,.49,0,1,0,1.45,0,.16,0,.17-.17.18s-.22.07-.22-.21v-1.57Z" transform="translate(-472.86 -476.17)"/><path d="M503.56,505.45v.17c0,.44,0,.89,0,1.33v.12a.07.07,0,0,1-.07.08h0c-.24.06-.25.05-.26-.19,0-.46,0-.91,0-1.36,0-.08,0-.16-.1-.18s-.06-.13,0-.2.05-.05.09-.05h.52c.08,0,.11,0,.11.1s0,.13-.1.15Z" transform="translate(-472.86 -476.17)"/><path d="M498,511.9h.09a.17.17,0,0,1,.19.08,1.38,1.38,0,0,1,.26.61,2.53,2.53,0,0,1,.07.36,2.1,2.1,0,0,1-.15,1,.59.59,0,0,1-.36.35.29.29,0,0,1-.27,0c-.06,0-.15-.06-.18-.11a1,1,0,0,1-.11-.29,1.85,1.85,0,0,1-.14-.65c0-.24,0-.48,0-.72a.83.83,0,0,1,.29-.5A.29.29,0,0,1,498,511.9Zm0,.6h0s0,0,0,0a1.4,1.4,0,0,0-.1.45,1.46,1.46,0,0,0,0,.72c0,.06,0,.14.12.14s.09-.09.11-.15a.06.06,0,0,0,0,0,2,2,0,0,0,0-.65,2.36,2.36,0,0,0-.1-.46A.15.15,0,0,0,498,512.5Z" transform="translate(-472.86 -476.17)"/><path d="M498.8,513.83c0-.18,0-.35,0-.53l0-.15c0-.11.07-.22.1-.34a.57.57,0,0,1,0-.14,2.06,2.06,0,0,1,.24-.44.37.37,0,0,1,.3-.17l.33.05q.15,0,0,.15a3.44,3.44,0,0,0-.27.27,1.46,1.46,0,0,0-.3.51c0,.09-.09.18-.12.27l-.27.76s0,0,0,0l-.06,0s0,0-.05,0v-.27Z" transform="translate(-472.86 -476.17)"/><path d="M497.33,513.85s0,.1,0,.15,0,.09,0,.1-.07,0-.09-.08c-.08-.21-.16-.43-.25-.65a3.31,3.31,0,0,0-.38-.78,1.2,1.2,0,0,0-.35-.36l-.06-.05a.08.08,0,0,1,.06-.14l.25,0a.73.73,0,0,1,.21.06.83.83,0,0,1,.35.39,2.35,2.35,0,0,1,.14.37,4.15,4.15,0,0,1,.16.78,1.77,1.77,0,0,1,0,.23Z" transform="translate(-472.86 -476.17)"/><path d="M487,498.45V499c0,.15,0,.16-.2.2v-.59C486.84,498.51,486.87,498.48,487,498.45Z" transform="translate(-472.86 -476.17)"/><path d="M486.48,499.43c0-.22,0-.42,0-.62s.08-.1.14-.13l0,0c0,.19,0,.39,0,.58S486.58,499.41,486.48,499.43Z" transform="translate(-472.86 -476.17)"/><path d="M486.25,498.93a1.28,1.28,0,0,1,0,.17c0,.12,0,.23,0,.35s0,.14-.19.17c0-.19,0-.38,0-.56S486.16,499,486.25,498.93Z" transform="translate(-472.86 -476.17)"/><path d="M485.37,500v-.47c0-.08,0-.1.17-.14,0,0,0,.08,0,.12v.3C485.56,500,485.56,500,485.37,500Z" transform="translate(-472.86 -476.17)"/><path d="M484.91,500.25v-.42c0-.09.07-.12.16-.14a1.66,1.66,0,0,1,0,.44C485.1,500.2,485.08,500.21,484.91,500.25Z" transform="translate(-472.86 -476.17)"/><path d="M484.59,500.44c0-.14,0-.27,0-.39a.13.13,0,0,1,.06-.09c.07-.06.11,0,.12.05a1.85,1.85,0,0,1,0,.23C484.75,500.38,484.75,500.38,484.59,500.44Z" transform="translate(-472.86 -476.17)"/><path d="M484.27,500.6v-.37c0-.08.06-.1.12-.12s.05,0,.05.05a1.71,1.71,0,0,1,0,.32C484.44,500.56,484.37,500.57,484.27,500.6Z" transform="translate(-472.86 -476.17)"/><path d="M486.43,506.24v1c0,.05,0,.09-.08.08s-.12,0-.12-.08a.34.34,0,0,1,0-.1l0-1.83v-.1c0-.09,0-.1.12-.1s.08.05.08.11v1Z" transform="translate(-472.86 -476.17)"/><path d="M486.57,506.15v-.92c0-.05,0-.1.06-.11s.14,0,.14.12c0,.54,0,1.09,0,1.63v.25c0,.05,0,.1-.08.09s-.12,0-.13-.09v-1Z" transform="translate(-472.86 -476.17)"/><path d="M487.05,506.1V507c0,.05,0,.1-.07.1a.13.13,0,0,1-.13-.09.28.28,0,0,1,0-.09l0-1.68s0-.1.05-.12.13,0,.13.1c0,.3,0,.59,0,.89Z" transform="translate(-472.86 -476.17)"/><path d="M485.46,505.83v-.55c0-.11,0-.12.12-.12s.08,0,.08.08v.07c0,.32,0,.64,0,1v.1c0,.05,0,.12-.07.12s-.13,0-.13-.14v-.52Z" transform="translate(-472.86 -476.17)"/><path d="M485.1,505.86v-.55a.18.18,0,0,1,0-.11.15.15,0,0,1,.11,0,.11.11,0,0,1,.05.08,2.81,2.81,0,0,1,0,.29c0,.26,0,.53,0,.8v.11c0,.05,0,.1-.09.09s-.1,0-.1-.1,0-.39,0-.58Z" transform="translate(-472.86 -476.17)"/><path d="M484.45,505.82c0-.18,0-.36,0-.54s0-.09.11-.09.07,0,.07.07v.11c0,.3,0,.6,0,.9v.11c0,.06,0,.09-.09.08s-.09,0-.09-.08v-.56Z" transform="translate(-472.86 -476.17)"/><path d="M484.74,505.66v-.36c0-.09,0-.12.09-.12s.09.07.09.13v.21c0,.18,0,.36,0,.54s0,.1-.09.1-.08-.05-.08-.11v-.39Z" transform="translate(-472.86 -476.17)"/><path d="M501.44,504.92c0,.23,0,.23-.21.22s-.13,0-.14-.14a.41.41,0,0,1,0-.11c0-.05,0-.14,0-.14a.7.7,0,0,1,.25,0s0,0,0,.06A.54.54,0,0,1,501.44,504.92Z" transform="translate(-472.86 -476.17)"/><path d="M499.46,504.93v-.07c0-.14,0-.16.17-.15s.1,0,.1.11v.2a.15.15,0,0,1-.23.15.1.1,0,0,1,0-.07v-.17Z" transform="translate(-472.86 -476.17)"/><path d="M500.54,494.2c-.17,0-.18,0-.18-.16a.13.13,0,0,0-.1-.13l-.78-.35c-.23-.11-.23-.13-.15-.39l.12,0,1,.47c.13.06.13.06.12.2S500.54,494.09,500.54,494.2Z" transform="translate(-472.86 -476.17)"/><path d="M495,492.25c-.16,0-.19,0-.2-.15V492a.53.53,0,0,1-.6-.12.72.72,0,0,1-.18-.55c.14,0,.14,0,.17.1a1.55,1.55,0,0,0,.07.23.31.31,0,0,0,.53.05.1.1,0,0,1,.13-.06.11.11,0,0,1,.09.12Z" transform="translate(-472.86 -476.17)"/><path d="M493.64,491c.14,0,.16,0,.16.16v.56c-.13,0-.16,0-.16-.08s0-.41,0-.61Z" transform="translate(-472.86 -476.17)"/><path d="M510.88,501.91a.63.63,0,0,1,.31,0c.05,0,.07.05.07.11v1a.09.09,0,0,1-.09.1.11.11,0,0,0-.1.13,2.11,2.11,0,0,0,0,.25.09.09,0,0,1-.12.09c-.07,0-.07-.05-.07-.1v-.18c0-.42,0-.83,0-1.24Z" transform="translate(-472.86 -476.17)"/><path class="b22943f2-5850-4d4e-8b8e-264a7f0edc04" d="M478.14,494.62l0,.09-.05.13c0,.05,0,.09,0,.13l0,.12c0,.05,0,.09,0,.13a.31.31,0,0,0,0,.08l-.07,0-.07,0a.11.11,0,0,0,0-.08s0,0-.08,0l-.2,0-.21.05-.26.06-.27.07-.15.05-.08,0a.08.08,0,0,0,0,0l0,0h-.07l-.08,0a.51.51,0,0,0,0-.1l.05-.15c0-.05,0-.09.05-.13a1,1,0,0,1,.05-.16,1,1,0,0,1,0-.13l.06,0,.07,0s0,.06,0,.07,0,0,.05,0l.14,0,.27-.08.26-.06.19,0,.2-.05a.38.38,0,0,0,.11-.05.09.09,0,0,0,.06,0,.13.13,0,0,0,0-.06h.07Zm-.85.31-.12.09-.21-.25a.46.46,0,0,0-.15-.13s-.06,0-.08.05h-.08l-.07,0,0-.08,0-.08,0-.08a.25.25,0,0,1,0-.07l0-.09a.25.25,0,0,0,0-.07l.08,0,.06,0v.11a.36.36,0,0,0,0,.09s.06.08.1.14Zm.41,1.05-.08,0-.06,0a.47.47,0,0,0,0-.17.78.78,0,0,0-.12-.21l-.23-.31.11-.09.18.23a.44.44,0,0,0,.11.12s.05,0,.07,0a.17.17,0,0,0,.06-.06h.08l.07,0a.73.73,0,0,0-.05.12c0,.05,0,.09,0,.13l0,.08,0,.09A.25.25,0,0,0,477.7,496Z" transform="translate(-472.86 -476.17)"/><path class="b22943f2-5850-4d4e-8b8e-264a7f0edc04" d="M477.11,493.22l1.19,0h.17l.09,0,0,0h.07l.07,0,0,.09-.05.11,0,.09,0,.06,0,.1,0,.09,0,.07-.08,0-.05,0c0-.06,0-.09,0-.11l-.12,0h-.71l-.19,0,0-.06.16.13a1.1,1.1,0,0,1,.16.15l.33.31a.15.15,0,0,0,.11.06.1.1,0,0,0,.09-.06h.07l.08,0a.16.16,0,0,0,0,.06l0,.08,0,.08,0,.1a.47.47,0,0,0,0,.09l-.07,0-.06,0v-.07l0-.07a.93.93,0,0,0-.1-.1l-.84-.84a.14.14,0,0,1,0-.07A.25.25,0,0,1,477.11,493.22Zm.92.29.13,0c0,.08-.07.18-.11.28a2.47,2.47,0,0,0-.1.29l-.13-.09Z" transform="translate(-472.86 -476.17)"/><path class="b22943f2-5850-4d4e-8b8e-264a7f0edc04" d="M478.81,493l-.08,0a.1.1,0,0,1-.05,0,.29.29,0,0,0,0-.09s0,0,0-.06l-.12-.08-.65-.32a.28.28,0,0,0-.12-.05.08.08,0,0,0-.08,0,.14.14,0,0,0-.06.07l-.06,0-.08,0,.08-.16.08-.13a.49.49,0,0,1,.06-.13l.06-.13,0-.09a1,1,0,0,1,.21-.28.37.37,0,0,1,.21-.08.49.49,0,0,1,.23.06.79.79,0,0,1,.22.18.5.5,0,0,1,.09.24.69.69,0,0,1-.07.3.62.62,0,0,1-.09.12l-.07,0,0-.05,0,0v0a.2.2,0,0,0,0-.11.16.16,0,0,0-.05-.11.44.44,0,0,0-.16-.12.49.49,0,0,0-.25-.05.21.21,0,0,0-.18.14.08.08,0,0,0,0,.05s0,0,0,.06l0,0,.83.42a.51.51,0,0,0,.14,0,.12.12,0,0,0,.1,0,.53.53,0,0,0,.09-.11l.07,0,.07,0,0,.09-.06.12-.06.13s-.05.08-.07.13l-.06.12S478.82,493,478.81,493Z" transform="translate(-472.86 -476.17)"/><path class="b22943f2-5850-4d4e-8b8e-264a7f0edc04" d="M479.46,491.72l-.06-.05-.06,0a.23.23,0,0,0,0-.09.09.09,0,0,0,0-.07l-.11-.08-.62-.37-.12-.06h-.08l-.07.07-.06,0-.07,0a.9.9,0,0,1,.05-.09l.07-.11a.64.64,0,0,0,.06-.1l.06-.1.06-.1a.36.36,0,0,1,.05-.09l.06,0,.06.05a.16.16,0,0,0,0,.08.1.1,0,0,0,0,.07l.11.08.62.37.13.06h.07l.07-.06.06,0,.07,0-.07.12-.1.15-.1.17Zm.56-.92a.47.47,0,0,1-.17,0l-.21,0-.2,0a.37.37,0,0,0-.18,0,.23.23,0,0,0-.12.1l-.13-.07a.31.31,0,0,0,.05-.12.21.21,0,0,0,0-.13l-.09-.18a1.5,1.5,0,0,0-.09-.18.69.69,0,0,1-.05-.13.14.14,0,0,1,0-.11.43.43,0,0,1,.05-.13l0-.07,0,0,.1.07.11.06.11.05,0,.08-.05.1c-.05,0-.09,0-.11,0a.05.05,0,0,0-.05,0,.19.19,0,0,0,0,.08l.07.14.07.14a.16.16,0,0,1,0,.09.28.28,0,0,1,0,.09l-.05,0a.36.36,0,0,1,.11-.13.35.35,0,0,1,.12-.07H480l.06,0,.07-.07,0,0,0,0,0,0-.06.1a.83.83,0,0,0-.07.13Z" transform="translate(-472.86 -476.17)"/><path class="b22943f2-5850-4d4e-8b8e-264a7f0edc04" d="M479.51,489.56a.4.4,0,0,0-.12-.07h-.08l-.07.06-.06,0-.07,0a.33.33,0,0,1,.06-.08l.07-.11.07-.1.06-.09.07-.11.06-.08.06,0,.05.05a.23.23,0,0,0,0,.09.09.09,0,0,0,0,.07.59.59,0,0,0,.11.09l.59.4a.4.4,0,0,0,.12.07.08.08,0,0,0,.08,0,.19.19,0,0,0,.07-.06l.06,0,.07.05-.08.11a1,1,0,0,0-.1.15l-.12.17-.09.14-.06-.05-.05-.05a.16.16,0,0,0,0-.09.13.13,0,0,0,0-.07l-.11-.09Z" transform="translate(-472.86 -476.17)"/><path class="b22943f2-5850-4d4e-8b8e-264a7f0edc04" d="M479.65,488.68l.07-.08.08-.1.08-.11.1-.13a.62.62,0,0,1,.09-.12,1.35,1.35,0,0,1,.22-.24.37.37,0,0,1,.2-.08.34.34,0,0,1,.18.07.36.36,0,0,1,.13.21.48.48,0,0,1-.06.27.52.52,0,0,1,.18-.16.43.43,0,0,1,.19,0,.38.38,0,0,1,.18.09.4.4,0,0,1,.14.18.43.43,0,0,1,0,.25,1,1,0,0,1-.19.33l-.1.14-.11.15-.11.14a1.25,1.25,0,0,1-.09.12l-.06-.05-.05,0a.59.59,0,0,0,0-.08.13.13,0,0,0,0-.08.59.59,0,0,0-.11-.09l-.56-.44a.4.4,0,0,0-.12-.07.08.08,0,0,0-.08,0l-.07.06-.06,0Zm.4-.37.8.62a.4.4,0,0,0,.12.07.13.13,0,0,0,.09,0l.06-.06a.2.2,0,0,0,.05-.16.3.3,0,0,0-.11-.17.38.38,0,0,0-.13-.06.17.17,0,0,0-.1,0l-.11,0-.09.1-.07.1-.12-.09.09-.11a.37.37,0,0,0,.07-.14.25.25,0,0,0,0-.12.28.28,0,0,0-.09-.1.31.31,0,0,0-.13-.06l-.11,0a.24.24,0,0,0-.09.08l0,.06s0,0,0,.06Z" transform="translate(-472.86 -476.17)"/><path class="b22943f2-5850-4d4e-8b8e-264a7f0edc04" d="M482.24,487.84a.79.79,0,0,1-.32.23.67.67,0,0,1-.37,0,.79.79,0,0,1-.36-.19.76.76,0,0,1-.2-.25.61.61,0,0,1-.07-.28.86.86,0,0,1,.05-.27.75.75,0,0,1,.15-.24.93.93,0,0,1,.18-.16.88.88,0,0,1,.21-.12l.11.11a1.42,1.42,0,0,0,.13.12.59.59,0,0,1,0,.08l-.06.08a.62.62,0,0,0-.17-.1h-.14a.26.26,0,0,0-.11.08.33.33,0,0,0-.07.16.23.23,0,0,0,0,.16.65.65,0,0,0,.09.16.57.57,0,0,0,.13.14,1,1,0,0,0,.28.18.5.5,0,0,0,.27,0,.38.38,0,0,0,.23-.14l.09-.14a.64.64,0,0,0,.06-.18h.06s0,0,.05,0a.71.71,0,0,1,0,.24A.66.66,0,0,1,482.24,487.84Z" transform="translate(-472.86 -476.17)"/><path class="b22943f2-5850-4d4e-8b8e-264a7f0edc04" d="M482.69,487.32l-.06-.06,0-.05a.15.15,0,0,0,.05-.08.11.11,0,0,0,0-.08.47.47,0,0,0-.1-.11l-.5-.51-.1-.09a.12.12,0,0,0-.08,0,.25.25,0,0,0-.08.05l0,0-.07-.05a1.85,1.85,0,0,0,.14-.14l.15-.14.1-.1.09-.09.08-.08.05.06,0,.06a.42.42,0,0,0-.08.12.12.12,0,0,0,0,.1.29.29,0,0,0,.09.12l.49.5a.33.33,0,0,0,.11.08.08.08,0,0,0,.08,0,.18.18,0,0,0,.07,0,.18.18,0,0,0,.07-.16.25.25,0,0,0-.08-.17.28.28,0,0,0-.12-.08.19.19,0,0,0-.1,0,.17.17,0,0,0-.1,0l-.09.06,0,.05,0,.05-.11-.11.05-.07.07-.07a1.56,1.56,0,0,1,.28-.22.47.47,0,0,1,.25-.05.34.34,0,0,1,.22.13.31.31,0,0,1,.11.19.38.38,0,0,1,0,.25,1,1,0,0,1-.22.3L483,487l-.17.16Z" transform="translate(-472.86 -476.17)"/><path class="b22943f2-5850-4d4e-8b8e-264a7f0edc04" d="M483.76,486.27l-.05-.06s0,0,0-.06l.05-.08a.12.12,0,0,0,0-.08l-.08-.11-.47-.55a.93.93,0,0,0-.1-.1l-.07,0-.08,0-.06,0-.05-.06.07-.06L483,485l.09-.07.08-.08.09-.07.07-.07.05.06,0,.06a.23.23,0,0,0-.05.07.11.11,0,0,0,0,.08l.08.11.47.55a.46.46,0,0,0,.1.1s.05,0,.07,0a.13.13,0,0,0,.08,0l.05,0,.06.06-.11.08L484,486l-.16.13Zm.83-.69a.37.37,0,0,1-.18,0l-.19-.09-.18-.09a.38.38,0,0,0-.17,0,.24.24,0,0,0-.16.05l-.09-.11a.19.19,0,0,0,.08-.1.21.21,0,0,0,0-.12.88.88,0,0,0,0-.2c0-.08,0-.14,0-.2s0-.1,0-.14a.2.2,0,0,1,0-.11.41.41,0,0,1,.09-.1l.07-.05.06,0,.07.09.09.1.08.09,0,.06a.27.27,0,0,1-.08.07s-.08-.06-.1-.06h-.05a.2.2,0,0,0,0,.08,1,1,0,0,0,0,.15,1.37,1.37,0,0,1,0,.16.38.38,0,0,1,0,.1s0,.05,0,.08h-.07a.42.42,0,0,1,.15-.09.35.35,0,0,1,.14,0l.15,0,.21.08.13,0,.09,0h.07l.08-.05,0,0,0,.05,0,.05-.09.08-.11.1Z" transform="translate(-472.86 -476.17)"/><path class="b22943f2-5850-4d4e-8b8e-264a7f0edc04" d="M484.75,483.58l1,.59.15.08a.18.18,0,0,0,.09,0h.06l0,0,.06.07-.09.05-.09.07-.08.06-.06,0-.08.06-.08.06-.06.05,0-.08s0,0,0-.05.05-.07,0-.1,0,0-.08-.08l-.42-.24-.19-.13-.16-.12.05,0a1.46,1.46,0,0,1,.07.19.79.79,0,0,1,.06.22l.12.44a.14.14,0,0,0,.06.1.11.11,0,0,0,.11,0,.12.12,0,0,1,0,.05s0,0,.06.06l-.06,0-.07.05-.07.05-.09.06-.07.06a.25.25,0,0,1,0-.07l0-.06a.09.09,0,0,0,0-.06.19.19,0,0,0,0-.08l0-.14-.28-1.16.05-.05Zm.62.72.11.09a1.88,1.88,0,0,0-.24.18,2.11,2.11,0,0,0-.23.19l-.07-.14Z" transform="translate(-472.86 -476.17)"/><path class="b22943f2-5850-4d4e-8b8e-264a7f0edc04" d="M486.74,484l-.08-.12a.22.22,0,0,0,.09-.12.54.54,0,0,0,0-.18,1.12,1.12,0,0,0-.06-.23l-.09-.24-.11-.23-.08-.11s0,0-.07,0a.24.24,0,0,0-.12,0l-.05-.06,0-.06.19-.11.31-.18.25-.14.16-.1.09-.06a.25.25,0,0,1,0,.07.14.14,0,0,1,0,.07l-.06.06a.19.19,0,0,0,0,.08.66.66,0,0,0,.06.12l.37.63a.48.48,0,0,0,.08.12.06.06,0,0,0,.07,0l.08,0,.08.13Zm.17-.22h-.08l.34-.2a.49.49,0,0,0,.1-.08.08.08,0,0,0,0-.08.69.69,0,0,0-.06-.13l-.37-.63-.07-.11a.1.1,0,0,0-.07,0h0l-.05,0a.09.09,0,0,0-.06,0l0,0a.12.12,0,0,0,0,.08.41.41,0,0,0,.06.11c0,.1.09.19.13.28s.08.18.11.27a1.12,1.12,0,0,1,.06.23A.64.64,0,0,1,486.91,483.78Zm.16.45-.1.07a.27.27,0,0,1-.11.05l-.1-.17-.1-.14a.25.25,0,0,1,0-.14l.15-.08h.11a2.2,2.2,0,0,0,.09.21A1.14,1.14,0,0,0,487.07,484.23Zm.88-.51a1.74,1.74,0,0,0-.11-.18l-.14-.18,0-.11.15-.09a.27.27,0,0,1,.1.11s0,.1.07.15l.09.17a.36.36,0,0,1-.09.08Z" transform="translate(-472.86 -476.17)"/><path class="b22943f2-5850-4d4e-8b8e-264a7f0edc04" d="M487.51,481.87l.11-.05.13-.06.13-.06.11-.06.48,1a.63.63,0,0,0,.07.12.1.1,0,0,0,.08,0,.15.15,0,0,0,.11,0v.16l-.14.06-.17.09-.16.08-.1.05,0-.07a.2.2,0,0,1,0-.07l.07-.06a.17.17,0,0,0,0-.08l-.06-.13-.31-.65a.72.72,0,0,0-.07-.11.08.08,0,0,0-.07,0,.18.18,0,0,0-.09,0l0-.06Zm1-.49a.61.61,0,0,0,.07.1.75.75,0,0,0,.07.12.86.86,0,0,0,.07.1l-.06.05-.09.06a.32.32,0,0,0-.1-.1.22.22,0,0,0-.12,0,.49.49,0,0,0-.18,0l-.19.1v-.16l.25-.12.17-.09Zm.05.52a1,1,0,0,1,0,.1l.06.12a.76.76,0,0,0,.07.13l0,.1-.08,0-.08,0a.17.17,0,0,0-.1-.09.23.23,0,0,0-.14,0l-.12,0-.06-.13.11,0a.38.38,0,0,0,.13-.1.23.23,0,0,0,0-.13s0,0,.06-.05Zm.35.43.11,0h.09c0,.05,0,.11,0,.18l.06.18-.13.07-.18.08-.17.09v-.16l0,0a.48.48,0,0,0,.13-.09.2.2,0,0,0,0-.13A.57.57,0,0,0,488.91,482.33Z" transform="translate(-472.86 -476.17)"/><path class="b22943f2-5850-4d4e-8b8e-264a7f0edc04" d="M489.42,482.58a.41.41,0,0,1,0-.08s0,0,0-.06l.08-.05a.11.11,0,0,0,0-.08.3.3,0,0,0,0-.14l-.27-.67a.67.67,0,0,0-.06-.12s0,0-.06,0h-.09a.09.09,0,0,1,0-.06l0-.07.17-.07.15,0,.13-.05.13-.06.09,0a.82.82,0,0,1,.34-.07.29.29,0,0,1,.21.08.43.43,0,0,1,.13.19.56.56,0,0,1,.05.28.5.5,0,0,1-.09.24.7.7,0,0,1-.25.18l-.14,0a.09.09,0,0,1,0-.07.13.13,0,0,1,0-.06h.06s.06,0,.09-.07a.34.34,0,0,0,0-.12.59.59,0,0,0-.05-.19.57.57,0,0,0-.15-.21.23.23,0,0,0-.23,0l-.05,0-.05,0v0l.35.86a.5.5,0,0,0,.07.13.18.18,0,0,0,.1,0,.34.34,0,0,0,.13,0l0,.06,0,.07-.09,0-.13.05-.13.05-.13.05-.13.06Z" transform="translate(-472.86 -476.17)"/><path class="b22943f2-5850-4d4e-8b8e-264a7f0edc04" d="M491.09,481.94l-.14,0-.14,0-.12,0,0,0s0,0,0-.05v0l.08-.05a.1.1,0,0,0,0-.05l0-.08a.78.78,0,0,1,0-.14c0-.09,0-.16,0-.22a.53.53,0,0,1,.05-.15.28.28,0,0,1,.09-.1.53.53,0,0,1,.15-.07l-.05,0H491l0,0-.07-.06-.08-.08-.12-.1a.12.12,0,0,0-.08,0s0,0,0,0a.19.19,0,0,0,0,.11l-.1,0h-.09a.6.6,0,0,0,0-.12s0-.08,0-.12,0-.08,0-.12l.06,0,.08,0a.32.32,0,0,1,.13,0,.19.19,0,0,1,.1,0l.11.08.15.14.15.13a.21.21,0,0,0,.12.05.27.27,0,0,0,.12,0l.05.14a.22.22,0,0,0-.13.1.38.38,0,0,0,0,.16,1.49,1.49,0,0,0,0,.21,1.36,1.36,0,0,1,0,.2A.46.46,0,0,1,491.09,481.94Zm.35-.12a.24.24,0,0,1,0-.08.64.64,0,0,0,0-.07s.06,0,.07,0,0,0,0-.08a.45.45,0,0,0,0-.13l-.21-.69-.05-.13a.1.1,0,0,0-.06-.05h-.08l0-.07,0-.07.1,0,.12,0,.1,0,.1,0,.12,0,.09,0a.19.19,0,0,1,0,.07.22.22,0,0,1,0,.08l-.07,0a.08.08,0,0,0,0,.07.44.44,0,0,0,0,.14l.21.69a.59.59,0,0,0,.05.13.08.08,0,0,0,.05.05H492l0,.06a.24.24,0,0,1,0,.08l-.13,0-.18.06-.18,0Zm1-.29a.31.31,0,0,1-.15-.1.64.64,0,0,1-.13-.15c0-.06-.09-.11-.13-.16a.45.45,0,0,0-.13-.11.22.22,0,0,0-.16,0l0-.14a.33.33,0,0,0,.12-.05.29.29,0,0,0,.06-.11,1.08,1.08,0,0,0,.06-.19c0-.08,0-.14,0-.2s0-.09,0-.13l.07-.09a.33.33,0,0,1,.12,0l.08,0h.07a.26.26,0,0,0,0,.11.5.5,0,0,0,0,.13s0,.08,0,.11l-.07,0-.11,0a.17.17,0,0,0-.06-.09s0,0,0,0a.06.06,0,0,0-.06.05.64.64,0,0,0-.05.15.36.36,0,0,1,0,.11.45.45,0,0,0,0,.08l0,.06a.08.08,0,0,1,0,0h-.06l.16,0a.28.28,0,0,1,.13,0l.12.09a1.2,1.2,0,0,1,.16.16l.09.1.07.05s.05,0,.07,0h.09v0a.13.13,0,0,1,0,.06,0,0,0,0,1,0,.05l-.11,0-.14.05Z" transform="translate(-472.86 -476.17)"/><path class="b22943f2-5850-4d4e-8b8e-264a7f0edc04" d="M493.38,479.78l.7,1,.11.14a.1.1,0,0,0,.07.05,0,0,0,0,0,.05,0l0,.07s0,.05,0,.08h-.1l-.12,0-.09,0-.07,0-.1,0-.09,0-.08,0s0-.06,0-.08v-.07c.05,0,.07,0,.08-.07a.15.15,0,0,0,0-.1l-.28-.4-.12-.19-.09-.18h.06c0,.07,0,.13,0,.2a1.7,1.7,0,0,1,0,.22l-.07.45a.23.23,0,0,0,0,.12s.06.05.11.05,0,0,0,.06a.19.19,0,0,1,0,.08h-.06l-.09,0h-.08l-.11,0-.09,0s0-.06,0-.08v-.07l.06,0,0-.07s0-.08,0-.14l.23-1.17.06,0Zm.28.92.06.12-.29.06-.3.08v-.15Z" transform="translate(-472.86 -476.17)"/><path class="b22943f2-5850-4d4e-8b8e-264a7f0edc04" d="M494.3,479.61h.11l.12,0,.14,0,.16,0,.15,0a1.26,1.26,0,0,1,.33,0,.33.33,0,0,1,.19.08.37.37,0,0,1,.08.18.31.31,0,0,1-.06.23.36.36,0,0,1-.23.15.65.65,0,0,1,.25,0,.33.33,0,0,1,.15.11.36.36,0,0,1,.07.19.41.41,0,0,1,0,.22.42.42,0,0,1-.18.17,1,1,0,0,1-.37.11l-.17,0-.18,0-.18,0-.15,0s0-.06,0-.09v-.06a.19.19,0,0,0,.09,0,.08.08,0,0,0,0-.07.32.32,0,0,0,0-.14l-.1-.71a1.06,1.06,0,0,0,0-.14s0-.05-.05-.05l-.09,0a.14.14,0,0,1,0-.07A.64.64,0,0,0,494.3,479.61Zm.54,0,.14,1a.39.39,0,0,0,0,.14s0,0,.06.05h.09a.24.24,0,0,0,.15-.09.24.24,0,0,0,0-.19.29.29,0,0,0,0-.14.2.2,0,0,0-.08-.08l-.11,0h-.25l0-.14.14,0a.26.26,0,0,0,.14-.05.23.23,0,0,0,.08-.09.61.61,0,0,0,0-.14.26.26,0,0,0-.06-.13.22.22,0,0,0-.09-.07H495l-.07,0-.05,0Z" transform="translate(-472.86 -476.17)"/><path class="b22943f2-5850-4d4e-8b8e-264a7f0edc04" d="M496,480.87v-.08s0-.05,0-.07l.09,0s0,0,0-.07v-.14l0-.72a.39.39,0,0,0,0-.13s0-.05-.05-.06,0,0-.09,0,0-.05,0-.07a.25.25,0,0,1,0-.08h.69v.07a.22.22,0,0,1,0,.08l-.09,0a.09.09,0,0,0,0,.06v.14l0,.72c0,.06,0,.11,0,.14a.1.1,0,0,0,.05.06l.09,0s0,0,0,.07a.22.22,0,0,1,0,.08h-.52Zm.48-.7V480l.5,0v.15h-.13l-.13,0h-.25Zm.37.65v-.08s0-.05,0-.07.07,0,.09,0,0,0,0-.07v-.14l0-.72a.39.39,0,0,0,0-.13.09.09,0,0,0,0-.06l-.1,0s0,0,0-.07a.25.25,0,0,1,0-.08h.69v.08a.17.17,0,0,1,0,.07l-.09,0s0,0,0,.07a.45.45,0,0,0,0,.13l0,.72c0,.06,0,.11,0,.14a.18.18,0,0,0,.05.07h.09a.15.15,0,0,1,0,.07.22.22,0,0,1,0,.08H497Z" transform="translate(-472.86 -476.17)"/><path class="b22943f2-5850-4d4e-8b8e-264a7f0edc04" d="M498.5,479.32l.46,1.09.08.16a.13.13,0,0,0,0,.07l.05,0a.15.15,0,0,1,0,.07.19.19,0,0,1,0,.08h-.66v-.09a.14.14,0,0,1,0-.06.13.13,0,0,0,.09,0s0-.06,0-.12l-.19-.44c0-.08,0-.15-.07-.22a1.33,1.33,0,0,1-.05-.19h.06l-.06.2c0,.06,0,.13-.08.2l-.17.42a.21.21,0,0,0,0,.13s0,.05.09.06a.15.15,0,0,1,0,.07.19.19,0,0,1,0,.08h-.44v-.08a.25.25,0,0,1,0-.07l.06,0a.18.18,0,0,0,.05-.07l.07-.13.47-1.08h.15Zm.06.95,0,.13H498l0-.15Z" transform="translate(-472.86 -476.17)"/><path class="b22943f2-5850-4d4e-8b8e-264a7f0edc04" d="M499.77,480.85s0-.05,0-.08a.21.21,0,0,0,0-.06h.1a.1.1,0,0,0,.05-.06.52.52,0,0,0,0-.14l.09-.72a.72.72,0,0,0,0-.13s0-.06,0-.07l-.08,0a.15.15,0,0,1,0-.07.22.22,0,0,1,0-.08l.1,0,.13,0h.23l.12,0h.11s0,0,0,.07a.19.19,0,0,1,0,.07h-.09a.1.1,0,0,0-.05.06,1.06,1.06,0,0,0,0,.14l-.09.71a.64.64,0,0,0,0,.14s0,.06,0,.07a.19.19,0,0,0,.09,0v.15l-.14,0-.18,0-.2,0Zm.6-.59,0-.17.5.06,0,.15-.12,0h-.38Zm.25.7a.22.22,0,0,1,0-.08.25.25,0,0,0,0-.07h.09s0,0,.05-.06a1.06,1.06,0,0,0,0-.14l.09-.71a.64.64,0,0,0,0-.14.09.09,0,0,0,0-.07.19.19,0,0,0-.09,0v-.15h.1l.14,0h.11l.12,0h.22s0,.05,0,.07a.14.14,0,0,1,0,.07l-.1,0a.09.09,0,0,0,0,.06.35.35,0,0,0,0,.13l-.09.72a.33.33,0,0,0,0,.14.09.09,0,0,0,0,.07l.09,0V481a.22.22,0,0,1,0,.08l-.13,0-.19,0-.19,0Z" transform="translate(-472.86 -476.17)"/><path class="b22943f2-5850-4d4e-8b8e-264a7f0edc04" d="M502.5,479.77l.27,1.16c0,.07,0,.13,0,.17a.21.21,0,0,0,0,.07.1.1,0,0,0,0,0v.06s0,.06,0,.09l-.1,0-.12,0-.09,0-.07,0-.1,0h-.17a.64.64,0,0,1,0-.09l0-.06s.08,0,.09,0,0-.06,0-.12l-.11-.47a1.92,1.92,0,0,1,0-.22c0-.07,0-.14,0-.2h.06a1.51,1.51,0,0,1-.09.18,1.45,1.45,0,0,1-.12.19l-.24.39a.19.19,0,0,0,0,.11s0,.06.08.08v.07s0,.05,0,.08l-.07,0-.08,0h-.09l-.1,0-.09,0a.14.14,0,0,1,0-.07.19.19,0,0,1,0-.07h.07l.06-.06a.59.59,0,0,0,.09-.11l.66-1h.14Zm-.11,1v.14l-.29-.06-.3,0,.06-.14Z" transform="translate(-472.86 -476.17)"/><path class="b22943f2-5850-4d4e-8b8e-264a7f0edc04" d="M503.25,481.47a.37.37,0,0,1-.14-.07.18.18,0,0,1-.07-.09.44.44,0,0,1,0-.1.31.31,0,0,1,.05-.1l.09.05.13,0a.23.23,0,0,0,.13,0,.17.17,0,0,0,.1,0l.09-.09.27-.25.28-.3a.19.19,0,0,0,.07-.13.12.12,0,0,0-.09-.08.13.13,0,0,1,0-.06.37.37,0,0,1,0-.09l.06,0,.08,0,.08,0,.11,0,.1,0,0,.08,0,.06h-.07l-.08.06-.1.1-.6.65a.73.73,0,0,1-.16.15.58.58,0,0,1-.17.06A.38.38,0,0,1,503.25,481.47Zm.36-.27c0-.1-.05-.2-.08-.3a2.45,2.45,0,0,0-.08-.29c0-.08,0-.16-.06-.22l-.05-.16a.93.93,0,0,1,0-.1l-.06-.05V480s0-.05,0-.08l.07,0,.09,0,.09,0h.07l.14,0,.18.05a.19.19,0,0,1,0,.08l0,.06h-.08a.05.05,0,0,0,0,.05.84.84,0,0,0,0,.1,1.24,1.24,0,0,1,0,.16.65.65,0,0,1,0,.13l0,.12a1.55,1.55,0,0,1,0,.15Z" transform="translate(-472.86 -476.17)"/><path class="b22943f2-5850-4d4e-8b8e-264a7f0edc04" d="M504.38,481.77a.21.21,0,0,1,0-.07l0-.06h.09a.1.1,0,0,0,.07,0l0-.13.25-.68a.45.45,0,0,0,0-.13.08.08,0,0,0,0-.08l-.07-.05a.2.2,0,0,1,0-.07s0,0,0-.08l.09,0,.13.05.11,0,.11,0,.11,0,.09,0a.64.64,0,0,1,0,.07.43.43,0,0,1,0,.07h-.09a.13.13,0,0,0-.06.05l-.05.13-.24.67a.33.33,0,0,0,0,.14.11.11,0,0,0,0,.08l.07,0a.17.17,0,0,1,0,.07.19.19,0,0,1,0,.08l-.13-.05-.16-.06-.19-.07Zm1,.37a.29.29,0,0,1-.07-.16c0-.07,0-.13,0-.21a1.27,1.27,0,0,0,0-.2.42.42,0,0,0-.05-.17.24.24,0,0,0-.13-.11l.05-.13.13,0a.28.28,0,0,0,.12,0l.16-.12.16-.13.12-.08a.2.2,0,0,1,.11,0l.13,0,.08,0,.05,0a.49.49,0,0,1,0,.11s0,.09,0,.13l0,.11H506a.45.45,0,0,1-.11,0,.17.17,0,0,0,0-.12s0,0,0,0a.12.12,0,0,0-.08,0l-.12.09a.91.91,0,0,1-.13.1l-.08,0-.09,0,0-.06a.66.66,0,0,1,.15.09.28.28,0,0,1,.09.1,1.31,1.31,0,0,1,0,.15c0,.06,0,.14,0,.22a1.15,1.15,0,0,1,0,.14.46.46,0,0,0,0,.09.21.21,0,0,0,0,.06l.08.05v0l0,.05,0,0-.12,0-.14,0Z" transform="translate(-472.86 -476.17)"/><path class="b22943f2-5850-4d4e-8b8e-264a7f0edc04" d="M506.52,482.61a.68.68,0,0,1-.32-.25.59.59,0,0,1-.13-.34,1,1,0,0,1,.08-.4,1,1,0,0,1,.18-.26,1.14,1.14,0,0,1,.23-.15.86.86,0,0,1,.28,0,1.11,1.11,0,0,1,.29.07.76.76,0,0,1,.31.24.61.61,0,0,1,.14.34.75.75,0,0,1-.07.38.91.91,0,0,1-.18.27.73.73,0,0,1-.23.16.54.54,0,0,1-.28.05A.66.66,0,0,1,506.52,482.61Zm.09-.13a.25.25,0,0,0,.19,0,.55.55,0,0,0,.18-.14,1.05,1.05,0,0,0,.16-.26,1.18,1.18,0,0,0,.08-.31.57.57,0,0,0,0-.26.33.33,0,0,0-.15-.16.28.28,0,0,0-.18,0,.47.47,0,0,0-.18.12,1,1,0,0,0-.15.25,1.13,1.13,0,0,0-.08.24.57.57,0,0,0,0,.22.35.35,0,0,0,.05.18A.21.21,0,0,0,506.61,482.48Z" transform="translate(-472.86 -476.17)"/><path class="b22943f2-5850-4d4e-8b8e-264a7f0edc04" d="M508.06,481.69l.09.05.11.06.12.07.15.07.12.07a1.13,1.13,0,0,1,.28.19.35.35,0,0,1,.11.18.34.34,0,0,1,0,.19.34.34,0,0,1-.18.15.45.45,0,0,1-.28,0,.77.77,0,0,1,.19.16.27.27,0,0,1,.06.17.53.53,0,0,1-.05.2.49.49,0,0,1-.16.16.41.41,0,0,1-.25,0,.93.93,0,0,1-.36-.13l-.16-.08-.16-.09-.15-.08-.14-.07,0-.07,0-.05.09,0a.08.08,0,0,0,.07,0,.31.31,0,0,0,.08-.12l.34-.63a.66.66,0,0,0,.06-.12.19.19,0,0,0,0-.08l-.07-.07,0-.06Zm.43.33-.49.89a.46.46,0,0,0,0,.13.13.13,0,0,0,0,.09l.07.05a.23.23,0,0,0,.18,0,.31.31,0,0,0,.14-.14.24.24,0,0,0,0-.13.14.14,0,0,0,0-.11.28.28,0,0,0-.07-.09.41.41,0,0,0-.11-.07l-.11-.06.07-.13.13.07a.27.27,0,0,0,.14,0,.24.24,0,0,0,.12,0,.53.53,0,0,0,.09-.11.35.35,0,0,0,0-.13.15.15,0,0,0,0-.11.18.18,0,0,0-.09-.08l-.06,0h-.07Z" transform="translate(-472.86 -476.17)"/><path class="b22943f2-5850-4d4e-8b8e-264a7f0edc04" d="M510.1,482.85l-.17,1.17c0,.08,0,.14,0,.18a.17.17,0,0,0,0,.08.09.09,0,0,0,0,.05.14.14,0,0,1,0,.06s0,.05,0,.08l-.08-.06-.11-.07-.08,0-.06,0-.08-.05-.09-.05-.06,0,.05-.07,0-.05c.05,0,.09,0,.11,0s0-.05,0-.11l.07-.48c0-.08,0-.15.05-.22l.06-.19.05,0-.15.14a1.4,1.4,0,0,1-.18.13l-.37.28a.15.15,0,0,0-.07.09.1.1,0,0,0,0,.1.25.25,0,0,1,0,.07.43.43,0,0,0,0,.07.15.15,0,0,0-.06,0l-.07-.05-.07-.05-.09-.06-.08,0,0-.06s0,0,.05-.05h.07l.08,0,.12-.08,1-.68.06,0Zm-.45.85,0,.13-.26-.16-.27-.15.11-.11Z" transform="translate(-472.86 -476.17)"/><path class="b22943f2-5850-4d4e-8b8e-264a7f0edc04" d="M510.39,484.82l.05-.06.05,0,.09,0a.07.07,0,0,0,.07,0,.57.57,0,0,0,.1-.11l.44-.56a.4.4,0,0,0,.07-.12.06.06,0,0,0,0-.07.33.33,0,0,0-.06-.08l0-.06,0-.07a.35.35,0,0,0,.09.07l.11.09.11.09.11.09-.67.86a.49.49,0,0,0-.08.12.22.22,0,0,0,0,.09l.06.06a.19.19,0,0,0,.16.05.33.33,0,0,0,.16-.11l.07-.13a.35.35,0,0,0,0-.2l-.07-.07-.05,0-.06,0,.1-.12.06,0,.08.05a1.47,1.47,0,0,1,.25.25.38.38,0,0,1,.08.24.4.4,0,0,1-.09.24.38.38,0,0,1-.18.13.42.42,0,0,1-.25,0,.92.92,0,0,1-.32-.19l-.14-.11-.15-.11-.14-.1Zm1.44-.22a1.12,1.12,0,0,0,.05-.13.27.27,0,0,0,0-.13.37.37,0,0,0-.12-.14l-.19-.14.14-.08.23.18.16.12.11.08-.07.1a.75.75,0,0,0-.07.12l-.06.1a.11.11,0,0,1-.07,0Z" transform="translate(-472.86 -476.17)"/><path class="b22943f2-5850-4d4e-8b8e-264a7f0edc04" d="M512.41,485a.48.48,0,0,0,.08-.11.08.08,0,0,0,0-.08.23.23,0,0,0,0-.07l0-.06a.18.18,0,0,1,0-.07.45.45,0,0,0,.07.07l.1.09.09.08.08.07.1.08.08.07,0,.05-.06,0a.18.18,0,0,0-.09,0s0,0-.07,0a.46.46,0,0,0-.1.1l-.47.54a.48.48,0,0,0-.08.11.13.13,0,0,0,0,.08.19.19,0,0,0,.06.07l0,.06a.18.18,0,0,1,0,.07.93.93,0,0,0-.1-.1l-.14-.12-.15-.13-.13-.11.06-.05.05,0a.12.12,0,0,0,.08,0,.08.08,0,0,0,.08,0l.1-.1Z" transform="translate(-472.86 -476.17)"/><path class="b22943f2-5850-4d4e-8b8e-264a7f0edc04" d="M512.24,486.34l.06-.06.05,0,.08,0a.08.08,0,0,0,.08,0,.35.35,0,0,0,.11-.09l.5-.51.09-.11a.09.09,0,0,0,0-.07.15.15,0,0,0-.05-.08l0-.06.06-.06.07.08.1.1.11.1.09.1-.76.78a.39.39,0,0,0-.09.11.14.14,0,0,0,0,.09.15.15,0,0,0,.05.07.22.22,0,0,0,.15.06.32.32,0,0,0,.17-.09.47.47,0,0,0,.09-.12.36.36,0,0,0,0-.1l0-.1-.06-.08,0,0-.06,0,.11-.11.06,0,.07.06a1,1,0,0,1,.22.28.36.36,0,0,1,.06.24.43.43,0,0,1-.12.23.56.56,0,0,1-.2.11.42.42,0,0,1-.24,0,.91.91,0,0,1-.3-.22l-.13-.12-.13-.13-.13-.12Zm1.45-.07a.75.75,0,0,0,.07-.12.2.2,0,0,0,0-.13.33.33,0,0,0-.1-.15l-.17-.16.15-.06.21.2a1.84,1.84,0,0,0,.14.14l.1.09-.08.09a.76.76,0,0,0-.08.11l-.07.1-.08,0Z" transform="translate(-472.86 -476.17)"/><path class="b22943f2-5850-4d4e-8b8e-264a7f0edc04" d="M513.36,487.48a.41.41,0,0,1-.05-.09.25.25,0,0,1,0-.07.35.35,0,0,1,.1-.12l.12-.08,0,.07.05.06a.18.18,0,0,0,.09.06s.08,0,.15,0l.2-.11c.08-.06.19-.13.31-.23a.93.93,0,0,0,.1-.1.09.09,0,0,0,0-.07.41.41,0,0,0-.06-.11.21.21,0,0,1,0-.06l.06-.06a1.53,1.53,0,0,0,.14.17l.24.27.21.23a.92.92,0,0,0,.13.14l.08.09-.06.05-.07,0-.07-.05H515l-.11.09-.54.48-.1.1a.19.19,0,0,0,0,.07.28.28,0,0,0,0,.09l0,.05,0,.06-.09-.11-.12-.14-.14-.15-.11-.12s0,0,.06-.05l.06,0s0,.05.08.05a.06.06,0,0,0,.07,0,.33.33,0,0,0,.11-.08l.54-.48.1-.1a.08.08,0,0,0,0-.08s0,0,0-.05l0,0,0,0,0,0h0l-.05,0-.1.07-.39.29a1.69,1.69,0,0,1-.3.18.56.56,0,0,1-.23.06A.31.31,0,0,1,513.36,487.48Z" transform="translate(-472.86 -476.17)"/><path class="b22943f2-5850-4d4e-8b8e-264a7f0edc04" d="M515.28,488a.3.3,0,0,0,.1-.09.11.11,0,0,0,0-.07l0-.09,0-.05.06-.05.06.08.08.1.07.1.07.09.08.09.07.08-.07.05-.06,0a.21.21,0,0,0-.08-.06h-.07l-.12.08-.56.44a.57.57,0,0,0-.11.1.1.1,0,0,0,0,.07.18.18,0,0,0,0,.09l-.05.05-.06.05-.08-.11-.12-.14-.12-.16-.11-.13.07-.05.06,0a.19.19,0,0,0,.07.06.12.12,0,0,0,.08,0l.12-.08Z" transform="translate(-472.86 -476.17)"/><path class="b22943f2-5850-4d4e-8b8e-264a7f0edc04" d="M515.28,489.86a.76.76,0,0,1-.15-.38.64.64,0,0,1,.08-.36,1,1,0,0,1,.27-.3.74.74,0,0,1,.56-.14.66.66,0,0,1,.26.11.7.7,0,0,1,.21.21,1,1,0,0,1,.15.37.76.76,0,0,1-.06.36.79.79,0,0,1-.26.29,1.28,1.28,0,0,1-.29.14.67.67,0,0,1-.28,0,.52.52,0,0,1-.27-.1A.73.73,0,0,1,515.28,489.86Zm.14-.07a.26.26,0,0,0,.16.11.49.49,0,0,0,.23,0,1.17,1.17,0,0,0,.27-.14,1.21,1.21,0,0,0,.23-.22.64.64,0,0,0,.11-.24.3.3,0,0,0,0-.21.25.25,0,0,0-.15-.1.38.38,0,0,0-.21,0,1,1,0,0,0-.27.14l-.19.16a1,1,0,0,0-.13.18.41.41,0,0,0,0,.18A.33.33,0,0,0,515.42,489.79Z" transform="translate(-472.86 -476.17)"/><path class="b22943f2-5850-4d4e-8b8e-264a7f0edc04" d="M517.23,490.28l.19.32-.87.52-.12.08a.14.14,0,0,0,0,.09.51.51,0,0,0,.05.12l-.05,0-.07.05a1.15,1.15,0,0,0-.08-.15l-.11-.19s0-.09-.08-.14l-.09-.13a.54.54,0,0,0-.06-.11l.07,0,.07,0a.3.3,0,0,0,.09.1.09.09,0,0,0,.09,0,.36.36,0,0,0,.13-.05Zm-.08,0a.24.24,0,0,0-.1-.1.21.21,0,0,0-.12,0l-.15,0a.41.41,0,0,1,0-.09.32.32,0,0,1,0-.09.73.73,0,0,0,.19-.07l.18-.09.08.15.1.18.14.23.13.22c0,.07.08.12.11.18l.09.14-.16.11-.16.13-.06-.06-.06-.09a.5.5,0,0,0,.14-.17.2.2,0,0,0,0-.18Z" transform="translate(-472.86 -476.17)"/><path class="b22943f2-5850-4d4e-8b8e-264a7f0edc04" d="M517.84,491.17l0,.11.06.13a.83.83,0,0,0,.07.13l.05.11-1,.49-.12.07a.12.12,0,0,0,0,.08.26.26,0,0,0,0,.11h-.16l-.07-.13-.09-.17-.08-.16-.06-.1.08,0,.06,0a.14.14,0,0,0,.06.07.11.11,0,0,0,.08,0l.14-.05.64-.33a.35.35,0,0,0,.11-.07.08.08,0,0,0,0-.07.51.51,0,0,0,0-.09l.06,0Zm-.45,1.41a.23.23,0,0,1,0,.11.25.25,0,0,1,0,.09l-.17,0-.18.06-.07-.13-.09-.17-.08-.18H517v0a.4.4,0,0,0,.1.12.18.18,0,0,0,.13,0A.51.51,0,0,0,517.39,492.58Zm.43-.36-.1,0-.12.06-.13.07-.09.06,0-.09a.19.19,0,0,1,0-.07.2.2,0,0,0,.09-.1s0-.08,0-.15l-.06-.11.13-.07.06.12a.21.21,0,0,0,.1.12.23.23,0,0,0,.13,0l0,.06Zm.52-.05-.1.06-.12.08a.31.31,0,0,0-.09.07l-.06-.06-.06-.09a.32.32,0,0,0,.1-.1.19.19,0,0,0,0-.12.35.35,0,0,0,0-.18l-.09-.19h.15l.13.24a.87.87,0,0,0,.09.17A.67.67,0,0,0,518.34,492.17Z" transform="translate(-472.86 -476.17)"/><path class="b22943f2-5850-4d4e-8b8e-264a7f0edc04" d="M517.15,493.09l.08,0,.07,0a.16.16,0,0,0,.05.08.11.11,0,0,0,.08,0l.13,0,.67-.28.12-.06s0,0,0-.06a.38.38,0,0,0,0-.1l.06,0,.07,0,0,.09a1.12,1.12,0,0,0,.05.13s0,.08,0,.11a1,1,0,0,1,0,.1l.05.11a.36.36,0,0,1,0,.09l-.07,0h-.07l-.06-.07h-.07l-.13.05-.66.27-.13.07s0,0-.05.06a.13.13,0,0,0,0,.08l-.06,0-.08,0,0-.12s0-.11-.07-.17l-.08-.18A1.07,1.07,0,0,0,517.15,493.09Zm.4,1a.79.79,0,0,1,.08-.16l.14-.15.14-.14a.39.39,0,0,0,.1-.16.22.22,0,0,0,0-.16l.13-.06a.63.63,0,0,0,.07.12l.12.06.19,0,.2,0a.58.58,0,0,1,.14,0,.15.15,0,0,1,.09.06.35.35,0,0,1,.07.12s0,.05,0,.08a.14.14,0,0,1,0,.06l-.11,0-.12.06-.11.05-.05-.07a1,1,0,0,1,0-.1.25.25,0,0,0,.09-.07,0,0,0,0,0,0-.05.09.09,0,0,0-.06-.06l-.15,0-.15,0-.1,0-.07-.05v-.06a.38.38,0,0,1,0,.17.19.19,0,0,1,0,.13.61.61,0,0,1-.07.14l-.15.17-.08.11a.25.25,0,0,0,0,.08.09.09,0,0,0,0,.07.38.38,0,0,0,0,.1h-.14l-.05-.12-.06-.13A.83.83,0,0,0,517.55,494.08Z" transform="translate(-472.86 -476.17)"/><path class="b22943f2-5850-4d4e-8b8e-264a7f0edc04" d="M519.41,494.85l-.87.8-.13.13,0,.07v.06l-.06,0-.08,0a.44.44,0,0,0,0-.1s0-.07,0-.11l0-.09,0-.07,0-.09,0-.1a.25.25,0,0,1,0-.07l.08,0h.07c0,.05.05.07.07.07a.19.19,0,0,0,.1-.05l.36-.33.18-.14.17-.11,0,.06h-.43l-.46,0a.14.14,0,0,0-.11,0,.11.11,0,0,0,0,.11l-.06,0-.08,0,0-.06,0-.09,0-.08a.42.42,0,0,0,0-.1l0-.09.08,0h.07l0,0,.08,0,.14,0,1.19.09,0,.06A.64.64,0,0,1,519.41,494.85Zm-.88.38-.11.07c0-.09-.06-.18-.1-.28s-.07-.19-.11-.29h.15Z" transform="translate(-472.86 -476.17)"/><path class="b22943f2-5850-4d4e-8b8e-264a7f0edc04" d="M486.65,518.43a.4.4,0,0,0,.07-.12.08.08,0,0,0,0-.07.19.19,0,0,0-.06-.07l0-.07,0-.07.08.06.11.08.1.07.09.06.11.07.08,0,0,.06-.05,0-.09,0a.09.09,0,0,0-.07,0,.59.59,0,0,0-.09.11l-.4.6a.88.88,0,0,0-.07.12.11.11,0,0,0,0,.08l.06.07a.09.09,0,0,1,0,.06.16.16,0,0,1,0,.07l-.11-.08-.15-.11-.17-.11-.14-.09,0-.06,0-.05.09,0a.09.09,0,0,0,.07,0,.35.35,0,0,0,.09-.11Z" transform="translate(-472.86 -476.17)"/><path class="b22943f2-5850-4d4e-8b8e-264a7f0edc04" d="M487.47,520.26l.12-1.25,0,0-.37.51a1.44,1.44,0,0,0-.11.19.14.14,0,0,0,0,.11.13.13,0,0,0,.06.07.19.19,0,0,1,0,.07.25.25,0,0,1,0,.07s0,0-.08-.06l-.12-.06-.08-.05-.08,0-.07,0,.05-.07,0,0a.18.18,0,0,0,.1,0s.06,0,.1-.06a.92.92,0,0,0,.13-.17l.34-.48c0-.06.06-.1.07-.13a.14.14,0,0,0,0-.09.22.22,0,0,0-.07-.06.25.25,0,0,1,0-.07l0-.07.07,0,.09,0,.07,0,.08,0,.09,0,.06,0-.12,1.18-.07,0,.89-.75.08,0,.08.05.08,0,.07,0,.08,0,.07,0,0,.06a.15.15,0,0,1,0,.06c-.06,0-.1,0-.14,0a.36.36,0,0,0-.1.16l-.26.59c0,.08-.06.14-.07.18s0,.07,0,.09l.06.06s0,.05,0,.07l0,.07-.06,0-.09-.06-.1-.05-.08,0-.1,0-.1-.06-.08,0,.05-.07,0,0a.14.14,0,0,0,.1,0,.09.09,0,0,0,.07,0,1.13,1.13,0,0,0,.07-.15l.28-.66,0,0-.94.76-.06,0Z" transform="translate(-472.86 -476.17)"/><path class="b22943f2-5850-4d4e-8b8e-264a7f0edc04" d="M489,521.07a.22.22,0,0,1-.12-.13.19.19,0,0,1,0-.18.21.21,0,0,1,.14-.12.28.28,0,0,1,.18,0,.17.17,0,0,1,.12.13.22.22,0,0,1,0,.16.25.25,0,0,1-.14.13A.21.21,0,0,1,489,521.07Z" transform="translate(-472.86 -476.17)"/><path class="b22943f2-5850-4d4e-8b8e-264a7f0edc04" d="M490.54,520.12l.1,0,.11,0,.13,0,.16.06.13,0a1.38,1.38,0,0,1,.3.15.37.37,0,0,1,.13.16.28.28,0,0,1,0,.2.31.31,0,0,1-.16.18.48.48,0,0,1-.27,0,.63.63,0,0,1,.2.13.32.32,0,0,1,.09.17.36.36,0,0,1,0,.2.3.3,0,0,1-.13.18.36.36,0,0,1-.24.07,1,1,0,0,1-.37-.08l-.17-.06-.17-.06-.17-.06-.14,0,0-.08,0-.06a.14.14,0,0,0,.16,0,.81.81,0,0,0,.06-.13l.25-.68a.39.39,0,0,0,0-.13.06.06,0,0,0,0-.07.22.22,0,0,0-.07-.06.2.2,0,0,1,0-.07Zm.47.26-.36,1a.39.39,0,0,0,0,.14.24.24,0,0,0,0,.07l.08.05a.2.2,0,0,0,.17,0,.28.28,0,0,0,.13-.15.36.36,0,0,0,0-.14.17.17,0,0,0,0-.1.24.24,0,0,0-.09-.08.23.23,0,0,0-.12-.06l-.11,0,.05-.13.14,0a.24.24,0,0,0,.14,0,.16.16,0,0,0,.11-.05.24.24,0,0,0,.07-.12.21.21,0,0,0,0-.13.37.37,0,0,0-.05-.11.2.2,0,0,0-.11-.06l-.06,0h-.07Z" transform="translate(-472.86 -476.17)"/><path class="b22943f2-5850-4d4e-8b8e-264a7f0edc04" d="M491.86,522.15a.23.23,0,0,1-.14-.11.22.22,0,0,1,0-.18.23.23,0,0,1,.11-.14.25.25,0,0,1,.19,0,.2.2,0,0,1,.14.11.23.23,0,0,1,0,.16.24.24,0,0,1-.12.14A.2.2,0,0,1,491.86,522.15Z" transform="translate(-472.86 -476.17)"/><path class="b22943f2-5850-4d4e-8b8e-264a7f0edc04" d="M492.36,522.29a.51.51,0,0,0,0-.09l0-.06h.09s0,0,.06,0a.59.59,0,0,0,.05-.13l.17-.7a1.15,1.15,0,0,0,0-.14.09.09,0,0,0,0-.07s0,0-.08,0a.15.15,0,0,1,0-.06.22.22,0,0,1,0-.08l.11,0,.14,0,.15,0,.12,0-.26,1a.4.4,0,0,0,0,.15.14.14,0,0,0,.05.09l.12.06v.07s0,.05,0,.08l-.1,0-.13,0-.13,0-.21,0Zm1.2-.81a.53.53,0,0,0,0-.13.21.21,0,0,0-.07-.12.4.4,0,0,0-.16-.07l-.21,0,.1-.13.27.07.18,0,.13,0a.5.5,0,0,1,0,.12.68.68,0,0,1,0,.14v.12h-.08Z" transform="translate(-472.86 -476.17)"/><path class="b22943f2-5850-4d4e-8b8e-264a7f0edc04" d="M493.86,522.65a.24.24,0,0,1-.15-.1.19.19,0,0,1,0-.18.18.18,0,0,1,.1-.15.24.24,0,0,1,.19,0,.21.21,0,0,1,.14.1.17.17,0,0,1,0,.15.29.29,0,0,1-.1.16A.25.25,0,0,1,493.86,522.65Z" transform="translate(-472.86 -476.17)"/><path class="b22943f2-5850-4d4e-8b8e-264a7f0edc04" d="M494.93,522.83a.24.24,0,0,1,0-.08s0,0,0-.07h.1s0,0,.05-.06,0-.08,0-.14l.08-.72a.28.28,0,0,0,0-.13s0-.06,0-.07a.19.19,0,0,0-.09,0v-.15l.1,0h.13l.12,0h.33s0,0,0,.07a.64.64,0,0,1,0,.07l-.09,0a.1.1,0,0,0,0,.06,1.05,1.05,0,0,1,0,.13l-.08.72a.64.64,0,0,0,0,.14.09.09,0,0,0,0,.07l.08,0a.16.16,0,0,1,0,.07v.08l-.13,0-.18,0-.2,0ZM496,523a.4.4,0,0,1-.1-.15,1.18,1.18,0,0,1-.07-.2,1.39,1.39,0,0,0-.06-.19.42.42,0,0,0-.09-.16.21.21,0,0,0-.14-.07v-.14h.13a.19.19,0,0,0,.11-.07l.13-.15.12-.16.1-.11.1,0h.13l.09,0,.06,0s0,.07,0,.11,0,.09,0,.13v.12h-.19a.2.2,0,0,0,0-.11.05.05,0,0,0,0,0s-.05,0-.08,0l-.1.11L496,522a.45.45,0,0,1-.07.07l-.08,0,0,0,.16,0a.31.31,0,0,1,.11.08.47.47,0,0,1,.08.14,1.29,1.29,0,0,1,.09.2l.05.13a.28.28,0,0,0,.05.08l.05,0,.09,0v0s0,0,0,0a.08.08,0,0,1,0,.05H496Z" transform="translate(-472.86 -476.17)"/><path class="b22943f2-5850-4d4e-8b8e-264a7f0edc04" d="M497.38,523a.81.81,0,0,1-.39-.11.72.72,0,0,1-.25-.27,1,1,0,0,1-.08-.4,1,1,0,0,1,.07-.31.73.73,0,0,1,.16-.23.59.59,0,0,1,.23-.14,1,1,0,0,1,.3,0,.74.74,0,0,1,.38.1.65.65,0,0,1,.26.26.89.89,0,0,1,.08.38,1,1,0,0,1-.06.31.78.78,0,0,1-.16.24.63.63,0,0,1-.23.16A1.06,1.06,0,0,1,497.38,523Zm0-.16a.28.28,0,0,0,.18-.06.43.43,0,0,0,.11-.2.94.94,0,0,0,.05-.3,1.08,1.08,0,0,0,0-.32.58.58,0,0,0-.13-.23.34.34,0,0,0-.2-.09.27.27,0,0,0-.17.06.68.68,0,0,0-.11.19,1.08,1.08,0,0,0-.05.29,2.11,2.11,0,0,0,0,.25.65.65,0,0,0,.06.21.44.44,0,0,0,.12.15A.28.28,0,0,0,497.41,522.88Z" transform="translate(-472.86 -476.17)"/><path class="b22943f2-5850-4d4e-8b8e-264a7f0edc04" d="M498.45,523V523a.15.15,0,0,1,0-.07l.09,0a.16.16,0,0,0,0-.07.64.64,0,0,0,0-.14l0-.72a.53.53,0,0,0,0-.14.1.1,0,0,0-.05-.06l-.09,0s0,0,0-.06v-.09h.72a.71.71,0,0,1,.34,0,.28.28,0,0,1,.17.15.4.4,0,0,1,.06.22.66.66,0,0,1,0,.28.55.55,0,0,1-.17.2.52.52,0,0,1-.29.08.29.29,0,0,1-.14,0,.22.22,0,0,1,0-.08.13.13,0,0,1,0-.06h.07a.19.19,0,0,0,.1,0,.23.23,0,0,0,.07-.11.33.33,0,0,0,0-.18.5.5,0,0,0-.07-.26.26.26,0,0,0-.21-.09H499l-.06,0,0,0,0,.92,0,.15a.14.14,0,0,0,.08.07.24.24,0,0,0,.13,0,.19.19,0,0,1,0,.07.19.19,0,0,0,0,.08h-.78Z" transform="translate(-472.86 -476.17)"/><path class="b22943f2-5850-4d4e-8b8e-264a7f0edc04" d="M500.79,522.85a.75.75,0,0,1-.4,0,.65.65,0,0,1-.29-.23.86.86,0,0,1-.14-.38.8.8,0,0,1,0-.31.58.58,0,0,1,.12-.25.63.63,0,0,1,.21-.18.66.66,0,0,1,.28-.09.75.75,0,0,1,.4,0,.66.66,0,0,1,.29.21.82.82,0,0,1,.14.37,1.06,1.06,0,0,1,0,.31.66.66,0,0,1-.12.27.73.73,0,0,1-.2.19A.75.75,0,0,1,500.79,522.85Zm0-.15a.21.21,0,0,0,.16-.1.41.41,0,0,0,.09-.21,1,1,0,0,0,0-.3.75.75,0,0,0-.09-.31.41.41,0,0,0-.16-.2.26.26,0,0,0-.21-.06.26.26,0,0,0-.16.09.33.33,0,0,0-.08.19.76.76,0,0,0,0,.3,1.69,1.69,0,0,0,.05.24.75.75,0,0,0,.1.2.43.43,0,0,0,.14.13A.25.25,0,0,0,500.8,522.7Z" transform="translate(-472.86 -476.17)"/><path class="b22943f2-5850-4d4e-8b8e-264a7f0edc04" d="M501.92,522.68a.17.17,0,0,1-.1,0h-.08a.53.53,0,0,1-.05-.15.76.76,0,0,1,0-.15h.16a.21.21,0,0,0,.1-.06.34.34,0,0,0,0-.15v-.23c0-.1,0-.22-.06-.38a.86.86,0,0,0,0-.13.06.06,0,0,0-.06,0h-.12l0-.07a.25.25,0,0,1,0-.07l.22-.05.35-.07.3-.07.18,0,.12,0s0,0,0,.08a.08.08,0,0,1,0,.07l-.08,0a.09.09,0,0,0,0,.07.93.93,0,0,0,0,.14l.15.7a.72.72,0,0,0,.05.14s0,0,.05,0h.09a.16.16,0,0,1,0,.06l0,.08-.14,0-.18,0-.19,0-.17,0s0,0,0-.08v-.07l.08,0a.1.1,0,0,0,0-.08,1.15,1.15,0,0,0,0-.14l-.15-.7,0-.14s0,0-.06,0h-.11l-.06,0,0,0s0,0,0,0v.06s0,.07,0,.12.05.34.06.47a1.49,1.49,0,0,1,0,.36.41.41,0,0,1-.06.23A.24.24,0,0,1,501.92,522.68Z" transform="translate(-472.86 -476.17)"/><path class="b22943f2-5850-4d4e-8b8e-264a7f0edc04" d="M503,520.9l.11,0,.14,0,.15,0,.12,0,.3,1a.64.64,0,0,0,.06.14s0,.05.07.05a.14.14,0,0,0,.11,0l0,.16-.15,0-.18.05-.17.06-.11,0a.24.24,0,0,1,0-.08.2.2,0,0,1,0-.07l.08,0a.19.19,0,0,0,0-.08.5.5,0,0,0,0-.14l-.21-.69a.27.27,0,0,0-.05-.12.06.06,0,0,0-.06-.05h-.09l0-.07Zm1.07-.32s0,.07,0,.11l.06.13a1.17,1.17,0,0,0,.05.11l-.07,0a.23.23,0,0,1-.1,0,.41.41,0,0,0-.07-.11.24.24,0,0,0-.12-.07.65.65,0,0,0-.18,0l-.2.07,0-.16.26-.08.19-.06Zm0,.52,0,.11,0,.13s0,.1.05.14l0,.1-.09,0h-.08a.17.17,0,0,0-.08-.11.27.27,0,0,0-.15,0l-.12,0-.05-.14.13,0c.07,0,.12,0,.13-.08a.18.18,0,0,0,0-.13l.07,0Zm.28.49h.11l.09,0a1.21,1.21,0,0,0,0,.18l0,.19-.14,0-.19.06-.18,0,0-.16h0a.26.26,0,0,0,.14-.07.23.23,0,0,0,.06-.12A.79.79,0,0,0,504.35,521.59Z" transform="translate(-472.86 -476.17)"/><path class="b22943f2-5850-4d4e-8b8e-264a7f0edc04" d="M505,521.86s0-.05,0-.08a.64.64,0,0,0,0-.07.16.16,0,0,0,.08-.05.11.11,0,0,0,0-.08.3.3,0,0,0,0-.13l-.26-.67a.53.53,0,0,0-.06-.13s0,0-.06,0h-.09l0-.06,0-.07.09,0,.13,0,.11,0,.1,0,.12,0,.09,0,0,.07s0,0,0,.07a.28.28,0,0,0-.08.06.08.08,0,0,0,0,.07.46.46,0,0,0,0,.13l.26.67a.53.53,0,0,0,.06.13.08.08,0,0,0,.07,0s.05,0,.09,0l0,.06,0,.08-.13,0-.18.07-.18.07Zm.25-.81-.07-.16.47-.18.06.14-.12,0-.12.06-.12,0Zm.55.5,0-.08s0-.05,0-.07.06,0,.07,0a.11.11,0,0,0,0-.08l0-.13-.27-.67-.05-.13a.1.1,0,0,0-.07,0h-.09l0-.06,0-.07.1,0,.12,0,.11-.05.11,0,.11,0,.09-.05,0,.08a.15.15,0,0,1,0,.07l-.07,0a.11.11,0,0,0,0,.08l0,.13.26.67.07.13s0,0,.06,0a.14.14,0,0,0,.09,0,.21.21,0,0,0,0,.06l0,.08-.13,0-.17.07-.19.07Z" transform="translate(-472.86 -476.17)"/><path class="b22943f2-5850-4d4e-8b8e-264a7f0edc04" d="M506.71,521.15l0-.07a.25.25,0,0,1,0-.07l.07-.06a.11.11,0,0,0,0-.08.36.36,0,0,0-.05-.13l-.32-.64-.07-.12s0,0-.06,0l-.1,0,0-.06,0-.06.09-.05.12,0,.11-.06.1,0,.1,0,.09-.05,0,.07a.19.19,0,0,1,0,.07l-.06.06a.17.17,0,0,0,0,.08.66.66,0,0,0,.06.12l.32.65a.63.63,0,0,0,.07.12s0,0,.06,0a.16.16,0,0,0,.09,0l0,.06,0,.07-.13,0L507,521l-.17.09Zm1-.46a.61.61,0,0,1-.17-.07l-.16-.13-.15-.13-.16-.09a.25.25,0,0,0-.17,0l-.06-.13a.52.52,0,0,0,.11-.07A.33.33,0,0,0,507,520c0-.05,0-.12,0-.2s0-.14,0-.2l0-.14a.31.31,0,0,1,0-.1l.11-.08.08,0,.06,0a1.17,1.17,0,0,1,.05.11l.06.11a.41.41,0,0,1,.06.11l-.06.05-.1,0a.45.45,0,0,0-.07-.09h-.06a.18.18,0,0,0-.05.07.49.49,0,0,0,0,.15c0,.06,0,.12,0,.16a.24.24,0,0,1,0,.09l0,.08H507a.41.41,0,0,1,.17-.05.2.2,0,0,1,.13,0,.37.37,0,0,1,.14.07l.19.13.11.08.08,0h.08l.09,0v0l0,0a.11.11,0,0,1,0,.05l-.11.06-.13.07A1.25,1.25,0,0,0,507.68,520.69Z" transform="translate(-472.86 -476.17)"/><path class="b22943f2-5850-4d4e-8b8e-264a7f0edc04" d="M508.18,518.69l1,.67.15.09.08,0a.07.07,0,0,0,.06,0l0,0,.05.07-.09,0-.1.06-.08,0-.06,0-.09.05-.08,0-.06,0-.05-.07a.14.14,0,0,0,0-.06s.06-.07,0-.09,0-.06-.07-.09l-.4-.28a.86.86,0,0,1-.18-.14l-.14-.13.05,0a1.46,1.46,0,0,1,0,.2,1.43,1.43,0,0,1,0,.22l.09.45a.14.14,0,0,0,.05.11.11.11,0,0,0,.11,0l0,0,0,.07-.06,0-.08.05-.07,0-.09.06-.08.05,0-.07,0-.07a.07.07,0,0,0,0-.05.22.22,0,0,0,0-.09.82.82,0,0,0,0-.14l-.18-1.17a.1.1,0,0,1,.05,0Zm.57.77.1.09-.26.16-.25.18,0-.15Z" transform="translate(-472.86 -476.17)"/></svg>